%TF.GenerationSoftware,Altium Limited,Altium NEXUS,2.1.9 (83)*%
G04 Layer_Color=128*
%FSLAX44Y44*%
%MOMM*%
%TF.FileFunction,Paste,Bot*%
%TF.Part,Single*%
G01*
G75*
%TA.AperFunction,SMDPad,CuDef*%
%ADD66R,3.8000X1.3000*%
G04:AMPARAMS|DCode=67|XSize=3.8mm|YSize=1.3mm|CornerRadius=0mm|HoleSize=0mm|Usage=FLASHONLY|Rotation=180.000|XOffset=0mm|YOffset=0mm|HoleType=Round|Shape=Octagon|*
%AMOCTAGOND67*
4,1,8,-1.9000,0.3250,-1.9000,-0.3250,-1.5750,-0.6500,1.5750,-0.6500,1.9000,-0.3250,1.9000,0.3250,1.5750,0.6500,-1.5750,0.6500,-1.9000,0.3250,0.0*
%
%ADD67OCTAGOND67*%

%ADD68R,0.3000X1.2000*%
D66*
X1418000Y232500D02*
D03*
X1592250Y231750D02*
D03*
D67*
X1486000Y232500D02*
D03*
X1660250Y231750D02*
D03*
D68*
X1297110Y84380D02*
D03*
X1292110D02*
D03*
X1287110D02*
D03*
X1282110D02*
D03*
X1277110D02*
D03*
X1272110D02*
D03*
X1267110D02*
D03*
X1262110D02*
D03*
X1257110D02*
D03*
X1252110D02*
D03*
X1247110D02*
D03*
X1242110D02*
D03*
X603500Y88100D02*
D03*
X598500D02*
D03*
X593500D02*
D03*
X588500D02*
D03*
X583500D02*
D03*
X578500D02*
D03*
X573500D02*
D03*
X568500D02*
D03*
X563500D02*
D03*
X558500D02*
D03*
X553500D02*
D03*
X548500D02*
D03*
%TF.MD5,3bfd96bba66b9acd39029c3d5b596c70*%
M02*
