%TF.GenerationSoftware,Altium Limited,Altium NEXUS,2.1.9 (83)*%
G04 Layer_Color=16711935*
%FSLAX44Y44*%
%MOMM*%
%TF.FileFunction,Other,Mechanical_1*%
%TF.Part,Single*%
G01*
G75*
%TA.AperFunction,NonConductor*%
%ADD72C,0.2000*%
%ADD73C,0.2540*%
%ADD132C,0.0254*%
D72*
X868750Y390000D02*
Y516250D01*
Y390000D02*
X955000D01*
Y516250D01*
X868750D02*
X955000D01*
X0Y0D02*
Y1000000D01*
X1802500D01*
Y0D02*
Y1000000D01*
X0Y0D02*
X1802500D01*
D73*
X149852Y870028D02*
X149852Y929718D01*
X119852Y899873D02*
X179852D01*
X449852Y870028D02*
X449852Y929718D01*
X419852Y899873D02*
X479852D01*
X749852Y870028D02*
X749852Y929718D01*
X719852Y899873D02*
X779852D01*
X1049852Y870028D02*
X1049852Y929718D01*
X1019852Y899873D02*
X1079852D01*
X1349852Y870028D02*
X1349852Y929718D01*
X1319852Y899873D02*
X1379852D01*
X1649852Y870028D02*
X1649852Y929718D01*
X1619852Y899873D02*
X1679852D01*
X1106000Y394450D02*
Y496050D01*
X1131100D02*
X1181900D01*
X1207300Y394450D02*
Y496050D01*
X1131100Y394450D02*
X1181900D01*
X1156500D02*
Y496050D01*
X1105700Y445250D02*
X1207300D01*
X1106000Y519450D02*
Y621050D01*
X1131100D02*
X1181900D01*
X1207300Y519450D02*
Y621050D01*
X1131100Y519450D02*
X1181900D01*
X1156500D02*
Y621050D01*
X1105700Y570250D02*
X1207300D01*
X1106000Y269450D02*
Y371050D01*
X1131100D02*
X1181900D01*
X1207300Y269450D02*
Y371050D01*
X1131100Y269450D02*
X1181900D01*
X1156500D02*
Y371050D01*
X1105700Y320250D02*
X1207300D01*
X981000Y394450D02*
Y496050D01*
X1006100D02*
X1056900D01*
X1082300Y394450D02*
Y496050D01*
X1006100Y394450D02*
X1056900D01*
X1031500D02*
Y496050D01*
X980700Y445250D02*
X1082300D01*
X1231000Y394450D02*
Y496050D01*
X1256100D02*
X1306900D01*
X1332300Y394450D02*
Y496050D01*
X1256100Y394450D02*
X1306900D01*
X1281500D02*
Y496050D01*
X1230700Y445250D02*
X1332300D01*
X1247500Y156300D02*
X1323700D01*
D132*
X1490952Y753770D02*
G03*
X1497048Y753770I3048J0D01*
G01*
X601170D02*
G03*
X607266Y753770I3048J0D01*
G01*
X1471521Y748476D02*
Y751525D01*
X1460980D02*
X1471521D01*
X1460980Y748476D02*
Y751525D01*
Y748476D02*
X1471521D01*
Y741976D02*
Y745024D01*
X1460980D02*
X1471521D01*
X1460980Y741976D02*
Y745024D01*
Y741976D02*
X1471521D01*
Y735476D02*
Y738524D01*
X1460980D02*
X1471521D01*
X1460980Y735476D02*
Y738524D01*
Y735476D02*
X1471521D01*
Y728976D02*
Y732024D01*
X1460980D02*
X1471521D01*
X1460980Y728976D02*
Y732024D01*
Y728976D02*
X1471521D01*
Y722476D02*
Y725524D01*
X1460980D02*
X1471521D01*
X1460980Y722476D02*
Y725524D01*
Y722476D02*
X1471521D01*
Y715976D02*
Y719024D01*
X1460980D02*
X1471521D01*
X1460980Y715976D02*
Y719024D01*
Y715976D02*
X1471521D01*
Y709476D02*
Y712524D01*
X1460980D02*
X1471521D01*
X1460980Y709476D02*
Y712524D01*
Y709476D02*
X1471521D01*
Y702976D02*
Y706024D01*
X1460980D02*
X1471521D01*
X1460980Y702976D02*
Y706024D01*
Y702976D02*
X1471521D01*
Y696476D02*
Y699524D01*
X1460980D02*
X1471521D01*
X1460980Y696476D02*
Y699524D01*
Y696476D02*
X1471521D01*
Y689976D02*
Y693024D01*
X1460980D02*
X1471521D01*
X1460980Y689976D02*
Y693024D01*
Y689976D02*
X1471521D01*
X1516479D02*
Y693024D01*
Y689976D02*
X1527020D01*
Y693024D01*
X1516479D02*
X1527020D01*
X1516479Y696476D02*
Y699524D01*
Y696476D02*
X1527020D01*
Y699524D01*
X1516479D02*
X1527020D01*
X1516479Y702976D02*
Y706024D01*
Y702976D02*
X1527020D01*
Y706024D01*
X1516479D02*
X1527020D01*
X1516479Y709476D02*
Y712524D01*
Y709476D02*
X1527020D01*
Y712524D01*
X1516479D02*
X1527020D01*
X1516479Y715976D02*
Y719024D01*
Y715976D02*
X1527020D01*
Y719024D01*
X1516479D02*
X1527020D01*
X1516479Y722476D02*
Y725524D01*
Y722476D02*
X1527020D01*
Y725524D01*
X1516479D02*
X1527020D01*
X1516479Y728976D02*
Y732024D01*
Y728976D02*
X1527020D01*
Y732024D01*
X1516479D02*
X1527020D01*
X1516479Y735476D02*
Y738524D01*
Y735476D02*
X1527020D01*
Y738524D01*
X1516479D02*
X1527020D01*
X1516479Y741976D02*
Y745024D01*
Y741976D02*
X1527020D01*
Y745024D01*
X1516479D02*
X1527020D01*
X1516479Y748476D02*
Y751525D01*
Y748476D02*
X1527020D01*
Y751525D01*
X1516479D02*
X1527020D01*
X1471521Y687730D02*
X1516479D01*
Y753770D01*
X1471521D02*
X1516479D01*
X1471521Y687730D02*
Y753770D01*
X581739Y748476D02*
Y751525D01*
X571198D02*
X581739D01*
X571198Y748476D02*
Y751525D01*
Y748476D02*
X581739D01*
Y741976D02*
Y745024D01*
X571198D02*
X581739D01*
X571198Y741976D02*
Y745024D01*
Y741976D02*
X581739D01*
Y735476D02*
Y738524D01*
X571198D02*
X581739D01*
X571198Y735476D02*
Y738524D01*
Y735476D02*
X581739D01*
Y728976D02*
Y732024D01*
X571198D02*
X581739D01*
X571198Y728976D02*
Y732024D01*
Y728976D02*
X581739D01*
Y722476D02*
Y725524D01*
X571198D02*
X581739D01*
X571198Y722476D02*
Y725524D01*
Y722476D02*
X581739D01*
Y715976D02*
Y719024D01*
X571198D02*
X581739D01*
X571198Y715976D02*
Y719024D01*
Y715976D02*
X581739D01*
Y709476D02*
Y712524D01*
X571198D02*
X581739D01*
X571198Y709476D02*
Y712524D01*
Y709476D02*
X581739D01*
Y702976D02*
Y706024D01*
X571198D02*
X581739D01*
X571198Y702976D02*
Y706024D01*
Y702976D02*
X581739D01*
Y696476D02*
Y699524D01*
X571198D02*
X581739D01*
X571198Y696476D02*
Y699524D01*
Y696476D02*
X581739D01*
Y689976D02*
Y693024D01*
X571198D02*
X581739D01*
X571198Y689976D02*
Y693024D01*
Y689976D02*
X581739D01*
X626697D02*
Y693024D01*
Y689976D02*
X637238D01*
Y693024D01*
X626697D02*
X637238D01*
X626697Y696476D02*
Y699524D01*
Y696476D02*
X637238D01*
Y699524D01*
X626697D02*
X637238D01*
X626697Y702976D02*
Y706024D01*
Y702976D02*
X637238D01*
Y706024D01*
X626697D02*
X637238D01*
X626697Y709476D02*
Y712524D01*
Y709476D02*
X637238D01*
Y712524D01*
X626697D02*
X637238D01*
X626697Y715976D02*
Y719024D01*
Y715976D02*
X637238D01*
Y719024D01*
X626697D02*
X637238D01*
X626697Y722476D02*
Y725524D01*
Y722476D02*
X637238D01*
Y725524D01*
X626697D02*
X637238D01*
X626697Y728976D02*
Y732024D01*
Y728976D02*
X637238D01*
Y732024D01*
X626697D02*
X637238D01*
X626697Y735476D02*
Y738524D01*
Y735476D02*
X637238D01*
Y738524D01*
X626697D02*
X637238D01*
X626697Y741976D02*
Y745024D01*
Y741976D02*
X637238D01*
Y745024D01*
X626697D02*
X637238D01*
X626697Y748476D02*
Y751525D01*
Y748476D02*
X637238D01*
Y751525D01*
X626697D02*
X637238D01*
X581739Y687730D02*
X626697D01*
Y753770D01*
X581739D02*
X626697D01*
X581739Y687730D02*
Y753770D01*
%TF.MD5,55dc2f4acc5a72157b80de0bbdc2a8e7*%
M02*
