G04*
G04 #@! TF.GenerationSoftware,Altium Limited,Altium NEXUS,2.1.9 (83)*
G04*
G04 Layer_Color=8388736*
%FSLAX44Y44*%
%MOMM*%
G71*
G01*
G75*
%ADD13C,0.2000*%
%ADD51R,2.0032X0.9532*%
%ADD52R,1.0032X2.2032*%
%ADD53R,1.1032X1.2032*%
%ADD54O,0.5032X2.3032*%
%ADD55O,2.3032X0.5032*%
%ADD56R,1.2032X1.2032*%
%ADD57R,2.2032X1.0032*%
%ADD58R,0.8032X1.0032*%
G04:AMPARAMS|DCode=59|XSize=1.6032mm|YSize=1.3532mm|CornerRadius=0mm|HoleSize=0mm|Usage=FLASHONLY|Rotation=0.000|XOffset=0mm|YOffset=0mm|HoleType=Round|Shape=Octagon|*
%AMOCTAGOND59*
4,1,8,0.8016,-0.3383,0.8016,0.3383,0.4633,0.6766,-0.4633,0.6766,-0.8016,0.3383,-0.8016,-0.3383,-0.4633,-0.6766,0.4633,-0.6766,0.8016,-0.3383,0.0*
%
%ADD59OCTAGOND59*%

%ADD60R,1.6032X1.3532*%
%ADD61R,1.2032X1.2032*%
%ADD62R,1.0032X0.8032*%
%ADD63R,1.6002X0.5512*%
%ADD64R,1.2032X1.3032*%
%ADD65R,1.2032X1.1032*%
%ADD66R,1.4532X0.7332*%
G04:AMPARAMS|DCode=67|XSize=0.7332mm|YSize=1.4532mm|CornerRadius=0mm|HoleSize=0mm|Usage=FLASHONLY|Rotation=270.000|XOffset=0mm|YOffset=0mm|HoleType=Round|Shape=Octagon|*
%AMOCTAGOND67*
4,1,8,0.7266,0.1833,0.7266,-0.1833,0.5433,-0.3666,-0.5433,-0.3666,-0.7266,-0.1833,-0.7266,0.1833,-0.5433,0.3666,0.5433,0.3666,0.7266,0.1833,0.0*
%
%ADD67OCTAGOND67*%

%ADD68R,1.1032X1.0032*%
%ADD69R,1.4232X1.2032*%
G04:AMPARAMS|DCode=70|XSize=1.2032mm|YSize=1.4232mm|CornerRadius=0mm|HoleSize=0mm|Usage=FLASHONLY|Rotation=90.000|XOffset=0mm|YOffset=0mm|HoleType=Round|Shape=Octagon|*
%AMOCTAGOND70*
4,1,8,-0.7116,-0.3008,-0.7116,0.3008,-0.4108,0.6016,0.4108,0.6016,0.7116,0.3008,0.7116,-0.3008,0.4108,-0.6016,-0.4108,-0.6016,-0.7116,-0.3008,0.0*
%
%ADD70OCTAGOND70*%

%ADD71R,1.3032X1.2032*%
%ADD72R,1.2032X1.4232*%
G04:AMPARAMS|DCode=73|XSize=1.2032mm|YSize=1.4232mm|CornerRadius=0mm|HoleSize=0mm|Usage=FLASHONLY|Rotation=180.000|XOffset=0mm|YOffset=0mm|HoleType=Round|Shape=Octagon|*
%AMOCTAGOND73*
4,1,8,0.3008,-0.7116,-0.3008,-0.7116,-0.6016,-0.4108,-0.6016,0.4108,-0.3008,0.7116,0.3008,0.7116,0.6016,0.4108,0.6016,-0.4108,0.3008,-0.7116,0.0*
%
%ADD73OCTAGOND73*%

%ADD74R,2.6032X1.7532*%
G04:AMPARAMS|DCode=75|XSize=1.7532mm|YSize=2.6032mm|CornerRadius=0mm|HoleSize=0mm|Usage=FLASHONLY|Rotation=270.000|XOffset=0mm|YOffset=0mm|HoleType=Round|Shape=Octagon|*
%AMOCTAGOND75*
4,1,8,1.3016,0.4383,1.3016,-0.4383,0.8633,-0.8766,-0.8633,-0.8766,-1.3016,-0.4383,-1.3016,0.4383,-0.8633,0.8766,0.8633,0.8766,1.3016,0.4383,0.0*
%
%ADD75OCTAGOND75*%

%ADD76R,2.7932X1.1532*%
%ADD77R,6.1432X5.8332*%
%ADD78R,0.7932X1.5732*%
%ADD79R,1.0032X1.1032*%
%ADD80R,3.6032X2.6832*%
%ADD81R,0.6132X1.7732*%
%ADD82R,2.0032X1.5032*%
%ADD83R,1.9812X0.5588*%
%ADD84R,2.9532X3.6332*%
%ADD85C,5.2032*%
%ADD86C,1.7272*%
%ADD87C,1.9032*%
%ADD88R,1.9032X1.9032*%
%ADD89R,1.8532X1.8532*%
%ADD90C,1.8532*%
%ADD91C,0.7000*%
%ADD92O,0.9532X1.2532*%
%ADD93C,1.0000*%
%ADD94O,1.3000X1.0000*%
%ADD95C,0.7500*%
%ADD96C,1.8032*%
%ADD97R,1.8032X1.8032*%
%ADD98R,1.8032X1.8032*%
%ADD99C,4.7032*%
%ADD100C,0.8032*%
G36*
X191250Y139261D02*
Y103250D01*
X124842D01*
X124531Y104481D01*
X190159Y139911D01*
X191250Y139261D01*
D02*
G37*
G36*
X128250Y260025D02*
Y225250D01*
X61917D01*
X61614Y226483D01*
X127164Y260683D01*
X128250Y260025D01*
D02*
G37*
G36*
X191250Y381266D02*
Y345750D01*
X124871D01*
X124564Y346982D01*
X190161Y381920D01*
X191250Y381266D01*
D02*
G37*
D13*
X868750Y390000D02*
Y516250D01*
Y390000D02*
X955000D01*
Y516250D01*
X868750D02*
X955000D01*
X0Y0D02*
Y1000000D01*
X1802500D01*
Y0D02*
Y1000000D01*
X0Y0D02*
X1802500D01*
D51*
X1367018Y787366D02*
D03*
X1333018D02*
D03*
X1367018Y772866D02*
D03*
X1333018D02*
D03*
X167018Y787366D02*
D03*
X133018D02*
D03*
X167018Y772866D02*
D03*
X133018D02*
D03*
X1667018Y787366D02*
D03*
X1633018D02*
D03*
X1667018Y772866D02*
D03*
X1633018D02*
D03*
X467018Y787366D02*
D03*
X433018D02*
D03*
X467018Y772866D02*
D03*
X433018D02*
D03*
X1768518Y877116D02*
D03*
X1734518D02*
D03*
X1768518Y862616D02*
D03*
X1734518D02*
D03*
X767018Y787366D02*
D03*
X733018D02*
D03*
X767018Y772866D02*
D03*
X733018D02*
D03*
X1768518Y913116D02*
D03*
X1734518D02*
D03*
X1768518Y898616D02*
D03*
X1734518D02*
D03*
X1067018Y787366D02*
D03*
X1033018D02*
D03*
X1067018Y772866D02*
D03*
X1033018D02*
D03*
D52*
X172352Y864948D02*
D03*
X127352D02*
D03*
Y934948D02*
D03*
X172352D02*
D03*
X472352Y864948D02*
D03*
X427352D02*
D03*
Y934948D02*
D03*
X472352D02*
D03*
X772352Y864948D02*
D03*
X727352D02*
D03*
Y934948D02*
D03*
X772352D02*
D03*
X1072352Y864948D02*
D03*
X1027352D02*
D03*
Y934948D02*
D03*
X1072352D02*
D03*
X1372352Y864948D02*
D03*
X1327352D02*
D03*
Y934948D02*
D03*
X1372352D02*
D03*
X1672352Y864948D02*
D03*
X1627352D02*
D03*
Y934948D02*
D03*
X1672352D02*
D03*
D53*
X842250Y38750D02*
D03*
X825250D02*
D03*
X352500Y218750D02*
D03*
X369500D02*
D03*
X352250Y168000D02*
D03*
X369250D02*
D03*
X352250Y142250D02*
D03*
X369250D02*
D03*
X369500Y66750D02*
D03*
X352500D02*
D03*
X369750Y91750D02*
D03*
X352750D02*
D03*
X369500Y193000D02*
D03*
X352500D02*
D03*
X583250Y137850D02*
D03*
X566250D02*
D03*
X1128970Y200110D02*
D03*
X1111970D02*
D03*
X1423500Y161000D02*
D03*
X1440500D02*
D03*
X1490250Y112750D02*
D03*
X1473250D02*
D03*
X1277750Y138250D02*
D03*
X1260750D02*
D03*
X1420750Y749750D02*
D03*
X1437750D02*
D03*
X532250D02*
D03*
X549250D02*
D03*
D54*
X842370Y80740D02*
D03*
X847370D02*
D03*
X852370D02*
D03*
X857370D02*
D03*
X862370D02*
D03*
X867370D02*
D03*
X872370D02*
D03*
X877370D02*
D03*
X882370D02*
D03*
X887370D02*
D03*
X892370D02*
D03*
X897370D02*
D03*
X902370D02*
D03*
X907370D02*
D03*
X912370D02*
D03*
X917370D02*
D03*
X922370D02*
D03*
X927370D02*
D03*
X932370D02*
D03*
X937370D02*
D03*
X942370D02*
D03*
X947370D02*
D03*
X952370D02*
D03*
X957370D02*
D03*
X962370D02*
D03*
Y232740D02*
D03*
X957370D02*
D03*
X952370D02*
D03*
X947370D02*
D03*
X942370D02*
D03*
X937370D02*
D03*
X932370D02*
D03*
X927370D02*
D03*
X922370D02*
D03*
X917370D02*
D03*
X912370D02*
D03*
X907370D02*
D03*
X902370D02*
D03*
X897370D02*
D03*
X892370D02*
D03*
X887370D02*
D03*
X882370D02*
D03*
X877370D02*
D03*
X872370D02*
D03*
X867370D02*
D03*
X862370D02*
D03*
X857370D02*
D03*
X852370D02*
D03*
X847370D02*
D03*
X842370D02*
D03*
D55*
X978370Y96740D02*
D03*
Y101740D02*
D03*
Y106740D02*
D03*
Y111740D02*
D03*
Y116740D02*
D03*
Y121740D02*
D03*
Y126740D02*
D03*
Y131740D02*
D03*
Y136740D02*
D03*
Y141740D02*
D03*
Y146740D02*
D03*
Y151740D02*
D03*
Y156740D02*
D03*
Y161740D02*
D03*
Y166740D02*
D03*
Y171740D02*
D03*
Y176740D02*
D03*
Y181740D02*
D03*
Y186740D02*
D03*
Y191740D02*
D03*
Y196740D02*
D03*
Y201740D02*
D03*
Y206740D02*
D03*
Y211740D02*
D03*
Y216740D02*
D03*
X826370D02*
D03*
Y211740D02*
D03*
Y206740D02*
D03*
Y201740D02*
D03*
Y196740D02*
D03*
Y191740D02*
D03*
Y186740D02*
D03*
Y181740D02*
D03*
Y176740D02*
D03*
Y171740D02*
D03*
Y166740D02*
D03*
Y161740D02*
D03*
Y156740D02*
D03*
Y151740D02*
D03*
Y146740D02*
D03*
Y141740D02*
D03*
Y136740D02*
D03*
Y131740D02*
D03*
Y126740D02*
D03*
Y121740D02*
D03*
Y116740D02*
D03*
Y111740D02*
D03*
Y106740D02*
D03*
Y101740D02*
D03*
Y96740D02*
D03*
D56*
X1043250Y222500D02*
D03*
X1059250D02*
D03*
X823750Y250500D02*
D03*
X807750D02*
D03*
X889000Y23000D02*
D03*
X905000D02*
D03*
X1654750Y432750D02*
D03*
X1670750D02*
D03*
D57*
X792000Y22000D02*
D03*
Y67000D02*
D03*
X722000D02*
D03*
Y22000D02*
D03*
D58*
X810500Y50750D02*
D03*
Y38750D02*
D03*
X985750Y244750D02*
D03*
Y232750D02*
D03*
X1003000Y88750D02*
D03*
Y100750D02*
D03*
X945750Y41750D02*
D03*
Y53750D02*
D03*
X862500Y53750D02*
D03*
Y41750D02*
D03*
X553500Y226500D02*
D03*
Y214500D02*
D03*
X1457500Y130500D02*
D03*
Y142500D02*
D03*
X1203000Y85250D02*
D03*
Y97250D02*
D03*
X180900Y625150D02*
D03*
Y613150D02*
D03*
X264500Y631250D02*
D03*
Y619250D02*
D03*
X1227000Y531500D02*
D03*
Y519500D02*
D03*
X1069500Y348000D02*
D03*
Y360000D02*
D03*
X1194500Y235500D02*
D03*
Y247500D02*
D03*
X1221250Y364500D02*
D03*
Y376500D02*
D03*
X172250Y830250D02*
D03*
Y842250D02*
D03*
X472500Y829750D02*
D03*
Y841750D02*
D03*
X772250Y829750D02*
D03*
Y841750D02*
D03*
X1072250Y829750D02*
D03*
Y841750D02*
D03*
X1372250Y830500D02*
D03*
Y842500D02*
D03*
X1672250Y828500D02*
D03*
Y840500D02*
D03*
D59*
X907750Y55250D02*
D03*
D60*
X885750Y39250D02*
D03*
X907750D02*
D03*
X885750Y55250D02*
D03*
D61*
X928500Y55000D02*
D03*
Y39000D02*
D03*
X1000500Y233000D02*
D03*
Y249000D02*
D03*
X961500Y54250D02*
D03*
Y38250D02*
D03*
X1594000Y452750D02*
D03*
Y468750D02*
D03*
X1613000Y452750D02*
D03*
Y468750D02*
D03*
D62*
X807750Y80750D02*
D03*
X819750D02*
D03*
X811750Y233750D02*
D03*
X823750D02*
D03*
X677250Y177000D02*
D03*
X665250D02*
D03*
X184750Y963500D02*
D03*
X172750D02*
D03*
X486000D02*
D03*
X474000D02*
D03*
X785750D02*
D03*
X773750D02*
D03*
X1086250Y963750D02*
D03*
X1074250D02*
D03*
X1385500D02*
D03*
X1373500D02*
D03*
X1685500Y963500D02*
D03*
X1673500D02*
D03*
X666750Y743500D02*
D03*
X654750D02*
D03*
X1556750D02*
D03*
X1544750D02*
D03*
X1270250Y375750D02*
D03*
X1282250D02*
D03*
D63*
X575440Y162600D02*
D03*
Y169100D02*
D03*
Y175600D02*
D03*
Y182100D02*
D03*
Y188600D02*
D03*
Y195100D02*
D03*
Y201600D02*
D03*
Y214600D02*
D03*
Y208100D02*
D03*
Y221100D02*
D03*
Y227600D02*
D03*
Y234100D02*
D03*
Y240600D02*
D03*
Y247100D02*
D03*
X648560Y162600D02*
D03*
Y169100D02*
D03*
Y175600D02*
D03*
Y182100D02*
D03*
Y188600D02*
D03*
Y195100D02*
D03*
Y201600D02*
D03*
Y208100D02*
D03*
Y214600D02*
D03*
Y221100D02*
D03*
Y227600D02*
D03*
Y234100D02*
D03*
Y240600D02*
D03*
Y247100D02*
D03*
D64*
X551500Y169350D02*
D03*
Y186350D02*
D03*
X528750Y169350D02*
D03*
Y186350D02*
D03*
X1346750Y61750D02*
D03*
Y44750D02*
D03*
X663500Y49750D02*
D03*
Y32750D02*
D03*
D65*
X538500Y231850D02*
D03*
Y214850D02*
D03*
X521500Y231850D02*
D03*
Y214850D02*
D03*
X1346750Y81250D02*
D03*
Y98250D02*
D03*
X663500Y69850D02*
D03*
Y86850D02*
D03*
Y119850D02*
D03*
Y102850D02*
D03*
X1346500Y114500D02*
D03*
Y131500D02*
D03*
X1296500Y228000D02*
D03*
Y245000D02*
D03*
X1328750Y114750D02*
D03*
Y131750D02*
D03*
X646500Y102850D02*
D03*
Y119850D02*
D03*
X567750Y42500D02*
D03*
Y25500D02*
D03*
X1490250Y146750D02*
D03*
Y129750D02*
D03*
X1473250D02*
D03*
Y146750D02*
D03*
X1261500Y38500D02*
D03*
Y21500D02*
D03*
X1614750Y353500D02*
D03*
Y336500D02*
D03*
X1576000Y375250D02*
D03*
Y358250D02*
D03*
D66*
X1275070Y169250D02*
D03*
D67*
X1296660D02*
D03*
D68*
X601000Y107000D02*
D03*
Y121000D02*
D03*
X1407250Y137500D02*
D03*
Y123500D02*
D03*
X1490500Y79500D02*
D03*
Y93500D02*
D03*
X1407000Y166750D02*
D03*
Y152750D02*
D03*
D69*
X634561Y139000D02*
D03*
D70*
X600939D02*
D03*
D71*
X1297210Y208790D02*
D03*
X1280210D02*
D03*
X1128470Y220610D02*
D03*
X1111470D02*
D03*
X1491500Y166500D02*
D03*
X1474500D02*
D03*
D72*
X1219500Y157561D02*
D03*
D73*
Y123939D02*
D03*
D74*
X1427250Y85000D02*
D03*
D75*
X1465250D02*
D03*
D76*
X1180500Y171360D02*
D03*
Y125640D02*
D03*
D77*
X1112000Y148500D02*
D03*
D78*
X1423500Y119000D02*
D03*
X1433000D02*
D03*
X1442500D02*
D03*
Y142500D02*
D03*
X1423500D02*
D03*
D79*
X1083220Y200110D02*
D03*
X1097220D02*
D03*
X1166470Y198360D02*
D03*
X1180470D02*
D03*
X1263000Y123500D02*
D03*
X1277000D02*
D03*
D80*
X1614500Y404000D02*
D03*
D81*
X1591750Y432700D02*
D03*
X1598250D02*
D03*
X1604750D02*
D03*
X1611250D02*
D03*
X1617750D02*
D03*
X1624250D02*
D03*
X1630750D02*
D03*
X1637250D02*
D03*
Y375300D02*
D03*
X1630750D02*
D03*
X1624250D02*
D03*
X1617750D02*
D03*
X1611250D02*
D03*
X1604750D02*
D03*
X1598250D02*
D03*
X1591750D02*
D03*
D82*
X1658000Y375250D02*
D03*
Y346250D02*
D03*
X1682750Y375250D02*
D03*
Y346250D02*
D03*
X1708000Y375250D02*
D03*
Y346250D02*
D03*
D83*
X1464282Y750001D02*
D03*
Y743500D02*
D03*
Y737000D02*
D03*
Y730500D02*
D03*
Y724000D02*
D03*
Y717500D02*
D03*
Y711000D02*
D03*
Y704500D02*
D03*
Y698000D02*
D03*
Y691499D02*
D03*
X1523718D02*
D03*
Y698000D02*
D03*
Y704500D02*
D03*
Y711000D02*
D03*
Y717500D02*
D03*
Y724000D02*
D03*
Y730500D02*
D03*
Y737000D02*
D03*
Y743500D02*
D03*
Y750001D02*
D03*
X574500D02*
D03*
Y743500D02*
D03*
Y737000D02*
D03*
Y730500D02*
D03*
Y724000D02*
D03*
Y717500D02*
D03*
Y711000D02*
D03*
Y704500D02*
D03*
Y698000D02*
D03*
Y691499D02*
D03*
X633936D02*
D03*
Y698000D02*
D03*
Y704500D02*
D03*
Y711000D02*
D03*
Y717500D02*
D03*
Y724000D02*
D03*
Y730500D02*
D03*
Y737000D02*
D03*
Y743500D02*
D03*
Y750001D02*
D03*
D84*
X1494000Y720750D02*
D03*
X604218D02*
D03*
D85*
X45000Y955000D02*
D03*
X1755000D02*
D03*
Y45000D02*
D03*
X45000D02*
D03*
D86*
X1650000Y963500D02*
D03*
Y836500D02*
D03*
X1350000Y963500D02*
D03*
Y836500D02*
D03*
X1050000Y963500D02*
D03*
Y836500D02*
D03*
X750000Y963500D02*
D03*
Y836500D02*
D03*
X450000Y963500D02*
D03*
Y836500D02*
D03*
X150000Y963500D02*
D03*
Y836500D02*
D03*
X1371500Y482950D02*
D03*
Y457550D02*
D03*
Y432150D02*
D03*
Y406750D02*
D03*
Y381350D02*
D03*
Y355950D02*
D03*
Y330550D02*
D03*
Y305150D02*
D03*
X1498500Y482950D02*
D03*
Y457550D02*
D03*
Y432150D02*
D03*
Y406750D02*
D03*
Y381350D02*
D03*
Y355950D02*
D03*
Y330550D02*
D03*
Y305150D02*
D03*
D87*
X1661000Y597250D02*
D03*
X1507250D02*
D03*
X1431250D02*
D03*
X1194600Y496050D02*
D03*
Y394450D02*
D03*
X1118400Y496050D02*
D03*
Y394450D02*
D03*
X1194600Y621050D02*
D03*
Y519450D02*
D03*
X1118400Y621050D02*
D03*
Y519450D02*
D03*
X1194600Y371050D02*
D03*
Y269450D02*
D03*
X1118400Y371050D02*
D03*
Y269450D02*
D03*
X1069600Y496050D02*
D03*
Y394450D02*
D03*
X993400Y496050D02*
D03*
Y394450D02*
D03*
X1319600Y496050D02*
D03*
Y394450D02*
D03*
X1243400Y496050D02*
D03*
Y394450D02*
D03*
X1247500Y346800D02*
D03*
Y296000D02*
D03*
X1323700Y346800D02*
D03*
Y296000D02*
D03*
Y245200D02*
D03*
X1247500D02*
D03*
X1323700Y169000D02*
D03*
X1247500D02*
D03*
D88*
X1626000Y597250D02*
D03*
X1472250D02*
D03*
X1396250D02*
D03*
D89*
X290671Y295140D02*
D03*
D90*
X265271D02*
D03*
X290671Y269740D02*
D03*
X265271D02*
D03*
X290671Y244340D02*
D03*
X265271D02*
D03*
X290671Y218940D02*
D03*
X265271D02*
D03*
X290671Y193540D02*
D03*
X265271D02*
D03*
X290671Y168140D02*
D03*
X265271D02*
D03*
X290671Y142740D02*
D03*
X265271D02*
D03*
X290671Y117340D02*
D03*
X265271D02*
D03*
X290671Y91940D02*
D03*
X265271D02*
D03*
X290671Y66540D02*
D03*
X265271D02*
D03*
D91*
X1297610Y71780D02*
D03*
X1289610D02*
D03*
X1281610D02*
D03*
X1273610D02*
D03*
X1265610D02*
D03*
X1257610D02*
D03*
X1249610D02*
D03*
X1241610D02*
D03*
X1293610Y64780D02*
D03*
X1285610D02*
D03*
X1277610D02*
D03*
X1261610D02*
D03*
X1253610D02*
D03*
X1245610D02*
D03*
D92*
X1310910Y63380D02*
D03*
X1228310D02*
D03*
X1225110Y21880D02*
D03*
X1314110D02*
D03*
X617300Y67100D02*
D03*
X534700D02*
D03*
X531500Y25600D02*
D03*
X620500D02*
D03*
D93*
X1305610Y77780D02*
D03*
X612000Y81500D02*
D03*
D94*
X1233610Y77780D02*
D03*
X540000Y81500D02*
D03*
D95*
X604000Y75500D02*
D03*
X596000D02*
D03*
X588000D02*
D03*
X580000D02*
D03*
X572000D02*
D03*
X564000D02*
D03*
X556000D02*
D03*
X548000D02*
D03*
X600000Y68500D02*
D03*
X592000D02*
D03*
X584000D02*
D03*
X568000D02*
D03*
X560000D02*
D03*
X552000D02*
D03*
D96*
X1050900Y62500D02*
D03*
X1076300D02*
D03*
X1101700D02*
D03*
X1127100D02*
D03*
X1177900D02*
D03*
X1152500D02*
D03*
X1021000Y62750D02*
D03*
X37750Y510050D02*
D03*
X448250Y183300D02*
D03*
Y157900D02*
D03*
Y132500D02*
D03*
Y107100D02*
D03*
Y81700D02*
D03*
X37750Y586250D02*
D03*
X717750Y188000D02*
D03*
X1244800Y975750D02*
D03*
X1219400D02*
D03*
X1194000D02*
D03*
X1168600D02*
D03*
X1143200D02*
D03*
X1657900Y545500D02*
D03*
X1494050Y546250D02*
D03*
X1468650D02*
D03*
X1443250D02*
D03*
X1612750Y139500D02*
D03*
X1587350D02*
D03*
X1612500Y77750D02*
D03*
X1637900D02*
D03*
X1555850Y670000D02*
D03*
X663350Y646500D02*
D03*
X544000Y645250D02*
D03*
X123600Y618900D02*
D03*
X149000D02*
D03*
X123600Y593500D02*
D03*
X149000D02*
D03*
X123600Y568100D02*
D03*
X210850Y593750D02*
D03*
X236250Y619150D02*
D03*
X210850D02*
D03*
X37750Y774750D02*
D03*
Y800150D02*
D03*
Y825550D02*
D03*
Y850950D02*
D03*
Y876350D02*
D03*
X1036500Y345000D02*
D03*
Y319600D02*
D03*
Y294200D02*
D03*
Y268800D02*
D03*
D97*
X1203300Y62500D02*
D03*
X995600Y62750D02*
D03*
X1702250Y79250D02*
D03*
X1270200Y975750D02*
D03*
X1375750Y98250D02*
D03*
X690250Y85600D02*
D03*
X1632500Y545500D02*
D03*
X1417850Y546250D02*
D03*
X1638150Y139500D02*
D03*
X1587100Y77750D02*
D03*
X1581250Y670000D02*
D03*
X688750Y646500D02*
D03*
X518600Y645250D02*
D03*
D98*
X37750Y535450D02*
D03*
X448250Y208700D02*
D03*
X37750Y611650D02*
D03*
X717750Y162600D02*
D03*
X1482500Y51000D02*
D03*
X1084250Y224000D02*
D03*
X149000Y568100D02*
D03*
X236250Y593750D02*
D03*
X37750Y749350D02*
D03*
X1036500Y370400D02*
D03*
D99*
X425000Y288500D02*
D03*
X820300D02*
D03*
X820000Y608500D02*
D03*
X425000D02*
D03*
D100*
X198250Y877750D02*
D03*
M02*
