M48
;Layer_Color=9474304
;FILE_FORMAT=4:4
METRIC,LZ
;TYPE=PLATED
T1F00S00C0.3000
T2F00S00C0.4000
T4F00S00C0.6500
T6F00S00C0.7620
T7F00S00C1.0000
T8F00S00C1.1000
T9F00S00C1.2000
T10F00S00C3.3000
%
T01
X001Y0005
X0015
X0025
X003
X0035
X00325Y001
X00225
X0025Y0015
X00225Y002
X00175
X002Y0025
X0025
X00225Y003
X0025Y0035
X00325Y003
X00375
X0038025Y0021875
Y00168
X0015Y0015
X001
X0005
X00075Y001
X0005Y0025
X00075Y003
X00125
X0015Y0025
X001Y0035
X0005
X004Y0025
X0045
X00475Y003
X00525
X00575
X00625
X00675
X007Y0025
X0073675Y0022575
X00725Y002
X0070075Y0017575
X007Y0015
X0065
X0058325Y0015025
X0055Y0015
X0054085Y0016935
X00525Y002
X00475
X005Y0015
X0050925Y000715
X005Y0005
X0045
X004
X00425Y001
X004Y0015
X0055875Y0012075
X0056775Y0010775
X00576528Y00105255
X0059075Y0012075
X00675Y001
X00725
X0079175Y0008025
X007875Y0016675
X00675Y002
X0061175Y00247
X005945Y002405
X0055Y0025
X0053825Y0024625
X00787Y0034475
Y003545
Y0036525
Y00375
X0087025Y0033825
X0088275Y003365
X008755Y0031025
X0086525
X0085375
X008425
X0082375Y002245
X00802Y0022175
X0080725Y0016675
X008535Y0015175
X00857Y0021575
X00875Y002
X00925
X0092825Y0015375
X009195Y001445
X0091175Y00136
X00905Y0012775
X0090737Y0009763
X00915505Y00101572
X00924045Y00100255
X00875Y001
X008Y0005
X00825Y0002175
X009955Y0003425
X0101825Y001125
X0104025Y0012625
X01051499Y00126001
X0106Y0013225
X0106925Y0015675
X010705Y001695
X0106175Y001775
X01061Y00206
X0107175Y001995
X01049801Y00197854
X0104104Y0019629
X0102025Y001895
X01021875Y0020775
X00972Y0024125
X0093025Y00256
X00913Y002685
X00923Y0028075
X0093Y002905
X0099225Y0028
X01Y0035
X0109Y0034125
X011Y0035
X0110425Y003045
X011Y0025
X0117925Y002475
X0115Y0035
X01175Y001
X01125
X01114Y000865
X0109875Y00103
X0108825
X0107625
X0093775Y001625
X01218Y0018275
X0123975Y00183
X0125225Y0018975
X012525Y002055
X0124625Y0021425
X0122275Y002165
X01225Y001
X01263Y0010775
X0128375Y0010125
X012925Y0013825
X01314Y001315
X01357Y0017925
Y001965
X0136575Y00245
X014Y0025
X0145
X0143875Y00214
X01439Y0020525
X0143907Y0019651
X01439Y0018725
X0143925Y0017825
X01425Y001
X0145Y0005
X015
X0155
Y0015
X01575Y002
X0155Y0025
X01525Y003
X0154675Y0034325
X0157575
X014425Y003305
X0143675Y0035125
X0142625
X014165
X01407
X013975
X0138825
X014345Y0030525
X012965Y003255
X01275Y003
X012815Y0039125
X012335Y003765
X0125Y0005
X013
X014
X016
X01625Y001
X01675
X01725
X01775
X0175Y0015
X017
X01725Y002
X01775
X0175Y0025
X017
X0165
X016
X01625Y003
X01633Y00323
X0160925
X0163075Y003615
X01675Y003
X01725
X01775
X0175Y0035
X01625Y002
X016Y0015
X017Y0005
X01725Y004
X01775
X0175Y0045
X017
X016545Y00446
Y0041425
X01675Y004
Y005
X01645Y00482
X01725Y005
X01775
X0175Y0055
X017
X01725Y006
X01775
X0175Y0065
X017
X0165
X016
X01596Y00724
X0160975
X0163Y0073125
Y007405
X0165Y0075
X01667Y0076175
X016105Y00773
Y0078725
X016Y0075
Y0055
X01675Y006
X01775Y007
X0155Y0065
X015
X0145
X014
X0135
X01375Y006
X014Y0055
X0135
X013
X0125
X01275Y005
X01219Y00503
X01225Y006
X0125Y0065
Y0075
X013
X0136775Y0074425
X01367Y007245
X014Y0075
X01423Y007175
X01431Y00711
X0144Y007045
X015Y0075
X01525Y006
X01575
X0155Y0055
X01575Y005
X01525
X0155Y0045
X01575Y004
X01525
X01475
X0144775Y004575
X0135Y0045
X01375Y005
X012Y0075
X0115
X0114325Y0070325
X01143Y006915
X0111825Y0072
X011Y0065
Y0055
X0105
X01
X01025Y005
X00975
Y006
X0090225Y0062025
X00893044Y0062003
X00884293
X00875543
X00867Y0062
X0085825Y0062025
X00858187Y00643313
X0085Y0065
X00867Y00651
X00875543Y006575
X008845Y0066425
X00893044Y0067075
X0090225Y0067775
X00988Y006915
X009875Y007035
X0099775Y0075675
X0095Y0075
X0085
X01067Y00757
X010905Y0078725
X011Y0045
X0115
X01175Y005
X0105Y0045
X01025Y004
X00975
X008Y0045
Y0055
X007
X0065
X006
X00625Y006
X00675
X0072775Y0061775
X007355Y00625
X00745Y0063325
X0075575Y00658
X0076675Y0065075
X0077725Y0064325
X0076625Y0072625
Y0075025
X0075Y0075
X0073275Y0074975
X0070925Y0075075
X007Y0075
X00709Y007125
X0069775Y0070425
X0073275Y007195
X0065Y0065
X006
X00575Y006
Y005
X00625
X00675
X007Y0045
X0065
X006
X00625Y004
X00675
X00575
X00525
X005186Y0044025
X005Y0045
X0045
X004
X00425Y005
X00475
X005Y0055
X0045
X004
Y0065
X0045
X0045075Y006905
Y0070225
Y0071325
X0045125Y0074675
X004675Y007475
X0043375Y00747
X004Y0075
X00425Y007
X005Y0075
X006
X005Y0065
X00475Y006
Y004
X00544Y00429
X00375Y004
X00325
X00275
X00225
X00175
X00125
X00075
X001Y0045
X0015
X00175Y005
X00225
X00275
X0028025Y00541
X003Y0055
X0035
X00375Y006
X00325
X0035Y0065
X003
X0025
X002
X0015
X001
X0005
X00075Y007
X00125
X00175
X0018Y0071875
X001805Y00744
X002Y0075
X0025
X003
X0035
X00375Y007
X00325
X00275
X00225
X0025Y0055
X002
X001905Y0054725
X00168Y005475
X0015Y0055
X00125Y005
X00075
X0005Y0055
X00075Y006
X001Y0075
X0005Y0045
X0025
X003
X0035
X00375Y005
Y008
X00325
X00275
X00225
X00175
X00125
X00075Y009
X001Y0095
X0015
X0019825Y0087775
X00225Y009
X00275
X00325
X00375
X0049375Y0092575
X00525Y009
X00575
X00625
X00675
Y008
X00625
X00575
X00525
X00475
X00775
X007875Y0080075
X0080625
X00829
X00875Y008
X00925
X00975
X009785Y0083825
X0096675Y0083775
X00975Y009
X0099575Y00891
X0100925Y008755
X0109025Y008765
X0114325Y0087625
X011686
X01125Y009
X011Y0095
X0105
X01
X0095
X009
X0085
X008
X0079475Y00898
X0080625
X00829
X00875Y009
X00925
X01075Y008
X01194Y0087625
X01275Y009
X012702Y0093425
X013Y0095
X0135
X014
X0145
X015
X0155
X01575Y009
X01525
X01475
X01425
X013955Y008655
X01375Y008
X0133625Y0080425
X01425Y008
X01475
X01525
X01575
X01675
X0169425Y0084125
X017Y0085
X01761Y0083225
Y008195
X01776
X017765Y0083225
X016Y0095
T02
X00552Y000685
X0056
X00568
X00572Y000755
X00564
X00556
X00548
X0058
X00588
X00596
X00604
X006Y000685
X00592
X00584
X0124161Y0007178
X0124961
X0125761
X0126561
X0127361
X0128161
X0128961
X0129761
X0129361Y0006478
X0128561
X0127761
X0126161
X0125361
X0124561
T04
X00612Y000815
X0130561Y0007778
T06
X013715Y0030515
Y0033055
Y0035595
Y0038135
X014985
Y0035595
Y0033055
Y0030515
Y0040675
Y0043215
Y0045755
Y0048295
X013715
Y0045755
Y0043215
Y0040675
T07
X00265271Y0006654
Y0009194
Y0011734
Y0014274
Y0016814
Y0019354
Y0021894
Y0024434
Y0026974
Y0029514
X00290671
Y0026974
Y0024434
Y0021894
Y0019354
Y0016814
Y0014274
Y0011734
Y0009194
Y0006654
X011184Y0026945
Y0037105
Y0039445
X010696
X009934
X011946
Y0037105
X012434Y0039445
X012475Y003468
Y00296
Y002452
X013237
Y00296
Y003468
X013196Y0039445
X013237Y00169
X012475
X011946Y0026945
Y0049605
Y0051945
X012434Y0049605
X013196
X011946Y0062105
X011184
Y0051945
Y0049605
X010696
X009934
X0015Y008365
Y009635
X0045
Y008365
X0075
Y009635
X0105
Y008365
X0135
Y009635
X0165
Y008365
T08
X0044825Y000817
Y001071
Y001325
Y001579
Y001833
Y002087
X0071775Y00188
Y001626
X0069025Y000856
X009956Y0006275
X01021
X010509Y000625
X010763
X011017
X011271
X011525
X011779
X0108425Y00224
X010365Y002688
Y002942
Y003196
Y00345
Y003704
X012033Y000625
X0137575Y0009825
X014825Y00051
X015871Y0007775
X0158735Y001395
X0161275
X0163815
X016379Y0007775
X016125
X0170225Y0007925
X016579Y005455
X016325
X0149405Y0054625
X0146865
X0144325
X0141785
X0155585Y0067
X0158125
X0068875Y006465
X0066335
X00544Y0064525
X005186
X0023625Y0061915
Y0059375
X0021085
Y0061915
X00149Y006189
X001236
Y005935
X00149
Y005681
X001236
X0003775Y0058625
Y0061165
Y0053545
Y0051005
Y0074935
Y0077475
Y0080015
Y0082555
Y0085095
Y0087635
X011432Y0097575
X011686
X01194
X012194
X012448
X012702
T09
X01626Y0059725
X01661
X0150725
X0147225
X0143125
X0139625
T10
X00045Y00045
X00425Y002885
X008203
X01755Y00045
X0082Y006085
X00425
X00045Y00955
X01755
M30
