  0
SECTION
  2
HEADER
  9
$ACADVER
  1
AC1015
  9
$ACADMAINTVER
 70
     6
  9
$DWGCODEPAGE
  3
ANSI_1252
  9
$INSBASE
 10
0.0
 20
0.0
 30
0.0
  9
$EXTMIN
 10
-137.5
 20
-75.0
 30
0.0
  9
$EXTMAX
 10
137.5
 20
75.0
 30
0.0
  9
$LIMMIN
 10
0.0
 20
0.0
  9
$LIMMAX
 10
420.0
 20
297.0
  9
$ORTHOMODE
 70
     0
  9
$REGENMODE
 70
     1
  9
$FILLMODE
 70
     1
  9
$QTEXTMODE
 70
     0
  9
$MIRRTEXT
 70
     1
  9
$LTSCALE
 40
1.0
  9
$ATTMODE
 70
     1
  9
$TEXTSIZE
 40
3.5
  9
$TRACEWID
 40
1.0
  9
$TEXTSTYLE
  7
Standard
  9
$CLAYER
  8
0
  9
$CELTYPE
  6
ByLayer
  9
$CECOLOR
 62
   256
  9
$CELTSCALE
 40
1.0
  9
$DISPSILH
 70
     0
  9
$DIMSCALE
 40
1.0
  9
$DIMASZ
 40
3.302
  9
$DIMEXO
 40
1.0
  9
$DIMDLI
 40
3.75
  9
$DIMRND
 40
0.0
  9
$DIMDLE
 40
0.0
  9
$DIMEXE
 40
1.0
  9
$DIMTP
 40
0.0
  9
$DIMTM
 40
0.0
  9
$DIMTXT
 40
3.5
  9
$DIMCEN
 40
2.5
  9
$DIMTSZ
 40
0.0
  9
$DIMTOL
 70
     0
  9
$DIMLIM
 70
     0
  9
$DIMTIH
 70
     1
  9
$DIMTOH
 70
     1
  9
$DIMSE1
 70
     0
  9
$DIMSE2
 70
     0
  9
$DIMTAD
 70
     1
  9
$DIMZIN
 70
     1
  9
$DIMBLK
  1

  9
$DIMASO
 70
     1
  9
$DIMSHO
 70
     1
  9
$DIMPOST
  1

  9
$DIMAPOST
  1

  9
$DIMALT
 70
     0
  9
$DIMALTD
 70
     3
  9
$DIMALTF
 40
0.0393700787
  9
$DIMLFAC
 40
1.0
  9
$DIMTOFL
 70
     1
  9
$DIMTVP
 40
0.0
  9
$DIMTIX
 70
     0
  9
$DIMSOXD
 70
     0
  9
$DIMSAH
 70
     0
  9
$DIMBLK1
  1

  9
$DIMBLK2
  1

  9
$DIMSTYLE
  2
ISO-25
  9
$DIMCLRD
 70
     0
  9
$DIMCLRE
 70
     0
  9
$DIMCLRT
 70
     0
  9
$DIMTFAC
 40
1.0
  9
$DIMGAP
 40
1.524
  9
$DIMJUST
 70
     0
  9
$DIMSD1
 70
     0
  9
$DIMSD2
 70
     0
  9
$DIMTOLJ
 70
     0
  9
$DIMTZIN
 70
     1
  9
$DIMALTZ
 70
     0
  9
$DIMALTTZ
 70
     0
  9
$DIMUPT
 70
     0
  9
$DIMDEC
 70
     2
  9
$DIMTDEC
 70
     2
  9
$DIMALTU
 70
     2
  9
$DIMALTTD
 70
     3
  9
$DIMTXSTY
  7
Standard
  9
$DIMAUNIT
 70
     0
  9
$DIMADEC
 70
     2
  9
$DIMALTRND
 40
0.0
  9
$DIMAZIN
 70
     0
  9
$DIMDSEP
 70
    44
  9
$DIMATFIT
 70
     3
  9
$DIMFRAC
 70
     0
  9
$DIMLDRBLK
  1

  9
$DIMLUNIT
 70
     2
  9
$DIMLWD
 70
    -2
  9
$DIMLWE
 70
    -2
  9
$DIMTMOVE
 70
     0
  9
$LUNITS
 70
     2
  9
$LUPREC
 70
     2
  9
$SKETCHINC
 40
1.0
  9
$FILLETRAD
 40
10.0
  9
$AUNITS
 70
     0
  9
$AUPREC
 70
     2
  9
$MENU
  1
.
  9
$ELEVATION
 40
0.0
  9
$PELEVATION
 40
0.0
  9
$THICKNESS
 40
0.0
  9
$LIMCHECK
 70
     0
  9
$CHAMFERA
 40
0.0
  9
$CHAMFERB
 40
0.0
  9
$CHAMFERC
 40
0.0
  9
$CHAMFERD
 40
0.0
  9
$SKPOLY
 70
     0
  9
$TDCREATE
 40
2459159.42085287
  9
$TDUCREATE
 40
2459159.379186204
  9
$TDUPDATE
 40
2459159.420905069
  9
$TDUUPDATE
 40
2459159.379238403
  9
$TDINDWG
 40
0.0000000116
  9
$TDUSRTIMER
 40
0.0000000116
  9
$USRTIMER
 70
     1
  9
$ANGBASE
 50
0.0
  9
$ANGDIR
 70
     0
  9
$PDMODE
 70
     0
  9
$PDSIZE
 40
-1.0
  9
$PLINEWID
 40
0.0
  9
$SPLFRAME
 70
     0
  9
$SPLINETYPE
 70
     6
  9
$SPLINESEGS
 70
     8
  9
$HANDSEED
  5
CE
  9
$SURFTAB1
 70
     6
  9
$SURFTAB2
 70
     6
  9
$SURFTYPE
 70
     6
  9
$SURFU
 70
     6
  9
$SURFV
 70
     6
  9
$UCSBASE
  2

  9
$UCSNAME
  2

  9
$UCSORG
 10
0.0
 20
0.0
 30
0.0
  9
$UCSXDIR
 10
1.0
 20
0.0
 30
0.0
  9
$UCSYDIR
 10
0.0
 20
1.0
 30
0.0
  9
$UCSORTHOREF
  2

  9
$UCSORTHOVIEW
 70
     0
  9
$UCSORGTOP
 10
0.0
 20
0.0
 30
0.0
  9
$UCSORGBOTTOM
 10
0.0
 20
0.0
 30
0.0
  9
$UCSORGLEFT
 10
0.0
 20
0.0
 30
0.0
  9
$UCSORGRIGHT
 10
0.0
 20
0.0
 30
0.0
  9
$UCSORGFRONT
 10
0.0
 20
0.0
 30
0.0
  9
$UCSORGBACK
 10
0.0
 20
0.0
 30
0.0
  9
$PUCSBASE
  2

  9
$PUCSNAME
  2

  9
$PUCSORG
 10
0.0
 20
0.0
 30
0.0
  9
$PUCSXDIR
 10
1.0
 20
0.0
 30
0.0
  9
$PUCSYDIR
 10
0.0
 20
1.0
 30
0.0
  9
$PUCSORTHOREF
  2

  9
$PUCSORTHOVIEW
 70
     0
  9
$PUCSORGTOP
 10
0.0
 20
0.0
 30
0.0
  9
$PUCSORGBOTTOM
 10
0.0
 20
0.0
 30
0.0
  9
$PUCSORGLEFT
 10
0.0
 20
0.0
 30
0.0
  9
$PUCSORGRIGHT
 10
0.0
 20
0.0
 30
0.0
  9
$PUCSORGFRONT
 10
0.0
 20
0.0
 30
0.0
  9
$PUCSORGBACK
 10
0.0
 20
0.0
 30
0.0
  9
$USERI1
 70
     0
  9
$USERI2
 70
     0
  9
$USERI3
 70
     0
  9
$USERI4
 70
     0
  9
$USERI5
 70
     0
  9
$USERR1
 40
0.0
  9
$USERR2
 40
0.0
  9
$USERR3
 40
0.0
  9
$USERR4
 40
0.0
  9
$USERR5
 40
0.0
  9
$WORLDVIEW
 70
     1
  9
$SHADEDGE
 70
     3
  9
$SHADEDIF
 70
    70
  9
$TILEMODE
 70
     1
  9
$MAXACTVP
 70
    64
  9
$PINSBASE
 10
0.0
 20
0.0
 30
0.0
  9
$PLIMCHECK
 70
     0
  9
$PEXTMIN
 10
1.0000000000E+20
 20
1.0000000000E+20
 30
1.0000000000E+20
  9
$PEXTMAX
 10
-1.0000000000E+20
 20
-1.0000000000E+20
 30
-1.0000000000E+20
  9
$PLIMMIN
 10
0.0
 20
0.0
  9
$PLIMMAX
 10
420.0
 20
297.0
  9
$UNITMODE
 70
     0
  9
$VISRETAIN
 70
     1
  9
$PLINEGEN
 70
     0
  9
$PSLTSCALE
 70
     1
  9
$TREEDEPTH
 70
  3020
  9
$CMLSTYLE
  2
Standard
  9
$CMLJUST
 70
     0
  9
$CMLSCALE
 40
20.0
  9
$PROXYGRAPHICS
 70
     1
  9
$MEASUREMENT
 70
     1
  9
$CELWEIGHT
370
    -1
  9
$ENDCAPS
280
     0
  9
$JOINSTYLE
280
     0
  9
$LWDISPLAY
290
     1
  9
$INSUNITS
 70
     4
  9
$HYPERLINKBASE
  1

  9
$STYLESHEET
  1

  9
$XEDIT
290
     1
  9
$CEPSNTYPE
380
     0
  9
$PSTYLEMODE
290
     1
  9
$FINGERPRINTGUID
  2
{27722850-2c3c-4807-b2d0-0c8f086f7f36}
  9
$VERSIONGUID
  2
{FAEB1C32-E019-11D5-929B-00C0DF256EC4}
  9
$EXTNAMES
290
     1
  9
$PSVPSCALE
 40
0.0
  9
$OLESTARTUP
290
     0
  0
ENDSEC
  0
SECTION
  2
CLASSES
  0
CLASS
  1
ACDBDICTIONARYWDFLT
  2
AcDbDictionaryWithDefault
  3
ObjectDBX Classes
 90
        0
280
     0
281
     0
  0
CLASS
  1
VISUALSTYLE
  2
AcDbVisualStyle
  3
ObjectDBX Classes
 90
     4095
280
     0
281
     0
  0
CLASS
  1
MATERIAL
  2
AcDbMaterial
  3
ObjectDBX Classes
 90
     1153
280
     0
281
     0
  0
CLASS
  1
SCALE
  2
AcDbScale
  3
ObjectDBX Classes
 90
     1153
280
     0
281
     0
  0
CLASS
  1
TABLESTYLE
  2
AcDbTableStyle
  3
ObjectDBX Classes
 90
     4095
280
     0
281
     0
  0
CLASS
  1
MLEADERSTYLE
  2
AcDbMLeaderStyle
  3
ACDB_MLEADERSTYLE_CLASS
 90
     4095
280
     0
281
     0
  0
CLASS
  1
SUN
  2
AcDbSun
  3
SCENEOE
 90
     1153
280
     0
281
     0
  0
CLASS
  1
ACDBPLACEHOLDER
  2
AcDbPlaceHolder
  3
ObjectDBX Classes
 90
        0
280
     0
281
     0
  0
CLASS
  1
LAYOUT
  2
AcDbLayout
  3
ObjectDBX Classes
 90
        0
280
     0
281
     0
  0
ENDSEC
  0
SECTION
  2
TABLES
  0
TABLE
  2
VPORT
  5
8
330
0
100
AcDbSymbolTable
 70
     1
  0
VPORT
  5
29
330
8
100
AcDbSymbolTableRecord
100
AcDbViewportTableRecord
  2
*Active
 70
     0
 10
0.0
 20
0.0
 11
1.0
 21
1.0
 12
0.0
 22
0.0
 13
0.0
 23
0.0
 14
10.0
 24
10.0
 15
10.0
 25
10.0
 16
0.0
 26
0.0
 36
1.0
 17
0.0
 27
0.0
 37
0.0
 40
153.0
 41
1.8333333333
 42
50.0
 43
0.0
 44
0.0
 50
0.0
 51
0.0
 71
     0
 72
   100
 73
     1
 74
     3
 75
     0
 76
     0
 77
     0
 78
     0
281
     0
 65
     1
110
0.0
120
0.0
130
0.0
111
1.0
121
0.0
131
0.0
112
0.0
122
1.0
132
0.0
 79
     0
146
0.0
  0
ENDTAB
  0
TABLE
  2
LTYPE
  5
5
330
0
100
AcDbSymbolTable
 70
     6
  0
LTYPE
  5
14
330
5
100
AcDbSymbolTableRecord
100
AcDbLinetypeTableRecord
  2
ByBlock
 70
     0
  3

 72
    65
 73
     0
 40
0.0
  0
LTYPE
  5
15
330
5
100
AcDbSymbolTableRecord
100
AcDbLinetypeTableRecord
  2
ByLayer
 70
     0
  3

 72
    65
 73
     0
 40
0.0
  0
LTYPE
  5
16
330
5
100
AcDbSymbolTableRecord
100
AcDbLinetypeTableRecord
  2
Continuous
 70
     0
  3
Solid line
 72
    65
 73
     0
 40
0.0
  0
LTYPE
  5
6E
330
5
100
AcDbSymbolTableRecord
100
AcDbLinetypeTableRecord
  2
HIDDEN
 70
     0
  3
Hidden __ __ __ __ __ __ __ __ __ __ __ __ __ __
 72
    65
 73
     2
 40
1.905
 49
1.27
 74
     0
 49
-0.635
 74
     0
  0
LTYPE
  5
6F
330
5
100
AcDbSymbolTableRecord
100
AcDbLinetypeTableRecord
  2
PHANTOM
 70
     0
  3
Phantom ______  __  __  ______  __  __  ______
 72
    65
 73
     6
 40
12.7
 49
6.35
 74
     0
 49
-1.27
 74
     0
 49
1.27
 74
     0
 49
-1.27
 74
     0
 49
1.27
 74
     0
 49
-1.27
 74
     0
  0
LTYPE
  5
70
330
5
100
AcDbSymbolTableRecord
100
AcDbLinetypeTableRecord
  2
CENTER
 70
     0
  3
Center ____ _ ____ _ ____ _ ____ _ ____ _ ____
 72
    65
 73
     4
 40
10.16
 49
6.35
 74
     0
 49
-1.27
 74
     0
 49
1.27
 74
     0
 49
-1.27
 74
     0
  0
LTYPE
  5
71
330
5
100
AcDbSymbolTableRecord
100
AcDbLinetypeTableRecord
  2
CENTERX2
 70
     0
  3
Center (2x) ________  __  ________  __  _____
 72
    65
 73
     4
 40
20.32
 49
12.7
 74
     0
 49
-2.54
 74
     0
 49
2.54
 74
     0
 49
-2.54
 74
     0
  0
LTYPE
  5
72
330
5
100
AcDbSymbolTableRecord
100
AcDbLinetypeTableRecord
  2
DOT2
 70
     0
  3
Dot (.5x) ........................................
 72
    65
 73
     2
 40
0.635
 49
0.0
 74
     0
 49
-0.635
 74
     0
  0
ENDTAB
  0
TABLE
  2
LAYER
  5
2
330
0
100
AcDbSymbolTable
 70
     1
  0
LAYER
  5
10
330
2
100
AcDbSymbolTableRecord
100
AcDbLayerTableRecord
  2
0
 70
     0
 62
     7
  6
Continuous
370
    -3
390
F
  0
ENDTAB
  0
TABLE
  2
STYLE
  5
3
330
0
100
AcDbSymbolTable
 70
     2
  0
STYLE
  5
11
330
3
100
AcDbSymbolTableRecord
100
AcDbTextStyleTableRecord
  2
Standard
 70
     0
 40
0.0
 41
1.0
 50
0.0
 71
     0
 42
3.5
  3
txt
  4

  0
STYLE
  5
CC
330
3
100
AcDbSymbolTableRecord
100
AcDbTextStyleTableRecord
  2
SLDTEXTSTYLE0
 70
     0
 40
0.0
 41
0.7
 50
0.0
 71
     0
 42
3.5
  3
TXT
  4

  0
ENDTAB
  0
TABLE
  2
VIEW
  5
6
330
0
100
AcDbSymbolTable
 70
     0
  0
ENDTAB
  0
TABLE
  2
UCS
  5
7
330
0
100
AcDbSymbolTable
 70
     0
  0
ENDTAB
  0
TABLE
  2
APPID
  5
9
330
0
100
AcDbSymbolTable
 70
     1
  0
APPID
  5
12
330
9
100
AcDbSymbolTableRecord
100
AcDbRegAppTableRecord
  2
ACAD
 70
     0
  0
ENDTAB
  0
TABLE
  2
DIMSTYLE
  5
A
330
0
100
AcDbSymbolTable
 70
     1
100
AcDbDimStyleTable
  0
DIMSTYLE
105
27
330
A
100
AcDbSymbolTableRecord
100
AcDbDimStyleTableRecord
  2
ISO-25
 70
     0
 41
2.5
 42
0.625
 43
3.75
 44
1.25
 73
     0
 74
     0
 77
     1
 78
     8
140
2.5
141
2.5
143
0.0393700787
147
0.625
171
     3
172
     1
178
     0
271
     2
272
     2
274
     3
278
    44
283
     0
284
     8
340
11
  0
ENDTAB
  0
TABLE
  2
BLOCK_RECORD
  5
1
330
0
100
AcDbSymbolTable
 70
     1
  0
BLOCK_RECORD
  5
1F
330
1
100
AcDbSymbolTableRecord
100
AcDbBlockTableRecord
  2
*Model_Space
340
22
  0
BLOCK_RECORD
  5
1B
330
1
100
AcDbSymbolTableRecord
100
AcDbBlockTableRecord
  2
*Paper_Space
340
1E
  0
BLOCK_RECORD
  5
23
330
1
100
AcDbSymbolTableRecord
100
AcDbBlockTableRecord
  2
*Paper_Space0
340
26
  0
ENDTAB
  0
ENDSEC
  0
SECTION
  2
BLOCKS
  0
BLOCK
  5
20
330
1F
100
AcDbEntity
  8
0
100
AcDbBlockBegin
  2
*Model_Space
 70
     0
 10
0.0
 20
0.0
 30
0.0
  3
*Model_Space
  1

  0
ENDBLK
  5
21
330
1F
100
AcDbEntity
  8
0
100
AcDbBlockEnd
  0
BLOCK
  5
1C
330
1B
100
AcDbEntity
 67
     1
  8
0
100
AcDbBlockBegin
  2
*Paper_Space
 70
     0
 10
0.0
 20
0.0
 30
0.0
  3
*Paper_Space
  1

  0
ENDBLK
  5
1D
330
1B
100
AcDbEntity
 67
     1
  8
0
100
AcDbBlockEnd
  0
BLOCK
  5
24
330
23
100
AcDbEntity
  8
0
100
AcDbBlockBegin
  2
*Paper_Space0
 70
     0
 10
0.0
 20
0.0
 30
0.0
  3
*Paper_Space0
  1

  0
ENDBLK
  5
25
330
23
100
AcDbEntity
  8
0
100
AcDbBlockEnd
  0
ENDSEC
  0
SECTION
  2
ENTITIES
  0
LWPOLYLINE
  5
73
330
1F
100
AcDbEntity
  8
0
  6
Continuous
 62
     7
100
AcDbPolyline
 90
       62
 70
   128
 43
0.0
 10
-118.6738014221
 20
-18.2051867605
 10
-117.9909442332
 20
-18.2051867605
 10
-117.9909442332
 20
-18.2051867605
 10
-117.8906838165
 20
-18.2065890041
 10
-117.796733496
 20
-18.2114968567
 10
-117.7083921499
 20
-18.2192091964
 10
-117.6263608999
 20
-18.2304271451
 10
-117.5499386242
 20
-18.244449581
 10
-117.4798264447
 20
-18.2612765041
 10
-117.4153232396
 20
-18.2816090361
 10
-117.3571301306
 20
-18.3054471772
 10
-117.2519618614
 20
-18.3622380426
 10
-117.1587126627
 20
-18.4316491002
 10
-117.0773825345
 20
-18.5157837156
 10
-117.007270355
 20
-18.6125385233
 10
-116.9511806114
 20
-18.7191090361
 10
-116.9112166691
 20
-18.8305874015
 10
-116.8866774063
 20
-18.9490769849
 10
-116.8789650665
 20
-19.0724744208
 10
-116.8789650665
 20
-19.0724744208
 10
-116.8852751627
 20
-19.1881595169
 10
-116.9049065729
 20
-19.2982356387
 10
-116.9371581755
 20
-19.4034039079
 10
-116.9820299704
 20
-19.5029632028
 10
-117.0395219575
 20
-19.5948101579
 10
-117.1082318934
 20
-19.6782436515
 10
-117.1902631434
 20
-19.75186144
 10
-117.2835123422
 20
-19.8170657669
 10
-117.2835123422
 20
-19.8170657669
 10
-117.1650227588
 20
-19.864742049
 10
-117.0605556114
 20
-19.9166250618
 10
-116.9715131434
 20
-19.9727148054
 10
-116.8964931114
 20
-20.0330112797
 10
-116.8319899063
 20
-20.0982156067
 10
-116.7759001627
 20
-20.1690289079
 10
-116.726821637
 20
-20.247554549
 10
-116.6854554511
 20
-20.3316891644
 10
-116.6525027268
 20
-20.4214327541
 10
-116.6286645857
 20
-20.513980831
 10
-116.6146421499
 20
-20.6114367605
 10
-116.6097342973
 20
-20.7116971772
 10
-116.6097342973
 20
-20.7116971772
 10
-116.6146421499
 20
-20.8140609592
 10
-116.6286645857
 20
-20.9122180105
 10
-116.6525027268
 20
-21.006168331
 10
-116.6854554511
 20
-21.0959119208
 10
-116.7282238806
 20
-21.1821499015
 10
-116.7808080152
 20
-21.2648822733
 10
-116.8425067332
 20
-21.3427067926
 10
-116.9133200345
 20
-21.4170257028
 10
-116.9925467973
 20
-21.4843333951
 10
-117.0780836563
 20
-21.5432276259
 10
-117.1699306114
 20
-21.5923061515
 10
-117.2680876627
 20
-21.6329712156
 10
-117.3732559319
 20
-21.6645216964
 10
-117.4847342973
 20
-21.6869575938
 10
-117.6025227588
 20
-21.7009800297
 10
-117.7273224383
 20
-21.7051867605
 10
-117.7273224383
 20
-21.7051867605
 10
-118.6738368614
 20
-21.7051867605
 10
-118.6738368614
 20
-21.7051867605
 10
-118.6738368614
 20
-18.2051867605
  0
LWPOLYLINE
  5
74
330
1F
100
AcDbEntity
  8
0
  6
Continuous
 62
     7
100
AcDbPolyline
 90
       40
 70
   128
 43
0.0
 10
-118.3596849442
 20
-18.5641611195
 10
-118.3597342973
 20
-19.6859559913
 10
-118.3597342973
 20
-19.6859559913
 10
-118.148696637
 20
-19.6859559913
 10
-118.148696637
 20
-19.6859559913
 10
-118.0561485601
 20
-19.6845537477
 10
-117.9699105793
 20
-19.6817492605
 10
-117.8899826947
 20
-19.6761402861
 10
-117.8156637845
 20
-19.6691290682
 10
-117.749057214
 20
-19.6593133631
 10
-117.6880596178
 20
-19.6473942926
 10
-117.6333721178
 20
-19.6340729785
 10
-117.584994714
 20
-19.6179471772
 10
-117.499457855
 20
-19.5793854785
 10
-117.4230355793
 20
-19.5303069528
 10
-117.3564290088
 20
-19.4721138438
 10
-117.2989370216
 20
-19.4041050297
 10
-117.2526629832
 20
-19.3290849977
 10
-117.2197102588
 20
-19.2491571131
 10
-117.1993777268
 20
-19.1664247413
 10
-117.1930676306
 20
-19.0787845169
 10
-117.1930676306
 20
-19.0787845169
 10
-117.1958721178
 20
-19.0205914079
 10
-117.2042855793
 20
-18.9652027861
 10
-117.2183080152
 20
-18.9133197733
 10
-117.2372383037
 20
-18.8642412477
 10
-117.2624786883
 20
-18.818668331
 10
-117.2926269255
 20
-18.7766010233
 10
-117.3290852588
 20
-18.7373382028
 10
-117.3704514447
 20
-18.7015809913
 10
-117.4181277268
 20
-18.6693293887
 10
-117.472114105
 20
-18.6412845169
 10
-117.5324105793
 20
-18.6181474977
 10
-117.5997182716
 20
-18.5985160874
 10
-117.6733360601
 20
-18.5837925297
 10
-117.7532639447
 20
-18.572574581
 10
-117.8402030473
 20
-18.5662644849
 10
-117.933452246
 20
-18.5641611195
 10
-117.933452246
 20
-18.5641611195
 10
-118.3597342973
 20
-18.5641611195
  0
LWPOLYLINE
  5
75
330
1F
100
AcDbEntity
  8
0
  6
Continuous
 62
     7
100
AcDbPolyline
 90
       45
 70
   128
 43
0.0
 10
-118.3596849442
 20
-20.0449303502
 10
-118.3597342973
 20
-21.3462124015
 10
-118.3597342973
 20
-21.3462124015
 10
-117.9124185922
 20
-21.3462124015
 10
-117.9124185922
 20
-21.3462124015
 10
-117.8163649063
 20
-21.3448101579
 10
-117.7273224383
 20
-21.3420056708
 10
-117.6452911883
 20
-21.3363966964
 10
-117.5688689127
 20
-21.3279832349
 10
-117.5001589768
 20
-21.3181675297
 10
-117.4370580152
 20
-21.3055473374
 10
-117.3809682716
 20
-21.2908237797
 10
-117.331889746
 20
-21.2739968567
 10
-117.2442495216
 20
-21.2326306708
 10
-117.1657238806
 20
-21.1807476579
 10
-117.0963128229
 20
-21.11904894
 10
-117.0360163486
 20
-21.0468333951
 10
-116.9869378229
 20
-20.9676066323
 10
-116.9518817332
 20
-20.8855753823
 10
-116.9308480793
 20
-20.8000385233
 10
-116.9238368614
 20
-20.7116971772
 10
-116.9238368614
 20
-20.7116971772
 10
-116.9259402268
 20
-20.6563085554
 10
-116.9336525665
 20
-20.6023221772
 10
-116.945571637
 20
-20.5504391644
 10
-116.9616974383
 20
-20.4999583951
 10
-116.983432214
 20
-20.4522821131
 10
-117.0100748422
 20
-20.4053069528
 10
-117.0409242011
 20
-20.3604351579
 10
-117.0766814127
 20
-20.3176667285
 10
-117.1601149063
 20
-20.2398422092
 10
-117.2582719575
 20
-20.1753390041
 10
-117.3704514447
 20
-20.1241571131
 10
-117.4966533678
 20
-20.0862965361
 10
-117.4966533678
 20
-20.0862965361
 10
-117.5478352588
 20
-20.076480831
 10
-117.6081317332
 20
-20.0680673695
 10
-117.6768416691
 20
-20.0610561515
 10
-117.7539650665
 20
-20.0554471772
 10
-117.8402030473
 20
-20.0505393246
 10
-117.9355556114
 20
-20.0477348374
 10
-118.039321637
 20
-20.045631472
 10
-118.1515011242
 20
-20.0449303502
 10
-118.1515011242
 20
-20.0449303502
 10
-118.3597342973
 20
-20.0449303502
  0
LWPOLYLINE
  5
76
330
1F
100
AcDbEntity
  8
0
  6
Continuous
 62
     7
100
AcDbPolyline
 90
       26
 70
   128
 43
0.0
 10
-116.0712242126
 20
-21.7051867605
 10
-115.609233496
 20
-18.2051867605
 10
-115.609233496
 20
-18.2051867605
 10
-115.5643617011
 20
-18.2051867605
 10
-115.5643617011
 20
-18.2051867605
 10
-114.1193496819
 20
-21.0769816323
 10
-114.1193496819
 20
-21.0769816323
 10
-112.6778432716
 20
-18.2051867605
 10
-112.6778432716
 20
-18.2051867605
 10
-112.632270355
 20
-18.2051867605
 10
-112.632270355
 20
-18.2051867605
 10
-112.167426605
 20
-21.7051867605
 10
-112.167426605
 20
-21.7051867605
 10
-112.4829314127
 20
-21.7051867605
 10
-112.4829314127
 20
-21.7051867605
 10
-112.8180676306
 20
-19.1867572733
 10
-112.8180676306
 20
-19.1867572733
 10
-114.081489105
 20
-21.7051867605
 10
-114.081489105
 20
-21.7051867605
 10
-114.1523024063
 20
-21.7051867605
 10
-114.1523024063
 20
-21.7051867605
 10
-115.4206317332
 20
-19.181148299
 10
-115.4206317332
 20
-19.181148299
 10
-115.7550668293
 20
-21.7051867605
 10
-115.7550668293
 20
-21.7051867605
 10
-116.0712727588
 20
-21.7051867605
  0
LWPOLYLINE
  5
77
330
1F
100
AcDbEntity
  8
0
  6
Continuous
 62
     7
100
AcDbPolyline
 90
       16
 70
   128
 43
0.0
 10
-110.0135445595
 20
-18.2051867605
 10
-108.3981958357
 20
-21.7051867605
 10
-108.3981958357
 20
-21.7051867605
 10
-108.7396421499
 20
-21.7051867605
 10
-108.7396421499
 20
-21.7051867605
 10
-109.2570700345
 20
-20.5833918887
 10
-109.2570700345
 20
-20.5833918887
 10
-110.8437086563
 20
-20.5833918887
 10
-110.8437086563
 20
-20.5833918887
 10
-111.3758600986
 20
-21.7051867605
 10
-111.3758600986
 20
-21.7051867605
 10
-111.7187086563
 20
-21.7051867605
 10
-111.7187086563
 20
-21.7051867605
 10
-110.058452246
 20
-18.2051867605
 10
-110.058452246
 20
-18.2051867605
 10
-110.0135804511
 20
-18.2051867605
  0
LWPOLYLINE
  5
78
330
1F
100
AcDbEntity
  8
0
  6
Continuous
 62
     7
100
AcDbPolyline
 90
        6
 70
   128
 43
0.0
 10
-110.03947258
 20
-18.8873782669
 10
-110.6733360601
 20
-20.2244175297
 10
-110.6733360601
 20
-20.2244175297
 10
-109.4225347781
 20
-20.2244175297
 10
-109.4225347781
 20
-20.2244175297
 10
-110.0395219575
 20
-18.8873782669
  0
LWPOLYLINE
  5
79
330
1F
100
AcDbEntity
  8
0
  6
Continuous
 62
     7
100
AcDbPolyline
 90
      106
 70
   128
 43
0.0
 10
-106.2892079353
 20
-19.2821098374
 10
-106.6033240409
 20
-19.2821098374
 10
-106.6033240409
 20
-19.2821098374
 10
-106.5949105793
 20
-19.1573101579
 10
-106.5766814127
 20
-19.0381194528
 10
-106.5493376627
 20
-18.9252388438
 10
-106.5114770857
 20
-18.8172660874
 10
-106.4645019255
 20
-18.7156034272
 10
-106.4077110601
 20
-18.6188486195
 10
-106.3411044896
 20
-18.5284039079
 10
-106.264682214
 20
-18.4435681708
 10
-106.1812487204
 20
-18.3664447733
 10
-106.0922062524
 20
-18.2998382028
 10
-105.9989570537
 20
-18.2437484592
 10
-105.9015011242
 20
-18.1974744208
 10
-105.7984362204
 20
-18.1617172092
 10
-105.6911645857
 20
-18.1357757028
 10
-105.5789850986
 20
-18.1203510233
 10
-105.4618977588
 20
-18.1154431708
 10
-105.4618977588
 20
-18.1154431708
 10
-105.3469137845
 20
-18.1203510233
 10
-105.2368376627
 20
-18.135074581
 10
-105.133071637
 20
-18.158912722
 10
-105.034213464
 20
-18.1925665682
 10
-104.941665387
 20
-18.2367372413
 10
-104.8547262845
 20
-18.2900224977
 10
-104.7726950345
 20
-18.3524223374
 10
-104.6969738806
 20
-18.4253390041
 10
-104.6282639447
 20
-18.5045657669
 10
-104.569369714
 20
-18.5872981387
 10
-104.5188889447
 20
-18.6735361195
 10
-104.4775227588
 20
-18.7625785874
 10
-104.4459722781
 20
-18.8558277861
 10
-104.4228352588
 20
-18.9525825938
 10
-104.4095139447
 20
-19.0521418887
 10
-104.4046060922
 20
-19.1559079144
 10
-104.4046060922
 20
-19.1559079144
 10
-104.4137206755
 20
-19.3017412477
 10
-104.4410644255
 20
-19.4426667285
 10
-104.4859362204
 20
-19.5786843567
 10
-104.5497383037
 20
-19.7104952541
 10
-104.5904033678
 20
-19.7778029464
 10
-104.6394818934
 20
-19.8514207349
 10
-104.6969738806
 20
-19.9306474977
 10
-104.7628793293
 20
-20.0147821131
 10
-104.8378993614
 20
-20.1059279464
 10
-104.9206317332
 20
-20.2019816323
 10
-105.0124786883
 20
-20.3036442926
 10
-105.112739105
 20
-20.411617049
 10
-105.112739105
 20
-20.411617049
 10
-105.9884402268
 20
-21.3462124015
 10
-105.9884402268
 20
-21.3462124015
 10
-104.3597342973
 20
-21.3462124015
 10
-104.3597342973
 20
-21.3462124015
 10
-104.3597342973
 20
-21.7051867605
 10
-104.3597342973
 20
-21.7051867605
 10
-106.7379394255
 20
-21.7051867605
 10
-106.7379394255
 20
-21.7051867605
 10
-105.3805676306
 20
-20.2566691323
 10
-105.3805676306
 20
-20.2566691323
 10
-105.2817094575
 20
-20.1529031067
 10
-105.1919658678
 20
-20.056148299
 10
-105.1113368614
 20
-19.9664047092
 10
-105.0398224383
 20
-19.8836723374
 10
-104.9774225986
 20
-19.8072500618
 10
-104.9234362204
 20
-19.7385401259
 10
-104.8792655473
 20
-19.6761402861
 10
-104.8435083357
 20
-19.6207516644
 10
-104.7888208357
 20
-19.5155833951
 10
-104.7495580152
 20
-19.4076106387
 10
-104.726420996
 20
-19.2975345169
 10
-104.7187086563
 20
-19.1839527861
 10
-104.7187086563
 20
-19.1839527861
 10
-104.7222142652
 20
-19.1124383631
 10
-104.7327310922
 20
-19.0437284272
 10
-104.7495580152
 20
-18.9778229785
 10
-104.7733961563
 20
-18.9140208951
 10
-104.804946637
 20
-18.8523221772
 10
-104.842807214
 20
-18.7941290682
 10
-104.886977887
 20
-18.7380393246
 10
-104.9388608999
 20
-18.6840529464
 10
-104.9956517652
 20
-18.6349744208
 10
-105.0552471178
 20
-18.5922059913
 10
-105.1176469575
 20
-18.5564487797
 10
-105.1835524063
 20
-18.5270016644
 10
-105.252963464
 20
-18.5038646451
 10
-105.324477887
 20
-18.4877388438
 10
-105.3994979191
 20
-18.4779231387
 10
-105.4780235601
 20
-18.4744175297
 10
-105.4780235601
 20
-18.4744175297
 10
-105.5600548101
 20
-18.4779231387
 10
-105.6385804511
 20
-18.4877388438
 10
-105.7136004832
 20
-18.5045657669
 10
-105.7851149063
 20
-18.5277027861
 10
-105.8531237204
 20
-18.5571499015
 10
-105.9176269255
 20
-18.5936082349
 10
-105.9786245216
 20
-18.6370777861
 10
-106.0361165088
 20
-18.6868574336
 10
-106.0887006434
 20
-18.7422460554
 10
-106.1349746819
 20
-18.8032436515
 10
-106.175639746
 20
-18.869850222
 10
-106.2106958357
 20
-18.9413646451
 10
-106.2394418293
 20
-19.0184880426
 10
-106.2618777268
 20
-19.1012204144
 10
-106.2787046499
 20
-19.1888606387
 10
-106.2892214768
 20
-19.2821098374
  0
LWPOLYLINE
  5
7A
330
1F
100
AcDbEntity
  8
0
  6
Continuous
 62
     7
100
AcDbPolyline
 90
      100
 70
   128
 43
0.0
 10
-104.0456295013
 20
-19.9565890041
 10
-104.0435283678
 20
-19.7883197733
 10
-104.0365171499
 20
-19.6298662477
 10
-104.0245980793
 20
-19.4805273054
 10
-104.0084722781
 20
-19.34170519
 10
-103.988139746
 20
-19.2126987797
 10
-103.9621982396
 20
-19.0935080746
 10
-103.9320500024
 20
-18.9841330746
 10
-103.8976950345
 20
-18.8845737797
 10
-103.8591333357
 20
-18.7927268246
 10
-103.8163649063
 20
-18.7064888438
 10
-103.769389746
 20
-18.6265609592
 10
-103.7189089768
 20
-18.5515409272
 10
-103.6649225986
 20
-18.4828309913
 10
-103.6074306114
 20
-18.4197300297
 10
-103.5457318934
 20
-18.3629391644
 10
-103.4798264447
 20
-18.3110561515
 10
-103.4111165088
 20
-18.2654832349
 10
-103.3403032075
 20
-18.2255192926
 10
-103.2680876627
 20
-18.1918654464
 10
-103.1930676306
 20
-18.1645216964
 10
-103.116645355
 20
-18.1427869208
 10
-103.038119714
 20
-18.1273622413
 10
-102.9581918293
 20
-18.1182476579
 10
-102.8754594575
 20
-18.1154431708
 10
-102.8754594575
 20
-18.1154431708
 10
-102.792025964
 20
-18.1182476579
 10
-102.709994714
 20
-18.1273622413
 10
-102.6307679511
 20
-18.1427869208
 10
-102.5529434319
 20
-18.1645216964
 10
-102.4772222781
 20
-18.1918654464
 10
-102.4036044896
 20
-18.2255192926
 10
-102.3313889447
 20
-18.2654832349
 10
-102.261977887
 20
-18.3117572733
 10
-102.1953713165
 20
-18.3636402861
 10
-102.1315692332
 20
-18.4225345169
 10
-102.0719738806
 20
-18.487037722
 10
-102.015884137
 20
-18.5571499015
 10
-101.9633000024
 20
-18.634273299
 10
-101.9142214768
 20
-18.7170056708
 10
-101.8693496819
 20
-18.8060481387
 10
-101.8272823742
 20
-18.9014007028
 10
-101.7901229191
 20
-19.0037644849
 10
-101.7571701947
 20
-19.1145417285
 10
-101.7298264447
 20
-19.2337324336
 10
-101.7073905473
 20
-19.3613366002
 10
-101.6898625024
 20
-19.4973542285
 10
-101.6772423101
 20
-19.64248644
 10
-101.6702310922
 20
-19.7953309913
 10
-101.667426605
 20
-19.9565890041
 10
-101.667426605
 20
-19.9565890041
 10
-101.6702310922
 20
-20.1171458951
 10
-101.6772423101
 20
-20.2692893246
 10
-101.6898625024
 20
-20.4137204144
 10
-101.7066894255
 20
-20.5490369208
 10
-101.7291253229
 20
-20.6759399656
 10
-101.7564690729
 20
-20.794429549
 10
-101.7880195537
 20
-20.9052067926
 10
-101.8251790088
 20
-21.0068694528
 10
-101.8665451947
 20
-21.1015208951
 10
-101.9114169896
 20
-21.1898622413
 10
-101.9597943934
 20
-21.2725946131
 10
-102.0123785281
 20
-21.3497180105
 10
-102.0684682716
 20
-21.4205313118
 10
-102.128764746
 20
-21.4850345169
 10
-102.1925668293
 20
-21.5439287477
 10
-102.2598745216
 20
-21.5965128823
 10
-102.3299867011
 20
-21.6427869208
 10
-102.402202246
 20
-21.6834519849
 10
-102.4765211563
 20
-21.717105831
 10
-102.5522423101
 20
-21.7451507028
 10
-102.6300668293
 20
-21.7668854785
 10
-102.709994714
 20
-21.7823101579
 10
-102.792025964
 20
-21.7921258631
 10
-102.8754594575
 20
-21.7949303502
 10
-102.8754594575
 20
-21.7949303502
 10
-102.9581918293
 20
-21.7921258631
 10
-103.038119714
 20
-21.7830112797
 10
-103.116645355
 20
-21.7675866002
 10
-103.1923665088
 20
-21.7465529464
 10
-103.2666854191
 20
-21.7199103182
 10
-103.338900964
 20
-21.686256472
 10
-103.4090131434
 20
-21.6469936515
 10
-103.4770219575
 20
-21.6021218567
 10
-103.5422262845
 20
-21.5509399656
 10
-103.6039250024
 20
-21.4941491002
 10
-103.6614169896
 20
-21.4310481387
 10
-103.7154033678
 20
-21.361637081
 10
-103.765884137
 20
-21.2873181708
 10
-103.8128592973
 20
-21.2066891644
 10
-103.8563288486
 20
-21.1197500618
 10
-103.8955916691
 20
-21.0272019849
 10
-103.9306477588
 20
-20.9269415682
 10
-103.9614971178
 20
-20.8168654464
 10
-103.9867375024
 20
-20.6969736195
 10
-104.0077711563
 20
-20.5679672092
 10
-104.0245980793
 20
-20.4298462156
 10
-104.0365171499
 20
-20.2812083951
 10
-104.0435283678
 20
-20.1234559913
 10
-104.0456317332
 20
-19.9565890041
  0
LWPOLYLINE
  5
7B
330
1F
100
AcDbEntity
  8
0
  6
Continuous
 62
     7
100
AcDbPolyline
 90
       85
 70
   128
 43
0.0
 10
-103.7315130234
 20
-19.9551867605
 10
-103.7301269255
 20
-20.0954111195
 10
-103.7245179511
 20
-20.2272220169
 10
-103.7161044896
 20
-20.3506194528
 10
-103.7048865409
 20
-20.4642011836
 10
-103.6894618614
 20
-20.5693694528
 10
-103.6712326947
 20
-20.6661242605
 10
-103.6494979191
 20
-20.7537644849
 10
-103.6242575345
 20
-20.8322901259
 10
-103.5955115409
 20
-20.9045056708
 10
-103.5639610601
 20
-20.9718133631
 10
-103.5296060922
 20
-21.0349143246
 10
-103.4917455152
 20
-21.0931074336
 10
-103.4503793293
 20
-21.1470938118
 10
-103.4062086563
 20
-21.1968734592
 10
-103.3585323742
 20
-21.2417452541
 10
-103.308051605
 20
-21.2824103182
 10
-103.2014810922
 20
-21.3497180105
 10
-103.0921060922
 20
-21.3973942926
 10
-102.979926605
 20
-21.4261402861
 10
-102.8649426306
 20
-21.4359559913
 10
-102.8649426306
 20
-21.4359559913
 10
-102.7492575345
 20
-21.4268414079
 10
-102.6370780473
 20
-21.3980954144
 10
-102.5291052909
 20
-21.3518213759
 10
-102.4246381434
 20
-21.2859159272
 10
-102.374858496
 20
-21.2459519849
 10
-102.3285844575
 20
-21.2017813118
 10
-102.2851149063
 20
-21.1520016644
 10
-102.2444498422
 20
-21.0980152861
 10
-102.207290387
 20
-21.0398221772
 10
-102.1729354191
 20
-20.9760200938
 10
-102.1420860601
 20
-20.9080112797
 10
-102.1140411883
 20
-20.8350946131
 10
-102.1140411883
 20
-20.8350946131
 10
-102.0831918293
 20
-20.7411442926
 10
-102.0558480793
 20
-20.6429872413
 10
-102.0334121819
 20
-20.5399223374
 10
-102.0144818934
 20
-20.4326507028
 10
-102.0004594575
 20
-20.3204712156
 10
-101.9899426306
 20
-20.2033838759
 10
-101.9836325345
 20
-20.0813886836
 10
-101.9815291691
 20
-19.9551867605
 10
-101.9815291691
 20
-19.9551867605
 10
-101.9836325345
 20
-19.8289848374
 10
-101.988540387
 20
-19.7083918887
 10
-101.9983560922
 20
-19.5941090361
 10
-102.0109762845
 20
-19.4854351579
 10
-102.0278032075
 20
-19.3823702541
 10
-102.0474346178
 20
-19.2856154464
 10
-102.0719738806
 20
-19.1944696131
 10
-102.0993176306
 20
-19.1089327541
 10
-102.1301669896
 20
-19.0290048695
 10
-102.1638208357
 20
-18.955387081
 10
-102.2002791691
 20
-18.8866771451
 10
-102.2395419896
 20
-18.8235761836
 10
-102.2816092973
 20
-18.7660841964
 10
-102.327182214
 20
-18.7142011836
 10
-102.374858496
 20
-18.6679271451
 10
-102.4253392652
 20
-18.627262081
 10
-102.5312086563
 20
-18.5606555105
 10
-102.6391814127
 20
-18.5122781067
 10
-102.7506597781
 20
-18.4842332349
 10
-102.8649426306
 20
-18.4744175297
 10
-102.8649426306
 20
-18.4744175297
 10
-102.9806277268
 20
-18.4842332349
 10
-103.0935083357
 20
-18.5122781067
 10
-103.202182214
 20
-18.5606555105
 10
-103.308051605
 20
-18.627262081
 10
-103.3585323742
 20
-18.6672260233
 10
-103.4055075345
 20
-18.7120978182
 10
-103.4496782075
 20
-18.7618774656
 10
-103.4903432716
 20
-18.8158638438
 10
-103.5282038486
 20
-18.8740569528
 10
-103.5632599383
 20
-18.9371579144
 10
-103.5948104191
 20
-19.0044656067
 10
-103.6235564127
 20
-19.0766811515
 10
-103.6487967973
 20
-19.1552067926
 10
-103.6705315729
 20
-19.2428470169
 10
-103.6894618614
 20
-19.3389007028
 10
-103.7041854191
 20
-19.4447700938
 10
-103.7161044896
 20
-19.5590529464
 10
-103.7245179511
 20
-19.6817492605
 10
-103.7301269255
 20
-19.8142612797
 10
-103.7315291691
 20
-19.9551867605
  0
LWPOLYLINE
  5
7C
330
1F
100
AcDbEntity
  8
0
  6
Continuous
 62
     7
100
AcDbPolyline
 90
      106
 70
   128
 43
0.0
 10
-100.904583931
 20
-19.2821098374
 10
-101.2187086563
 20
-19.2821098374
 10
-101.2187086563
 20
-19.2821098374
 10
-101.2102951947
 20
-19.1573101579
 10
-101.1920660281
 20
-19.0381194528
 10
-101.1647222781
 20
-18.9252388438
 10
-101.1268617011
 20
-18.8172660874
 10
-101.0798865409
 20
-18.7156034272
 10
-101.0230956755
 20
-18.6188486195
 10
-100.956489105
 20
-18.5284039079
 10
-100.8800668293
 20
-18.4435681708
 10
-100.7966333357
 20
-18.3664447733
 10
-100.7075908678
 20
-18.2998382028
 10
-100.6143416691
 20
-18.2437484592
 10
-100.5168857396
 20
-18.1974744208
 10
-100.4138208357
 20
-18.1617172092
 10
-100.3065492011
 20
-18.1357757028
 10
-100.194369714
 20
-18.1203510233
 10
-100.0772823742
 20
-18.1154431708
 10
-100.0772823742
 20
-18.1154431708
 10
-99.9622983999
 20
-18.1203510233
 10
-99.8522222781
 20
-18.135074581
 10
-99.7484562524
 20
-18.158912722
 10
-99.6495980793
 20
-18.1925665682
 10
-99.5570500024
 20
-18.2367372413
 10
-99.4701108999
 20
-18.2900224977
 10
-99.3880796499
 20
-18.3524223374
 10
-99.312358496
 20
-18.4253390041
 10
-99.2436485601
 20
-18.5045657669
 10
-99.1847543293
 20
-18.5872981387
 10
-99.1342735601
 20
-18.6735361195
 10
-99.0929073742
 20
-18.7625785874
 10
-99.0613568934
 20
-18.8558277861
 10
-99.0382198742
 20
-18.9525825938
 10
-99.0248985601
 20
-19.0521418887
 10
-99.0199907075
 20
-19.1559079144
 10
-99.0199907075
 20
-19.1559079144
 10
-99.0291052909
 20
-19.3017412477
 10
-99.0564490409
 20
-19.4426667285
 10
-99.1013208357
 20
-19.5786843567
 10
-99.1651229191
 20
-19.7104952541
 10
-99.2057879832
 20
-19.7778029464
 10
-99.2548665088
 20
-19.8514207349
 10
-99.312358496
 20
-19.9306474977
 10
-99.3782639447
 20
-20.0147821131
 10
-99.4532839768
 20
-20.1059279464
 10
-99.5360163486
 20
-20.2019816323
 10
-99.6278633037
 20
-20.3036442926
 10
-99.7281237204
 20
-20.411617049
 10
-99.7281237204
 20
-20.411617049
 10
-100.6038248422
 20
-21.3462124015
 10
-100.6038248422
 20
-21.3462124015
 10
-98.9751189127
 20
-21.3462124015
 10
-98.9751189127
 20
-21.3462124015
 10
-98.9751189127
 20
-21.7051867605
 10
-98.9751189127
 20
-21.7051867605
 10
-101.3533240409
 20
-21.7051867605
 10
-101.3533240409
 20
-21.7051867605
 10
-99.995952246
 20
-20.2566691323
 10
-99.995952246
 20
-20.2566691323
 10
-99.8970940729
 20
-20.1529031067
 10
-99.8073504832
 20
-20.056148299
 10
-99.7267214768
 20
-19.9664047092
 10
-99.6552070537
 20
-19.8836723374
 10
-99.592807214
 20
-19.8072500618
 10
-99.5388208357
 20
-19.7385401259
 10
-99.4946501627
 20
-19.6761402861
 10
-99.4588929511
 20
-19.6207516644
 10
-99.4042054511
 20
-19.5155833951
 10
-99.3649426306
 20
-19.4076106387
 10
-99.3418056114
 20
-19.2975345169
 10
-99.3340932716
 20
-19.1839527861
 10
-99.3340932716
 20
-19.1839527861
 10
-99.3375988806
 20
-19.1124383631
 10
-99.3481157075
 20
-19.0437284272
 10
-99.3649426306
 20
-18.9778229785
 10
-99.3887807716
 20
-18.9140208951
 10
-99.4203312524
 20
-18.8523221772
 10
-99.4581918293
 20
-18.7941290682
 10
-99.5023625024
 20
-18.7380393246
 10
-99.5542455152
 20
-18.6840529464
 10
-99.6110363806
 20
-18.6349744208
 10
-99.6706317332
 20
-18.5922059913
 10
-99.7330315729
 20
-18.5564487797
 10
-99.7989370216
 20
-18.5270016644
 10
-99.8683480793
 20
-18.5038646451
 10
-99.9398625024
 20
-18.4877388438
 10
-100.0148825345
 20
-18.4779231387
 10
-100.0934081755
 20
-18.4744175297
 10
-100.0934081755
 20
-18.4744175297
 10
-100.1754394255
 20
-18.4779231387
 10
-100.2539650665
 20
-18.4877388438
 10
-100.3289850986
 20
-18.5045657669
 10
-100.4004995216
 20
-18.5277027861
 10
-100.4685083357
 20
-18.5571499015
 10
-100.5330115409
 20
-18.5936082349
 10
-100.594009137
 20
-18.6370777861
 10
-100.6515011242
 20
-18.6868574336
 10
-100.7040852588
 20
-18.7422460554
 10
-100.7503592973
 20
-18.8032436515
 10
-100.7910243614
 20
-18.869850222
 10
-100.8260804511
 20
-18.9413646451
 10
-100.8548264447
 20
-19.0184880426
 10
-100.8772623422
 20
-19.1012204144
 10
-100.8940892652
 20
-19.1888606387
 10
-100.9046060922
 20
-19.2821098374
  0
LWPOLYLINE
  5
7D
330
1F
100
AcDbEntity
  8
0
  6
Continuous
 62
     7
100
AcDbPolyline
 90
      100
 70
   128
 43
0.0
 10
-98.661005497
 20
-19.9565890041
 10
-98.6589129832
 20
-19.7883197733
 10
-98.6519017652
 20
-19.6298662477
 10
-98.6399826947
 20
-19.4805273054
 10
-98.6238568934
 20
-19.34170519
 10
-98.6035243614
 20
-19.2126987797
 10
-98.577582855
 20
-19.0935080746
 10
-98.5474346178
 20
-18.9841330746
 10
-98.5130796499
 20
-18.8845737797
 10
-98.4745179511
 20
-18.7927268246
 10
-98.4317495216
 20
-18.7064888438
 10
-98.3847743614
 20
-18.6265609592
 10
-98.3342935922
 20
-18.5515409272
 10
-98.280307214
 20
-18.4828309913
 10
-98.2228152268
 20
-18.4197300297
 10
-98.1611165088
 20
-18.3629391644
 10
-98.0952110601
 20
-18.3110561515
 10
-98.0265011242
 20
-18.2654832349
 10
-97.9556878229
 20
-18.2255192926
 10
-97.8834722781
 20
-18.1918654464
 10
-97.808452246
 20
-18.1645216964
 10
-97.7320299704
 20
-18.1427869208
 10
-97.6535043293
 20
-18.1273622413
 10
-97.5735764447
 20
-18.1182476579
 10
-97.4908440729
 20
-18.1154431708
 10
-97.4908440729
 20
-18.1154431708
 10
-97.4074105793
 20
-18.1182476579
 10
-97.3253793293
 20
-18.1273622413
 10
-97.2461525665
 20
-18.1427869208
 10
-97.1683280473
 20
-18.1645216964
 10
-97.0926068934
 20
-18.1918654464
 10
-97.018989105
 20
-18.2255192926
 10
-96.9467735601
 20
-18.2654832349
 10
-96.8773625024
 20
-18.3117572733
 10
-96.8107559319
 20
-18.3636402861
 10
-96.7469538486
 20
-18.4225345169
 10
-96.687358496
 20
-18.487037722
 10
-96.6312687524
 20
-18.5571499015
 10
-96.5786846178
 20
-18.634273299
 10
-96.5296060922
 20
-18.7170056708
 10
-96.4847342973
 20
-18.8060481387
 10
-96.4426669896
 20
-18.9014007028
 10
-96.4055075345
 20
-19.0037644849
 10
-96.3725548101
 20
-19.1145417285
 10
-96.3452110601
 20
-19.2337324336
 10
-96.3227751627
 20
-19.3613366002
 10
-96.3052471178
 20
-19.4973542285
 10
-96.2926269255
 20
-19.64248644
 10
-96.2856157075
 20
-19.7953309913
 10
-96.2828112204
 20
-19.9565890041
 10
-96.2828112204
 20
-19.9565890041
 10
-96.2856157075
 20
-20.1171458951
 10
-96.2926269255
 20
-20.2692893246
 10
-96.3052471178
 20
-20.4137204144
 10
-96.3220740409
 20
-20.5490369208
 10
-96.3445099383
 20
-20.6759399656
 10
-96.3718536883
 20
-20.794429549
 10
-96.4034041691
 20
-20.9052067926
 10
-96.4405636242
 20
-21.0068694528
 10
-96.4819298101
 20
-21.1015208951
 10
-96.526801605
 20
-21.1898622413
 10
-96.5751790088
 20
-21.2725946131
 10
-96.6277631434
 20
-21.3497180105
 10
-96.683852887
 20
-21.4205313118
 10
-96.7441493614
 20
-21.4850345169
 10
-96.8079514447
 20
-21.5439287477
 10
-96.875259137
 20
-21.5965128823
 10
-96.9453713165
 20
-21.6427869208
 10
-97.0175868614
 20
-21.6834519849
 10
-97.0919057716
 20
-21.717105831
 10
-97.1676269255
 20
-21.7451507028
 10
-97.2454514447
 20
-21.7668854785
 10
-97.3253793293
 20
-21.7823101579
 10
-97.4074105793
 20
-21.7921258631
 10
-97.4908440729
 20
-21.7949303502
 10
-97.4908440729
 20
-21.7949303502
 10
-97.5735764447
 20
-21.7921258631
 10
-97.6535043293
 20
-21.7830112797
 10
-97.7320299704
 20
-21.7675866002
 10
-97.8077511242
 20
-21.7465529464
 10
-97.8820700345
 20
-21.7199103182
 10
-97.9542855793
 20
-21.686256472
 10
-98.0243977588
 20
-21.6469936515
 10
-98.0924065729
 20
-21.6021218567
 10
-98.1576108999
 20
-21.5509399656
 10
-98.2193096178
 20
-21.4941491002
 10
-98.276801605
 20
-21.4310481387
 10
-98.3307879832
 20
-21.361637081
 10
-98.3812687524
 20
-21.2873181708
 10
-98.4282439127
 20
-21.2066891644
 10
-98.471713464
 20
-21.1197500618
 10
-98.5109762845
 20
-21.0272019849
 10
-98.5460323742
 20
-20.9269415682
 10
-98.5768817332
 20
-20.8168654464
 10
-98.6021221178
 20
-20.6969736195
 10
-98.6231557716
 20
-20.5679672092
 10
-98.6399826947
 20
-20.4298462156
 10
-98.6519017652
 20
-20.2812083951
 10
-98.6589129832
 20
-20.1234559913
 10
-98.6610163486
 20
-19.9565890041
  0
LWPOLYLINE
  5
7E
330
1F
100
AcDbEntity
  8
0
  6
Continuous
 62
     7
100
AcDbPolyline
 90
       85
 70
   128
 43
0.0
 10
-98.346889019
 20
-19.9551867605
 10
-98.3455115409
 20
-20.0954111195
 10
-98.3399025665
 20
-20.2272220169
 10
-98.331489105
 20
-20.3506194528
 10
-98.3202711563
 20
-20.4642011836
 10
-98.3048464768
 20
-20.5693694528
 10
-98.2866173101
 20
-20.6661242605
 10
-98.2648825345
 20
-20.7537644849
 10
-98.2396421499
 20
-20.8322901259
 10
-98.2108961563
 20
-20.9045056708
 10
-98.1793456755
 20
-20.9718133631
 10
-98.1449907075
 20
-21.0349143246
 10
-98.1071301306
 20
-21.0931074336
 10
-98.0657639447
 20
-21.1470938118
 10
-98.0215932716
 20
-21.1968734592
 10
-97.9739169896
 20
-21.2417452541
 10
-97.9234362204
 20
-21.2824103182
 10
-97.8168657075
 20
-21.3497180105
 10
-97.7074907075
 20
-21.3973942926
 10
-97.5953112204
 20
-21.4261402861
 10
-97.480327246
 20
-21.4359559913
 10
-97.480327246
 20
-21.4359559913
 10
-97.3646421499
 20
-21.4268414079
 10
-97.2524626627
 20
-21.3980954144
 10
-97.1444899063
 20
-21.3518213759
 10
-97.0400227588
 20
-21.2859159272
 10
-96.9902431114
 20
-21.2459519849
 10
-96.9439690729
 20
-21.2017813118
 10
-96.9004995216
 20
-21.1520016644
 10
-96.8598344575
 20
-21.0980152861
 10
-96.8226750024
 20
-21.0398221772
 10
-96.7883200345
 20
-20.9760200938
 10
-96.7574706755
 20
-20.9080112797
 10
-96.7294258037
 20
-20.8350946131
 10
-96.7294258037
 20
-20.8350946131
 10
-96.6985764447
 20
-20.7411442926
 10
-96.6712326947
 20
-20.6429872413
 10
-96.6487967973
 20
-20.5399223374
 10
-96.6298665088
 20
-20.4326507028
 10
-96.6158440729
 20
-20.3204712156
 10
-96.605327246
 20
-20.2033838759
 10
-96.5990171499
 20
-20.0813886836
 10
-96.5969137845
 20
-19.9551867605
 10
-96.5969137845
 20
-19.9551867605
 10
-96.5990171499
 20
-19.8289848374
 10
-96.6039250024
 20
-19.7083918887
 10
-96.6137407075
 20
-19.5941090361
 10
-96.6263608999
 20
-19.4854351579
 10
-96.6431878229
 20
-19.3823702541
 10
-96.6628192332
 20
-19.2856154464
 10
-96.687358496
 20
-19.1944696131
 10
-96.714702246
 20
-19.1089327541
 10
-96.745551605
 20
-19.0290048695
 10
-96.7792054511
 20
-18.955387081
 10
-96.8156637845
 20
-18.8866771451
 10
-96.854926605
 20
-18.8235761836
 10
-96.8969939127
 20
-18.7660841964
 10
-96.9425668293
 20
-18.7142011836
 10
-96.9902431114
 20
-18.6679271451
 10
-97.0407238806
 20
-18.627262081
 10
-97.1465932716
 20
-18.5606555105
 10
-97.2545660281
 20
-18.5122781067
 10
-97.3660443934
 20
-18.4842332349
 10
-97.480327246
 20
-18.4744175297
 10
-97.480327246
 20
-18.4744175297
 10
-97.5960123422
 20
-18.4842332349
 10
-97.7088929511
 20
-18.5122781067
 10
-97.8175668293
 20
-18.5606555105
 10
-97.9234362204
 20
-18.627262081
 10
-97.9739169896
 20
-18.6672260233
 10
-98.0208921499
 20
-18.7120978182
 10
-98.0650628229
 20
-18.7618774656
 10
-98.105727887
 20
-18.8158638438
 10
-98.143588464
 20
-18.8740569528
 10
-98.1786445537
 20
-18.9371579144
 10
-98.2101950345
 20
-19.0044656067
 10
-98.2389410281
 20
-19.0766811515
 10
-98.2641814127
 20
-19.1552067926
 10
-98.2859161883
 20
-19.2428470169
 10
-98.3048464768
 20
-19.3389007028
 10
-98.3195700345
 20
-19.4447700938
 10
-98.331489105
 20
-19.5590529464
 10
-98.3399025665
 20
-19.6817492605
 10
-98.3455115409
 20
-19.8142612797
 10
-98.3469137845
 20
-19.9551867605
  0
LWPOLYLINE
  5
7F
330
1F
100
AcDbEntity
  8
0
  6
Continuous
 62
     7
100
AcDbPolyline
 90
       12
 70
   128
 43
0.0
 10
-118.6738014221
 20
-25.0385200938
 10
-118.3597342973
 20
-25.0385200938
 10
-118.3597342973
 20
-25.0385200938
 10
-118.3597342973
 20
-28.1795457349
 10
-118.3597342973
 20
-28.1795457349
 10
-117.0135804511
 20
-28.1795457349
 10
-117.0135804511
 20
-28.1795457349
 10
-117.0135804511
 20
-28.5385200938
 10
-117.0135804511
 20
-28.5385200938
 10
-118.6738368614
 20
-28.5385200938
 10
-118.6738368614
 20
-28.5385200938
 10
-118.6738368614
 20
-25.0385200938
  0
LWPOLYLINE
  5
80
330
1F
100
AcDbEntity
  8
0
  6
Continuous
 62
     7
100
AcDbPolyline
 90
       36
 70
   128
 43
0.0
 10
-116.4091825485
 20
-24.9039047092
 10
-116.351020355
 20
-24.9088125618
 10
-116.2970339768
 20
-24.9235361195
 10
-116.2472543293
 20
-24.9487765041
 10
-116.2023825345
 20
-24.983131472
 10
-116.1645219575
 20
-25.0244976579
 10
-116.1378793293
 20
-25.0707716964
 10
-116.1217535281
 20
-25.1205513438
 10
-116.1161445537
 20
-25.174537722
 10
-116.1161445537
 20
-25.174537722
 10
-116.1217535281
 20
-25.2271218567
 10
-116.1378793293
 20
-25.2762003823
 10
-116.1645219575
 20
-25.321773299
 10
-116.2023825345
 20
-25.3631394849
 10
-116.2472543293
 20
-25.3974944528
 10
-116.2970339768
 20
-25.4227348374
 10
-116.351020355
 20
-25.4374583951
 10
-116.409213464
 20
-25.4423662477
 10
-116.409213464
 20
-25.4423662477
 10
-116.4667054511
 20
-25.4374583951
 10
-116.5192895857
 20
-25.4227348374
 10
-116.5690692332
 20
-25.3974944528
 10
-116.6139410281
 20
-25.3631394849
 10
-116.6511004832
 20
-25.321773299
 10
-116.6777431114
 20
-25.2762003823
 10
-116.6938689127
 20
-25.2271218567
 10
-116.699477887
 20
-25.174537722
 10
-116.699477887
 20
-25.174537722
 10
-116.6938689127
 20
-25.1205513438
 10
-116.6777431114
 20
-25.0707716964
 10
-116.6511004832
 20
-25.0244976579
 10
-116.6139410281
 20
-24.983131472
 10
-116.5690692332
 20
-24.9487765041
 10
-116.5192895857
 20
-24.9235361195
 10
-116.4667054511
 20
-24.9088125618
 10
-116.409213464
 20
-24.9039047092
  0
LWPOLYLINE
  5
81
330
1F
100
AcDbEntity
  8
0
  6
Continuous
 62
     7
100
AcDbPolyline
 90
        8
 70
   128
 43
0.0
 10
-116.564810276
 20
-25.9808277861
 10
-116.2507599383
 20
-25.9808277861
 10
-116.2507599383
 20
-25.9808277861
 10
-116.2507599383
 20
-28.5385200938
 10
-116.2507599383
 20
-28.5385200938
 10
-116.5648625024
 20
-28.5385200938
 10
-116.5648625024
 20
-28.5385200938
 10
-116.5648625024
 20
-25.9808277861
  0
ARC
  5
82
330
1F
100
AcDbEntity
  8
0
  6
Continuous
 62
     7
100
AcDbCircle
 10
-114.2525352547
 20
-27.2596867652
 30
0.0
 40
1.323730774248593
100
AcDbArc
 50
90.0011932529
 51
89.998806757
  0
ARC
  5
83
330
1F
100
AcDbEntity
  8
0
  6
Continuous
 62
     7
100
AcDbCircle
 10
-114.2539516323
 20
-27.2594741943
 30
0.0
 40
1.009415639027769
100
AcDbArc
 50
90.0007625438
 51
89.999237456
  0
LWPOLYLINE
  5
84
330
1F
100
AcDbEntity
  8
0
  6
Continuous
 62
     7
100
AcDbPolyline
 90
       86
 70
   128
 43
0.0
 10
-112.302005291
 20
-25.9808277861
 10
-111.9879394255
 20
-25.9808277861
 10
-111.9879394255
 20
-25.9808277861
 10
-111.9879394255
 20
-26.4421659272
 10
-111.9879394255
 20
-26.4421659272
 10
-111.8848745216
 20
-26.3187684913
 10
-111.7769017652
 20
-26.2128991002
 10
-111.6633200345
 20
-26.1259599977
 10
-111.5441293293
 20
-26.05654894
 10
-111.4200307716
 20
-26.0039648054
 10
-111.2903232396
 20
-25.9661042285
 10
-111.1550067332
 20
-25.943668331
 10
-111.0147823742
 20
-25.9359559913
 10
-111.0147823742
 20
-25.9359559913
 10
-110.8731557716
 20
-25.9450705746
 10
-110.7399426306
 20
-25.9717132028
 10
-110.6151429511
 20
-26.0172861195
 10
-110.4987567332
 20
-26.080387081
 10
-110.393588464
 20
-26.158912722
 10
-110.3024426306
 20
-26.2500585554
 10
-110.2267214768
 20
-26.353824581
 10
-110.1657238806
 20
-26.470210799
 10
-110.140483496
 20
-26.5354151259
 10
-110.1187487204
 20
-26.6097340361
 10
-110.1005195537
 20
-26.6917652861
 10
-110.0850948742
 20
-26.7829111195
 10
-110.0738769255
 20
-26.8824704144
 10
-110.065463464
 20
-26.9904431708
 10
-110.0598544896
 20
-27.1075305105
 10
-110.058452246
 20
-27.23233019
 10
-110.058452246
 20
-27.23233019
 10
-110.058452246
 20
-28.5385200938
 10
-110.058452246
 20
-28.5385200938
 10
-110.3725548101
 20
-28.5385200938
 10
-110.3725548101
 20
-28.5385200938
 10
-110.3725548101
 20
-27.3353950938
 10
-110.3725548101
 20
-27.3353950938
 10
-110.3732559319
 20
-27.2309279464
 10
-110.3746581755
 20
-27.1355753823
 10
-110.3774626627
 20
-27.0493374015
 10
-110.3816693934
 20
-26.9715128823
 10
-110.3872783678
 20
-26.9035040682
 10
-110.393588464
 20
-26.8446098374
 10
-110.4013008037
 20
-26.7941290682
 10
-110.4097142652
 20
-26.7534640041
 10
-110.4097142652
 20
-26.7534640041
 10
-110.4454714768
 20
-26.6356755426
 10
-110.4952511242
 20
-26.5333117605
 10
-110.5583520857
 20
-26.4470737797
 10
-110.6347743614
 20
-26.3762604785
 10
-110.7245179511
 20
-26.3208718567
 10
-110.8268817332
 20
-26.2816090361
 10
-110.9418657075
 20
-26.2577708951
 10
-111.0694698742
 20
-26.2500585554
 10
-111.0694698742
 20
-26.2500585554
 10
-111.1451910281
 20
-26.2528630426
 10
-111.2188088165
 20
-26.2619776259
 10
-111.2910243614
 20
-26.2774023054
 10
-111.3604354191
 20
-26.2984359592
 10
-111.4284442332
 20
-26.326480831
 10
-111.4943496819
 20
-26.3594335554
 10
-111.5581517652
 20
-26.3993974977
 10
-111.6198504832
 20
-26.4449704144
 10
-111.6780435922
 20
-26.4954511836
 10
-111.7306277268
 20
-26.5480353182
 10
-111.7783040088
 20
-26.6041250618
 10
-111.8210724383
 20
-26.6630192926
 10
-111.8582318934
 20
-26.7247180105
 10
-111.890483496
 20
-26.7892212156
 10
-111.917827246
 20
-26.8572300297
 10
-111.9395620216
 20
-26.9273422092
 10
-111.9395620216
 20
-26.9273422092
 10
-111.9507799704
 20
-26.979225222
 10
-111.9605956755
 20
-27.04092394
 10
-111.969009137
 20
-27.1117372413
 10
-111.976020355
 20
-27.1930673695
 10
-111.9809282075
 20
-27.283512081
 10
-111.9851349383
 20
-27.3837724977
 10
-111.9872383037
 20
-27.4938486195
 10
-111.9879394255
 20
-27.6137404464
 10
-111.9879394255
 20
-27.6137404464
 10
-111.9879394255
 20
-28.5385200938
 10
-111.9879394255
 20
-28.5385200938
 10
-112.3020419896
 20
-28.5385200938
 10
-112.3020419896
 20
-28.5385200938
 10
-112.3020419896
 20
-25.9808277861
  0
LWPOLYLINE
  5
85
330
1F
100
AcDbEntity
  8
0
  6
Continuous
 62
     7
100
AcDbPolyline
 90
       62
 70
   128
 43
0.0
 10
-106.7379117012
 20
-25.9808277861
 10
-106.7379394255
 20
-28.5385200938
 10
-106.7379394255
 20
-28.5385200938
 10
-107.0520419896
 20
-28.5385200938
 10
-107.0520419896
 20
-28.5385200938
 10
-107.0520419896
 20
-28.0961122413
 10
-107.0520419896
 20
-28.0961122413
 10
-107.1607158678
 20
-28.2139007028
 10
-107.2749987204
 20
-28.3148622413
 10
-107.3969939127
 20
-28.3989968567
 10
-107.5245980793
 20
-28.466304549
 10
-107.6585123422
 20
-28.51748644
 10
-107.7980355793
 20
-28.5539447733
 10
-107.9445700345
 20
-28.5763806708
 10
-108.096713464
 20
-28.5833918887
 10
-108.096713464
 20
-28.5833918887
 10
-108.2320299704
 20
-28.5770817926
 10
-108.3624386242
 20
-28.5588526259
 10
-108.4879394255
 20
-28.5287043887
 10
-108.6085323742
 20
-28.486637081
 10
-108.7235163486
 20
-28.431949581
 10
-108.8342935922
 20
-28.3653430105
 10
-108.9394618614
 20
-28.2868173695
 10
-109.0397222781
 20
-28.1956715361
 10
-109.1315692332
 20
-28.0961122413
 10
-109.210795996
 20
-27.9916450938
 10
-109.2774025665
 20
-27.881568972
 10
-109.3327911883
 20
-27.7658838759
 10
-109.3755596178
 20
-27.6452909272
 10
-109.405707855
 20
-27.5197901259
 10
-109.4239370216
 20
-27.3886803502
 10
-109.4302471178
 20
-27.252662722
 10
-109.4302471178
 20
-27.252662722
 10
-109.4239370216
 20
-27.119449581
 10
-109.405707855
 20
-26.9904431708
 10
-109.374858496
 20
-26.8670457349
 10
-109.3313889447
 20
-26.7478550297
 10
-109.2760003229
 20
-26.634273299
 10
-109.2086926306
 20
-26.5255994208
 10
-109.128764746
 20
-26.4211322733
 10
-109.0362166691
 20
-26.3222741002
 10
-108.9352551306
 20
-26.2318293887
 10
-108.8286846178
 20
-26.1533037477
 10
-108.7179073742
 20
-26.0866971772
 10
-108.6015211563
 20
-26.032710799
 10
-108.4802270857
 20
-25.9899423695
 10
-108.3540251627
 20
-25.9597941323
 10
-108.222915387
 20
-25.9422660874
 10
-108.0868977588
 20
-25.9359559913
 10
-108.0868977588
 20
-25.9359559913
 10
-107.9305475986
 20
-25.943668331
 10
-107.7819097781
 20
-25.9668053502
 10
-107.6409842973
 20
-26.0060681708
 10
-107.5077711563
 20
-26.060054549
 10
-107.382270355
 20
-26.1308678502
 10
-107.2637807716
 20
-26.22061144
 10
-107.1544057716
 20
-26.3278830746
 10
-107.0520419896
 20
-26.4540849977
 10
-107.0520419896
 20
-26.4540849977
 10
-107.0520419896
 20
-25.9808277861
 10
-107.0520419896
 20
-25.9808277861
 10
-106.7379394255
 20
-25.9808277861
  0
LWPOLYLINE
  5
86
330
1F
100
AcDbEntity
  8
0
  6
Continuous
 62
     7
100
AcDbPolyline
 90
       56
 70
   128
 43
0.0
 10
-108.082652092
 20
-26.2500585554
 10
-108.2201108999
 20
-26.2584720169
 10
-108.3519217973
 20
-26.2830112797
 10
-108.4781237204
 20
-26.3243774656
 10
-108.5994177909
 20
-26.3818694528
 10
-108.7115972781
 20
-26.4540849977
 10
-108.8118576947
 20
-26.5403229785
 10
-108.9001990409
 20
-26.6391811515
 10
-108.9766213165
 20
-26.7520617605
 10
-109.0376189127
 20
-26.8726547092
 10
-109.081088464
 20
-26.9974543887
 10
-109.1077310922
 20
-27.1250585554
 10
-109.1161445537
 20
-27.256168331
 10
-109.1161445537
 20
-27.256168331
 10
-109.1070299704
 20
-27.3865769849
 10
-109.081088464
 20
-27.5141811515
 10
-109.0369177909
 20
-27.638980831
 10
-108.9752190729
 20
-27.7609760233
 10
-108.8980956755
 20
-27.8745577541
 10
-108.8097543293
 20
-27.9748181708
 10
-108.7087927909
 20
-28.0617572733
 10
-108.5959121819
 20
-28.1353750618
 10
-108.4746181114
 20
-28.1942692926
 10
-108.3491173101
 20
-28.2356354785
 10
-108.2194097781
 20
-28.2608758631
 10
-108.0854955152
 20
-28.2692893246
 10
-108.0854955152
 20
-28.2692893246
 10
-107.949477887
 20
-28.2608758631
 10
-107.8169658678
 20
-28.2363366002
 10
-107.6886605793
 20
-28.1949704144
 10
-107.5638608999
 20
-28.1367773054
 10
-107.4481758037
 20
-28.0645617605
 10
-107.3458120216
 20
-27.9804271451
 10
-107.2588729191
 20
-27.8843734592
 10
-107.1852551306
 20
-27.7771018246
 10
-107.1270620216
 20
-27.6600144849
 10
-107.084994714
 20
-27.5352148054
 10
-107.0604554511
 20
-27.4041050297
 10
-107.0520419896
 20
-27.2652829144
 10
-107.0520419896
 20
-27.2652829144
 10
-107.0569498422
 20
-27.1594135233
 10
-107.0709722781
 20
-27.0577508631
 10
-107.0941092973
 20
-26.9602949336
 10
-107.1263608999
 20
-26.8677468567
 10
-107.1684282075
 20
-26.7794055105
 10
-107.2196100986
 20
-26.6952708951
 10
-107.2799065729
 20
-26.6160441323
 10
-107.3500187524
 20
-26.5410241002
 10
-107.4264410281
 20
-26.4730152861
 10
-107.5070700345
 20
-26.4134199336
 10
-107.5926068934
 20
-26.3636402861
 10
-107.6816493614
 20
-26.322975222
 10
-107.7755996819
 20
-26.2907236195
 10
-107.8737567332
 20
-26.268287722
 10
-107.9761205152
 20
-26.2542652861
 10
-108.0826910281
 20
-26.2500585554
  0
LWPOLYLINE
  5
87
330
1F
100
AcDbEntity
  8
0
  6
Continuous
 62
     7
100
AcDbPolyline
 90
       53
 70
   128
 43
0.0
 10
-106.1096787453
 20
-25.9808277861
 10
-105.7956317332
 20
-25.9808277861
 10
-105.7956317332
 20
-25.9808277861
 10
-105.7956317332
 20
-26.35733019
 10
-105.7956317332
 20
-26.35733019
 10
-105.7241173101
 20
-26.2535641644
 10
-105.6504995216
 20
-26.1652228182
 10
-105.5754794896
 20
-26.0930072733
 10
-105.4983560922
 20
-26.0355152861
 10
-105.4191293293
 20
-25.9920457349
 10
-105.3377992011
 20
-25.9604952541
 10
-105.2557679511
 20
-25.9422660874
 10
-105.1716333357
 20
-25.9359559913
 10
-105.1716333357
 20
-25.9359559913
 10
-105.1064290088
 20
-25.9415649656
 10
-105.0391213165
 20
-25.9576907669
 10
-104.9697102588
 20
-25.9850345169
 10
-104.8981958357
 20
-26.0235962156
 10
-104.8981958357
 20
-26.0235962156
 10
-105.0706717973
 20
-26.295631472
 10
-105.0706717973
 20
-26.295631472
 10
-105.116244714
 20
-26.2760000618
 10
-105.1583120216
 20
-26.2612765041
 10
-105.1968737204
 20
-26.2528630426
 10
-105.2312286883
 20
-26.2500585554
 10
-105.2312286883
 20
-26.2500585554
 10
-105.3062487204
 20
-26.2584720169
 10
-105.3805676306
 20
-26.2837124015
 10
-105.4527831755
 20
-26.3257797092
 10
-105.5242975986
 20
-26.38467394
 10
-105.5586525665
 20
-26.4204311515
 10
-105.5909041691
 20
-26.4610962156
 10
-105.6203512845
 20
-26.5059680105
 10
-105.6483961563
 20
-26.5557476579
 10
-105.6743376627
 20
-26.6104351579
 10
-105.6981758037
 20
-26.6693293887
 10
-105.7199105793
 20
-26.733131472
 10
-105.7395419896
 20
-26.8011402861
 10
-105.7395419896
 20
-26.8011402861
 10
-105.7528633037
 20
-26.8621378823
 10
-105.7640812524
 20
-26.9371579144
 10
-105.7738969575
 20
-27.0262003823
 10
-105.7816092973
 20
-27.1292652861
 10
-105.7879193934
 20
-27.2456515041
 10
-105.7921261242
 20
-27.3760601579
 10
-105.7949306114
 20
-27.5204912477
 10
-105.7956317332
 20
-27.6789447733
 10
-105.7956317332
 20
-27.6789447733
 10
-105.7956317332
 20
-28.5385200938
 10
-105.7956317332
 20
-28.5385200938
 10
-106.1097342973
 20
-28.5385200938
 10
-106.1097342973
 20
-28.5385200938
 10
-106.1097342973
 20
-25.9808277861
  0
LWPOLYLINE
  5
88
330
1F
100
AcDbEntity
  8
0
  6
Continuous
 62
     7
100
AcDbPolyline
 90
       62
 70
   128
 43
0.0
 10
-101.9815206528
 20
-24.9487765041
 10
-101.9815291691
 20
-28.5385200938
 10
-101.9815291691
 20
-28.5385200938
 10
-102.2956317332
 20
-28.5385200938
 10
-102.2956317332
 20
-28.5385200938
 10
-102.2956317332
 20
-28.0961122413
 10
-102.2956317332
 20
-28.0961122413
 10
-102.4043056114
 20
-28.2139007028
 10
-102.518588464
 20
-28.3148622413
 10
-102.6405836563
 20
-28.3989968567
 10
-102.7681878229
 20
-28.466304549
 10
-102.9021020857
 20
-28.51748644
 10
-103.0416253229
 20
-28.5539447733
 10
-103.1881597781
 20
-28.5763806708
 10
-103.3403032075
 20
-28.5833918887
 10
-103.3403032075
 20
-28.5833918887
 10
-103.475619714
 20
-28.5770817926
 10
-103.6060283678
 20
-28.5588526259
 10
-103.7315291691
 20
-28.5287043887
 10
-103.8521221178
 20
-28.486637081
 10
-103.9671060922
 20
-28.431949581
 10
-104.0778833357
 20
-28.3653430105
 10
-104.183051605
 20
-28.2868173695
 10
-104.2833120216
 20
-28.1956715361
 10
-104.3751589768
 20
-28.0961122413
 10
-104.4543857396
 20
-27.9916450938
 10
-104.5209923101
 20
-27.881568972
 10
-104.5763809319
 20
-27.7658838759
 10
-104.6191493614
 20
-27.6452909272
 10
-104.6492975986
 20
-27.5197901259
 10
-104.6675267652
 20
-27.3886803502
 10
-104.6738368614
 20
-27.252662722
 10
-104.6738368614
 20
-27.252662722
 10
-104.6675267652
 20
-27.119449581
 10
-104.6492975986
 20
-26.9904431708
 10
-104.6184482396
 20
-26.8670457349
 10
-104.5749786883
 20
-26.7478550297
 10
-104.5195900665
 20
-26.634273299
 10
-104.4522823742
 20
-26.5255994208
 10
-104.3723544896
 20
-26.4211322733
 10
-104.2798064127
 20
-26.3222741002
 10
-104.1788448742
 20
-26.2318293887
 10
-104.0722743614
 20
-26.1533037477
 10
-103.9614971178
 20
-26.0866971772
 10
-103.8451108999
 20
-26.032710799
 10
-103.7238168293
 20
-25.9899423695
 10
-103.5976149063
 20
-25.9597941323
 10
-103.4665051306
 20
-25.9422660874
 10
-103.3304875024
 20
-25.9359559913
 10
-103.3304875024
 20
-25.9359559913
 10
-103.1741373422
 20
-25.9443694528
 10
-103.0254995216
 20
-25.9696098374
 10
-102.8845740409
 20
-26.0123782669
 10
-102.7513608999
 20
-26.0712724977
 10
-102.6258600986
 20
-26.1469936515
 10
-102.5073705152
 20
-26.2395417285
 10
-102.3979955152
 20
-26.3496178502
 10
-102.2956317332
 20
-26.4758197733
 10
-102.2956317332
 20
-26.4758197733
 10
-102.2956317332
 20
-24.9487765041
 10
-102.2956317332
 20
-24.9487765041
 10
-101.9815291691
 20
-24.9487765041
  0
LWPOLYLINE
  5
89
330
1F
100
AcDbEntity
  8
0
  6
Continuous
 62
     7
100
AcDbPolyline
 90
       56
 70
   128
 43
0.0
 10
-103.3262610435
 20
-26.2500585554
 10
-103.4637006434
 20
-26.2584720169
 10
-103.5955115409
 20
-26.2830112797
 10
-103.721713464
 20
-26.3243774656
 10
-103.8430075345
 20
-26.3818694528
 10
-103.9551870216
 20
-26.4540849977
 10
-104.0554474383
 20
-26.5403229785
 10
-104.1437887845
 20
-26.6391811515
 10
-104.2202110601
 20
-26.7520617605
 10
-104.2812086563
 20
-26.8726547092
 10
-104.3246782075
 20
-26.9974543887
 10
-104.3513208357
 20
-27.1250585554
 10
-104.3597342973
 20
-27.256168331
 10
-104.3597342973
 20
-27.256168331
 10
-104.350619714
 20
-27.3865769849
 10
-104.3246782075
 20
-27.5141811515
 10
-104.2805075345
 20
-27.638980831
 10
-104.2188088165
 20
-27.7609760233
 10
-104.1416854191
 20
-27.8745577541
 10
-104.0533440729
 20
-27.9748181708
 10
-103.9523825345
 20
-28.0617572733
 10
-103.8395019255
 20
-28.1353750618
 10
-103.718207855
 20
-28.1942692926
 10
-103.5927070537
 20
-28.2356354785
 10
-103.4629995216
 20
-28.2608758631
 10
-103.3290852588
 20
-28.2692893246
 10
-103.3290852588
 20
-28.2692893246
 10
-103.1930676306
 20
-28.2608758631
 10
-103.0605556114
 20
-28.2363366002
 10
-102.9322503229
 20
-28.1949704144
 10
-102.8074506434
 20
-28.1367773054
 10
-102.6917655473
 20
-28.0645617605
 10
-102.5894017652
 20
-27.9804271451
 10
-102.5024626627
 20
-27.8843734592
 10
-102.4288448742
 20
-27.7771018246
 10
-102.3706517652
 20
-27.6600144849
 10
-102.3285844575
 20
-27.5352148054
 10
-102.3040451947
 20
-27.4041050297
 10
-102.2956317332
 20
-27.2652829144
 10
-102.2956317332
 20
-27.2652829144
 10
-102.3005395857
 20
-27.1594135233
 10
-102.3145620216
 20
-27.0577508631
 10
-102.3376990409
 20
-26.9602949336
 10
-102.3699506434
 20
-26.8677468567
 10
-102.4120179511
 20
-26.7794055105
 10
-102.4631998422
 20
-26.6952708951
 10
-102.5234963165
 20
-26.6160441323
 10
-102.593608496
 20
-26.5410241002
 10
-102.6700307716
 20
-26.4730152861
 10
-102.7506597781
 20
-26.4134199336
 10
-102.836196637
 20
-26.3636402861
 10
-102.925239105
 20
-26.322975222
 10
-103.0191894255
 20
-26.2907236195
 10
-103.1173464768
 20
-26.268287722
 10
-103.2197102588
 20
-26.2542652861
 10
-103.3262807716
 20
-26.2500585554
  0
ARC
  5
8A
330
1F
100
AcDbEntity
  8
0
  6
Continuous
 62
     7
100
AcDbCircle
 10
-100.0281805415
 20
-27.2596867624
 30
0.0
 40
1.323730771306304
100
AcDbArc
 50
90.0010088123
 51
89.9989911761
  0
ARC
  5
8B
330
1F
100
AcDbEntity
  8
0
  6
Continuous
 62
     7
100
AcDbCircle
 10
-100.0295969189
 20
-27.2594743607
 30
0.0
 40
1.009415805389151
100
AcDbArc
 50
90.0005206857
 51
89.9994793145
  0
LWPOLYLINE
  5
8C
330
1F
100
AcDbEntity
  8
0
  6
Continuous
 62
     7
100
AcDbPolyline
 90
       26
 70
   128
 43
0.0
 10
-96.8661308289
 20
-25.0385200938
 10
-96.5415251627
 20
-25.0385200938
 10
-96.5415251627
 20
-25.0385200938
 10
-95.8565291691
 20
-27.6053269849
 10
-95.8565291691
 20
-27.6053269849
 10
-94.8377992011
 20
-25.0385200938
 10
-94.8377992011
 20
-25.0385200938
 10
-94.7922262845
 20
-25.0385200938
 10
-94.7922262845
 20
-25.0385200938
 10
-93.792426605
 20
-27.58779894
 10
-93.792426605
 20
-27.58779894
 10
-93.1039250024
 20
-25.0385200938
 10
-93.1039250024
 20
-25.0385200938
 10
-92.7828112204
 20
-25.0385200938
 10
-92.7828112204
 20
-25.0385200938
 10
-93.7265211563
 20
-28.5385200938
 10
-93.7265211563
 20
-28.5385200938
 10
-93.7713929511
 20
-28.5385200938
 10
-93.7713929511
 20
-28.5385200938
 10
-94.824477887
 20
-25.861637081
 10
-94.824477887
 20
-25.861637081
 10
-95.8901830152
 20
-28.5385200938
 10
-95.8901830152
 20
-28.5385200938
 10
-95.9350548101
 20
-28.5385200938
 10
-95.9350548101
 20
-28.5385200938
 10
-96.8661445537
 20
-25.0385200938
  0
LWPOLYLINE
  5
8D
330
1F
100
AcDbEntity
  8
0
  6
Continuous
 62
     7
100
AcDbPolyline
 90
      100
 70
   128
 43
0.0
 10
-90.1451706886
 20
-27.7308277861
 10
-89.8661445537
 20
-27.8773622413
 10
-89.8661445537
 20
-27.8773622413
 10
-89.9348544896
 20
-27.994449581
 10
-90.0084722781
 20
-28.0996178502
 10
-90.0869979191
 20
-28.1935681708
 10
-90.1711325345
 20
-28.274898299
 10
-90.2601750024
 20
-28.3457116002
 10
-90.3541253229
 20
-28.4074103182
 10
-90.4543857396
 20
-28.4606955746
 10
-90.5595540088
 20
-28.5048662477
 10
-90.6710323742
 20
-28.5392212156
 10
-90.7895219575
 20
-28.5637604785
 10
-90.9150227588
 20
-28.5784840361
 10
-91.0475347781
 20
-28.5833918887
 10
-91.0475347781
 20
-28.5833918887
 10
-91.194770355
 20
-28.5770817926
 10
-91.3335924704
 20
-28.5581515041
 10
-91.4640011242
 20
-28.5266010233
 10
-91.5866974383
 20
-28.4824303502
 10
-91.7002791691
 20
-28.4256394849
 10
-91.8061485601
 20
-28.3562284272
 10
-91.9043056114
 20
-28.2741971772
 10
-91.9933480793
 20
-28.1795457349
 10
-92.073275964
 20
-28.0771819528
 10
-92.1426870216
 20
-27.9713125618
 10
-92.2008801306
 20
-27.8619375618
 10
-92.2485564127
 20
-27.7490569528
 10
-92.2864169896
 20
-27.6333718567
 10
-92.3130596178
 20
-27.5148822733
 10
-92.3284842973
 20
-27.3921859592
 10
-92.3340932716
 20
-27.2666851579
 10
-92.3340932716
 20
-27.2666851579
 10
-92.3291854191
 20
-27.1488966964
 10
-92.315864105
 20
-27.033912722
 10
-92.2927270857
 20
-26.9224343567
 10
-92.2604754832
 20
-26.8137604785
 10
-92.2191092973
 20
-26.7085922092
 10
-92.1686285281
 20
-26.606929549
 10
-92.1083320537
 20
-26.5080713759
 10
-92.0396221178
 20
-26.4127188118
 10
-92.0396221178
 20
-26.4127188118
 10
-91.9421661883
 20
-26.3012404464
 10
-91.8369979191
 20
-26.2037845169
 10
-91.7241173101
 20
-26.1224543887
 10
-91.6028232396
 20
-26.0551466964
 10
-91.4738168293
 20
-26.0032636836
 10
-91.3370980793
 20
-25.9654031067
 10
-91.1926669896
 20
-25.943668331
 10
-91.0398224383
 20
-25.9359559913
 10
-91.0398224383
 20
-25.9359559913
 10
-90.8827711563
 20
-25.943668331
 10
-90.733432214
 20
-25.967506472
 10
-90.5925067332
 20
-26.0067692926
 10
-90.459994714
 20
-26.0614567926
 10
-90.3351950345
 20
-26.1322700938
 10
-90.2188088165
 20
-26.2192091964
 10
-90.1101349383
 20
-26.3215729785
 10
-90.0098745216
 20
-26.43936144
 10
-90.0098745216
 20
-26.43936144
 10
-89.9453713165
 20
-26.5312083951
 10
-89.8899826947
 20
-26.6279632028
 10
-89.8423064127
 20
-26.7310281067
 10
-89.803744714
 20
-26.8390008631
 10
-89.772895355
 20
-26.9525825938
 10
-89.7504594575
 20
-27.071773299
 10
-89.7371381434
 20
-27.1965729785
 10
-89.7315291691
 20
-27.3269816323
 10
-89.7315291691
 20
-27.3269816323
 10
-92.0199907075
 20
-27.3269816323
 10
-92.0199907075
 20
-27.3269816323
 10
-92.0136806114
 20
-27.4279431708
 10
-91.9996581755
 20
-27.5246979785
 10
-91.9772222781
 20
-27.6165449336
 10
-91.9463729191
 20
-27.7034840361
 10
-91.9085123422
 20
-27.7855152861
 10
-91.8622383037
 20
-27.8633398054
 10
-91.8075508037
 20
-27.936256472
 10
-91.745150964
 20
-28.0049664079
 10
-91.6764410281
 20
-28.0666651259
 10
-91.6042254832
 20
-28.1206515041
 10
-91.5278032075
 20
-28.1662244208
 10
-91.4471742011
 20
-28.2033838759
 10
-91.3630395857
 20
-28.2321298695
 10
-91.2746982396
 20
-28.2524624015
 10
-91.1828512845
 20
-28.2650825938
 10
-91.0867975986
 20
-28.2692893246
 10
-91.0867975986
 20
-28.2692893246
 10
-90.9928472781
 20
-28.2657837156
 10
-90.9010003229
 20
-28.2545657669
 10
-90.8098544896
 20
-28.2356354785
 10
-90.7201108999
 20
-28.209693972
 10
-90.6338729191
 20
-28.1774423695
 10
-90.5546461563
 20
-28.1395817926
 10
-90.4824306114
 20
-28.0975144849
 10
-90.4165251627
 20
-28.0505393246
 10
-90.3527230793
 20
-27.9937484592
 10
-90.2861165088
 20
-27.9208317926
 10
-90.2167054511
 20
-27.83389269
 10
-90.1451910281
 20
-27.7308277861
  0
LWPOLYLINE
  5
8E
330
1F
100
AcDbEntity
  8
0
  6
Continuous
 62
     7
100
AcDbPolyline
 90
       33
 70
   128
 43
0.0
 10
-90.0456309319
 20
-27.0128790682
 10
-90.0827911883
 20
-26.8887805105
 10
-90.128364105
 20
-26.7780032669
 10
-90.1809482396
 20
-26.6805473374
 10
-90.241244714
 20
-26.596412722
 10
-90.3099546499
 20
-26.5220938118
 10
-90.3898825345
 20
-26.4554872413
 10
-90.4796261242
 20
-26.3965930105
 10
-90.5798865409
 20
-26.3454111195
 10
-90.6864570537
 20
-26.3033438118
 10
-90.7965331755
 20
-26.2738966964
 10
-90.9087126627
 20
-26.2556675297
 10
-91.023696637
 20
-26.2500585554
 10
-91.023696637
 20
-26.2500585554
 10
-91.1176469575
 20
-26.2535641644
 10
-91.2087927909
 20
-26.2647821131
 10
-91.2964330152
 20
-26.2837124015
 10
-91.3798665088
 20
-26.3096539079
 10
-91.461196637
 20
-26.3440088759
 10
-91.5383200345
 20
-26.38467394
 10
-91.6119378229
 20
-26.4337524656
 10
-91.6827511242
 20
-26.4898422092
 10
-91.6827511242
 20
-26.4898422092
 10
-91.7318296499
 20
-26.5361162477
 10
-91.7774025665
 20
-26.5879992605
 10
-91.820170996
 20
-26.6447901259
 10
-91.8594338165
 20
-26.7071899656
 10
-91.8958921499
 20
-26.7758999015
 10
-91.929545996
 20
-26.84951769
 10
-91.9596942332
 20
-26.928043331
 10
-91.9870379832
 20
-27.0128790682
 10
-91.9870379832
 20
-27.0128790682
 10
-90.0456317332
 20
-27.0128790682
  0
LWPOLYLINE
  5
8F
330
1F
100
AcDbEntity
  8
0
  6
Continuous
 62
     7
100
AcDbPolyline
 90
       53
 70
   128
 43
0.0
 10
-89.193046093
 20
-25.9808277861
 10
-88.8789650665
 20
-25.9808277861
 10
-88.8789650665
 20
-25.9808277861
 10
-88.8789650665
 20
-26.35733019
 10
-88.8789650665
 20
-26.35733019
 10
-88.8074506434
 20
-26.2535641644
 10
-88.733832855
 20
-26.1652228182
 10
-88.6588128229
 20
-26.0930072733
 10
-88.5816894255
 20
-26.0355152861
 10
-88.5024626627
 20
-25.9920457349
 10
-88.4211325345
 20
-25.9604952541
 10
-88.3391012845
 20
-25.9422660874
 10
-88.2549666691
 20
-25.9359559913
 10
-88.2549666691
 20
-25.9359559913
 10
-88.1897623422
 20
-25.9415649656
 10
-88.1224546499
 20
-25.9576907669
 10
-88.0530435922
 20
-25.9850345169
 10
-87.9815291691
 20
-26.0235962156
 10
-87.9815291691
 20
-26.0235962156
 10
-88.1540051306
 20
-26.295631472
 10
-88.1540051306
 20
-26.295631472
 10
-88.1995780473
 20
-26.2760000618
 10
-88.241645355
 20
-26.2612765041
 10
-88.2802070537
 20
-26.2528630426
 10
-88.3145620216
 20
-26.2500585554
 10
-88.3145620216
 20
-26.2500585554
 10
-88.3895820537
 20
-26.2584720169
 10
-88.463900964
 20
-26.2837124015
 10
-88.5361165088
 20
-26.3257797092
 10
-88.6076309319
 20
-26.38467394
 10
-88.6419858999
 20
-26.4204311515
 10
-88.6742375024
 20
-26.4610962156
 10
-88.7036846178
 20
-26.5059680105
 10
-88.7317294896
 20
-26.5557476579
 10
-88.757670996
 20
-26.6104351579
 10
-88.781509137
 20
-26.6693293887
 10
-88.8032439127
 20
-26.733131472
 10
-88.8228753229
 20
-26.8011402861
 10
-88.8228753229
 20
-26.8011402861
 10
-88.836196637
 20
-26.8621378823
 10
-88.8474145857
 20
-26.9371579144
 10
-88.8572302909
 20
-27.0262003823
 10
-88.8649426306
 20
-27.1292652861
 10
-88.8712527268
 20
-27.2456515041
 10
-88.8754594575
 20
-27.3760601579
 10
-88.8782639447
 20
-27.5204912477
 10
-88.8789650665
 20
-27.6789447733
 10
-88.8789650665
 20
-27.6789447733
 10
-88.8789650665
 20
-28.5385200938
 10
-88.8789650665
 20
-28.5385200938
 10
-89.1930676306
 20
-28.5385200938
 10
-89.1930676306
 20
-28.5385200938
 10
-89.1930676306
 20
-25.9808277861
  0
LWPOLYLINE
  5
90
330
1F
100
AcDbEntity
  8
0
  6
Continuous
 62
     7
100
AcDbPolyline
 90
       86
 70
   128
 43
0.0
 10
-87.6674056053
 20
-25.9808277861
 10
-87.3533240409
 20
-25.9808277861
 10
-87.3533240409
 20
-25.9808277861
 10
-87.3533240409
 20
-26.4421659272
 10
-87.3533240409
 20
-26.4421659272
 10
-87.250259137
 20
-26.3187684913
 10
-87.1422863806
 20
-26.2128991002
 10
-87.0287046499
 20
-26.1259599977
 10
-86.9095139447
 20
-26.05654894
 10
-86.785415387
 20
-26.0039648054
 10
-86.655707855
 20
-25.9661042285
 10
-86.5203913486
 20
-25.943668331
 10
-86.3801669896
 20
-25.9359559913
 10
-86.3801669896
 20
-25.9359559913
 10
-86.238540387
 20
-25.9450705746
 10
-86.105327246
 20
-25.9717132028
 10
-85.9805275665
 20
-26.0172861195
 10
-85.8641413486
 20
-26.080387081
 10
-85.7589730793
 20
-26.158912722
 10
-85.667827246
 20
-26.2500585554
 10
-85.5921060922
 20
-26.353824581
 10
-85.531108496
 20
-26.470210799
 10
-85.5058681114
 20
-26.5354151259
 10
-85.4841333357
 20
-26.6097340361
 10
-85.4659041691
 20
-26.6917652861
 10
-85.4504794896
 20
-26.7829111195
 10
-85.4392615409
 20
-26.8824704144
 10
-85.4308480793
 20
-26.9904431708
 10
-85.425239105
 20
-27.1075305105
 10
-85.4238368614
 20
-27.23233019
 10
-85.4238368614
 20
-27.23233019
 10
-85.4238368614
 20
-28.5385200938
 10
-85.4238368614
 20
-28.5385200938
 10
-85.7379394255
 20
-28.5385200938
 10
-85.7379394255
 20
-28.5385200938
 10
-85.7379394255
 20
-27.3353950938
 10
-85.7379394255
 20
-27.3353950938
 10
-85.7386405473
 20
-27.2309279464
 10
-85.7400427909
 20
-27.1355753823
 10
-85.7428472781
 20
-27.0493374015
 10
-85.7470540088
 20
-26.9715128823
 10
-85.7526629832
 20
-26.9035040682
 10
-85.7589730793
 20
-26.8446098374
 10
-85.7666854191
 20
-26.7941290682
 10
-85.7750988806
 20
-26.7534640041
 10
-85.7750988806
 20
-26.7534640041
 10
-85.8108560922
 20
-26.6356755426
 10
-85.8606357396
 20
-26.5333117605
 10
-85.9237367011
 20
-26.4470737797
 10
-86.0001589768
 20
-26.3762604785
 10
-86.0899025665
 20
-26.3208718567
 10
-86.1922663486
 20
-26.2816090361
 10
-86.3072503229
 20
-26.2577708951
 10
-86.4348544896
 20
-26.2500585554
 10
-86.4348544896
 20
-26.2500585554
 10
-86.5105756434
 20
-26.2528630426
 10
-86.5841934319
 20
-26.2619776259
 10
-86.6564089768
 20
-26.2774023054
 10
-86.7258200345
 20
-26.2984359592
 10
-86.7938288486
 20
-26.326480831
 10
-86.8597342973
 20
-26.3594335554
 10
-86.9235363806
 20
-26.3993974977
 10
-86.9852350986
 20
-26.4449704144
 10
-87.0434282075
 20
-26.4954511836
 10
-87.0960123422
 20
-26.5480353182
 10
-87.1436886242
 20
-26.6041250618
 10
-87.1864570537
 20
-26.6630192926
 10
-87.2236165088
 20
-26.7247180105
 10
-87.2558681114
 20
-26.7892212156
 10
-87.2832118614
 20
-26.8572300297
 10
-87.304946637
 20
-26.9273422092
 10
-87.304946637
 20
-26.9273422092
 10
-87.3161645857
 20
-26.979225222
 10
-87.3259802909
 20
-27.04092394
 10
-87.3343937524
 20
-27.1117372413
 10
-87.3414049704
 20
-27.1930673695
 10
-87.3463128229
 20
-27.283512081
 10
-87.3505195537
 20
-27.3837724977
 10
-87.3526229191
 20
-27.4938486195
 10
-87.3533240409
 20
-27.6137404464
 10
-87.3533240409
 20
-27.6137404464
 10
-87.3533240409
 20
-28.5385200938
 10
-87.3533240409
 20
-28.5385200938
 10
-87.667426605
 20
-28.5385200938
 10
-87.667426605
 20
-28.5385200938
 10
-87.667426605
 20
-25.9808277861
  0
LWPOLYLINE
  5
91
330
1F
100
AcDbEntity
  8
0
  6
Continuous
 62
     7
100
AcDbPolyline
 90
        8
 70
   128
 43
0.0
 10
-84.7507119179
 20
-24.9487765041
 10
-84.4366573742
 20
-24.9487765041
 10
-84.4366573742
 20
-24.9487765041
 10
-84.4366573742
 20
-28.5385200938
 10
-84.4366573742
 20
-28.5385200938
 10
-84.7507599383
 20
-28.5385200938
 10
-84.7507599383
 20
-28.5385200938
 10
-84.7507599383
 20
-24.9487765041
  0
LWPOLYLINE
  5
92
330
1F
100
AcDbEntity
  8
0
  6
Continuous
 62
     7
100
AcDbPolyline
 90
       36
 70
   128
 43
0.0
 10
-83.6079120636
 20
-24.9039047092
 10
-83.5497383037
 20
-24.9088125618
 10
-83.4957519255
 20
-24.9235361195
 10
-83.4459722781
 20
-24.9487765041
 10
-83.4011004832
 20
-24.983131472
 10
-83.3632399063
 20
-25.0244976579
 10
-83.3365972781
 20
-25.0707716964
 10
-83.3204714768
 20
-25.1205513438
 10
-83.3148625024
 20
-25.174537722
 10
-83.3148625024
 20
-25.174537722
 10
-83.3204714768
 20
-25.2271218567
 10
-83.3365972781
 20
-25.2762003823
 10
-83.3632399063
 20
-25.321773299
 10
-83.4011004832
 20
-25.3631394849
 10
-83.4459722781
 20
-25.3974944528
 10
-83.4957519255
 20
-25.4227348374
 10
-83.5497383037
 20
-25.4374583951
 10
-83.6079314127
 20
-25.4423662477
 10
-83.6079314127
 20
-25.4423662477
 10
-83.6654233999
 20
-25.4374583951
 10
-83.7180075345
 20
-25.4227348374
 10
-83.7677871819
 20
-25.3974944528
 10
-83.8126589768
 20
-25.3631394849
 10
-83.8498184319
 20
-25.321773299
 10
-83.8764610601
 20
-25.2762003823
 10
-83.8925868614
 20
-25.2271218567
 10
-83.8981958357
 20
-25.174537722
 10
-83.8981958357
 20
-25.174537722
 10
-83.8925868614
 20
-25.1205513438
 10
-83.8764610601
 20
-25.0707716964
 10
-83.8498184319
 20
-25.0244976579
 10
-83.8126589768
 20
-24.983131472
 10
-83.7677871819
 20
-24.9487765041
 10
-83.7180075345
 20
-24.9235361195
 10
-83.6654233999
 20
-24.9088125618
 10
-83.6079314127
 20
-24.9039047092
  0
LWPOLYLINE
  5
93
330
1F
100
AcDbEntity
  8
0
  6
Continuous
 62
     7
100
AcDbPolyline
 90
        8
 70
   128
 43
0.0
 10
-83.7635397911
 20
-25.9808277861
 10
-83.449477887
 20
-25.9808277861
 10
-83.449477887
 20
-25.9808277861
 10
-83.449477887
 20
-28.5385200938
 10
-83.449477887
 20
-28.5385200938
 10
-83.7635804511
 20
-28.5385200938
 10
-83.7635804511
 20
-28.5385200938
 10
-83.7635804511
 20
-25.9808277861
  0
LWPOLYLINE
  5
94
330
1F
100
AcDbEntity
  8
0
  6
Continuous
 62
     7
100
AcDbPolyline
 90
       26
 70
   128
 43
0.0
 10
-118.8532710075
 20
-35.3718534272
 10
-118.3912847781
 20
-31.8718534272
 10
-118.3912847781
 20
-31.8718534272
 10
-118.3464129832
 20
-31.8718534272
 10
-118.3464129832
 20
-31.8718534272
 10
-116.901400964
 20
-34.743648299
 10
-116.901400964
 20
-34.743648299
 10
-115.4598945537
 20
-31.8718534272
 10
-115.4598945537
 20
-31.8718534272
 10
-115.414321637
 20
-31.8718534272
 10
-115.414321637
 20
-31.8718534272
 10
-114.949477887
 20
-35.3718534272
 10
-114.949477887
 20
-35.3718534272
 10
-115.2649826947
 20
-35.3718534272
 10
-115.2649826947
 20
-35.3718534272
 10
-115.6001189127
 20
-32.85342394
 10
-115.6001189127
 20
-32.85342394
 10
-116.863540387
 20
-35.3718534272
 10
-116.863540387
 20
-35.3718534272
 10
-116.9343536883
 20
-35.3718534272
 10
-116.9343536883
 20
-35.3718534272
 10
-118.2026830152
 20
-32.8478149656
 10
-118.2026830152
 20
-32.8478149656
 10
-118.5371181114
 20
-35.3718534272
 10
-118.5371181114
 20
-35.3718534272
 10
-118.8533240409
 20
-35.3718534272
  0
LWPOLYLINE
  5
95
330
1F
100
AcDbEntity
  8
0
  6
Continuous
 62
     7
100
AcDbPolyline
 90
       62
 70
   128
 43
0.0
 10
-111.7186546326
 20
-32.8141611195
 10
-111.7187086563
 20
-35.3718534272
 10
-111.7187086563
 20
-35.3718534272
 10
-112.0328112204
 20
-35.3718534272
 10
-112.0328112204
 20
-35.3718534272
 10
-112.0328112204
 20
-34.9294455746
 10
-112.0328112204
 20
-34.9294455746
 10
-112.1414850986
 20
-35.0472340361
 10
-112.2557679511
 20
-35.1481955746
 10
-112.3777631434
 20
-35.23233019
 10
-112.5053673101
 20
-35.2996378823
 10
-112.6392815729
 20
-35.3508197733
 10
-112.7788048101
 20
-35.3872781067
 10
-112.9253392652
 20
-35.4097140041
 10
-113.0774826947
 20
-35.416725222
 10
-113.0774826947
 20
-35.416725222
 10
-113.2127992011
 20
-35.4104151259
 10
-113.343207855
 20
-35.3921859592
 10
-113.4687086563
 20
-35.362037722
 10
-113.589301605
 20
-35.3199704144
 10
-113.7042855793
 20
-35.2652829144
 10
-113.8150628229
 20
-35.1986763438
 10
-113.9202310922
 20
-35.1201507028
 10
-114.0204915088
 20
-35.0290048695
 10
-114.112338464
 20
-34.9294455746
 10
-114.1915652268
 20
-34.8249784272
 10
-114.2581717973
 20
-34.7149023054
 10
-114.3135604191
 20
-34.5992172092
 10
-114.3563288486
 20
-34.4786242605
 10
-114.3864770857
 20
-34.3531234592
 10
-114.4047062524
 20
-34.2220136836
 10
-114.4110163486
 20
-34.0859960554
 10
-114.4110163486
 20
-34.0859960554
 10
-114.4047062524
 20
-33.9527829144
 10
-114.3864770857
 20
-33.8237765041
 10
-114.3556277268
 20
-33.7003790682
 10
-114.3121581755
 20
-33.5811883631
 10
-114.2567695537
 20
-33.4676066323
 10
-114.1894618614
 20
-33.3589327541
 10
-114.1095339768
 20
-33.2544656067
 10
-114.0169858999
 20
-33.1556074336
 10
-113.9160243614
 20
-33.065162722
 10
-113.8094538486
 20
-32.986637081
 10
-113.698676605
 20
-32.9200305105
 10
-113.582290387
 20
-32.8660441323
 10
-113.4609963165
 20
-32.8232757028
 10
-113.3347943934
 20
-32.7931274656
 10
-113.2036846178
 20
-32.7755994208
 10
-113.0676669896
 20
-32.7692893246
 10
-113.0676669896
 20
-32.7692893246
 10
-112.9113168293
 20
-32.7770016644
 10
-112.7626790088
 20
-32.8001386836
 10
-112.6217535281
 20
-32.8394015041
 10
-112.488540387
 20
-32.8933878823
 10
-112.3630395857
 20
-32.9642011836
 10
-112.2445500024
 20
-33.0539447733
 10
-112.1351750024
 20
-33.1612164079
 10
-112.0328112204
 20
-33.287418331
 10
-112.0328112204
 20
-33.287418331
 10
-112.0328112204
 20
-32.8141611195
 10
-112.0328112204
 20
-32.8141611195
 10
-111.7187086563
 20
-32.8141611195
  0
LWPOLYLINE
  5
96
330
1F
100
AcDbEntity
  8
0
  6
Continuous
 62
     7
100
AcDbPolyline
 90
       56
 70
   128
 43
0.0
 10
-113.063454628
 20
-33.0833918887
 10
-113.2008801306
 20
-33.0918053502
 10
-113.3326910281
 20
-33.1163446131
 10
-113.4588929511
 20
-33.157710799
 10
-113.5801870216
 20
-33.2152027861
 10
-113.6923665088
 20
-33.287418331
 10
-113.7926269255
 20
-33.3736563118
 10
-113.8809682716
 20
-33.4725144849
 10
-113.9573905473
 20
-33.5853950938
 10
-114.0183881434
 20
-33.7059880426
 10
-114.0618576947
 20
-33.830787722
 10
-114.0885003229
 20
-33.9583918887
 10
-114.0969137845
 20
-34.0895016644
 10
-114.0969137845
 20
-34.0895016644
 10
-114.0877992011
 20
-34.2199103182
 10
-114.0618576947
 20
-34.3475144849
 10
-114.0176870216
 20
-34.4723141644
 10
-113.9559883037
 20
-34.5943093567
 10
-113.8788649063
 20
-34.7078910874
 10
-113.7905235601
 20
-34.8081515041
 10
-113.6895620216
 20
-34.8950906067
 10
-113.5766814127
 20
-34.9687083951
 10
-113.4553873422
 20
-35.0276026259
 10
-113.3298865409
 20
-35.0689688118
 10
-113.2001790088
 20
-35.0942091964
 10
-113.066264746
 20
-35.1026226579
 10
-113.066264746
 20
-35.1026226579
 10
-112.9302471178
 20
-35.0942091964
 10
-112.7977350986
 20
-35.0696699336
 10
-112.6694298101
 20
-35.0283037477
 10
-112.5446301306
 20
-34.9701106387
 10
-112.4289450345
 20
-34.8978950938
 10
-112.3265812524
 20
-34.8137604785
 10
-112.2396421499
 20
-34.7177067926
 10
-112.1660243614
 20
-34.6104351579
 10
-112.1078312524
 20
-34.4933478182
 10
-112.0657639447
 20
-34.3685481387
 10
-112.0412246819
 20
-34.2374383631
 10
-112.0328112204
 20
-34.0986162477
 10
-112.0328112204
 20
-34.0986162477
 10
-112.0377190729
 20
-33.9927468567
 10
-112.0517415088
 20
-33.8910841964
 10
-112.0748785281
 20
-33.7936282669
 10
-112.1071301306
 20
-33.70108019
 10
-112.1491974383
 20
-33.6127388438
 10
-112.2003793293
 20
-33.5286042285
 10
-112.2606758037
 20
-33.4493774656
 10
-112.3307879832
 20
-33.3743574336
 10
-112.4072102588
 20
-33.3063486195
 10
-112.4878392652
 20
-33.2467532669
 10
-112.5733761242
 20
-33.1969736195
 10
-112.6624185922
 20
-33.1563085554
 10
-112.7563689127
 20
-33.1240569528
 10
-112.854525964
 20
-33.1016210554
 10
-112.956889746
 20
-33.0875986195
 10
-113.0634602588
 20
-33.0833918887
  0
LWPOLYLINE
  5
97
330
1F
100
AcDbEntity
  8
0
  6
Continuous
 62
     7
100
AcDbPolyline
 90
       53
 70
   128
 43
0.0
 10
-111.0904812813
 20
-32.8141611195
 10
-110.776400964
 20
-32.8141611195
 10
-110.776400964
 20
-32.8141611195
 10
-110.776400964
 20
-33.1906635233
 10
-110.776400964
 20
-33.1906635233
 10
-110.7048865409
 20
-33.0868974977
 10
-110.6312687524
 20
-32.9985561515
 10
-110.5562487204
 20
-32.9263406067
 10
-110.4791253229
 20
-32.8688486195
 10
-110.3998985601
 20
-32.8253790682
 10
-110.3185684319
 20
-32.7938285874
 10
-110.2365371819
 20
-32.7755994208
 10
-110.1524025665
 20
-32.7692893246
 10
-110.1524025665
 20
-32.7692893246
 10
-110.0871982396
 20
-32.774898299
 10
-110.0198905473
 20
-32.7910241002
 10
-109.9504794896
 20
-32.8183678502
 10
-109.8789650665
 20
-32.856929549
 10
-109.8789650665
 20
-32.856929549
 10
-110.0514410281
 20
-33.1289648054
 10
-110.0514410281
 20
-33.1289648054
 10
-110.0970139447
 20
-33.1093333951
 10
-110.1390812524
 20
-33.0946098374
 10
-110.1776429511
 20
-33.0861963759
 10
-110.2119979191
 20
-33.0833918887
 10
-110.2119979191
 20
-33.0833918887
 10
-110.2870179511
 20
-33.0918053502
 10
-110.3613368614
 20
-33.1170457349
 10
-110.4335524063
 20
-33.1591130426
 10
-110.5050668293
 20
-33.2180072733
 10
-110.5394217973
 20
-33.2537644849
 10
-110.5716733999
 20
-33.294429549
 10
-110.6011205152
 20
-33.3393013438
 10
-110.629165387
 20
-33.3890809913
 10
-110.6551068934
 20
-33.4437684913
 10
-110.6789450345
 20
-33.502662722
 10
-110.7006798101
 20
-33.5664648054
 10
-110.7203112204
 20
-33.6344736195
 10
-110.7203112204
 20
-33.6344736195
 10
-110.7336325345
 20
-33.6954712156
 10
-110.7448504832
 20
-33.7704912477
 10
-110.7546661883
 20
-33.8595337156
 10
-110.7623785281
 20
-33.9625986195
 10
-110.7686886242
 20
-34.0789848374
 10
-110.772895355
 20
-34.2093934913
 10
-110.7756998422
 20
-34.353824581
 10
-110.776400964
 20
-34.5122781067
 10
-110.776400964
 20
-34.5122781067
 10
-110.776400964
 20
-35.3718534272
 10
-110.776400964
 20
-35.3718534272
 10
-111.0905035281
 20
-35.3718534272
 10
-111.0905035281
 20
-35.3718534272
 10
-111.0905035281
 20
-32.8141611195
  0
LWPOLYLINE
  5
98
330
1F
100
AcDbEntity
  8
0
  6
Continuous
 62
     7
100
AcDbPolyline
 90
      124
 70
   128
 43
0.0
 10
-107.0520281792
 20
-33.3687484592
 10
-107.3149626627
 20
-33.5321098374
 10
-107.3149626627
 20
-33.5321098374
 10
-107.4040051306
 20
-33.4269415682
 10
-107.5014610601
 20
-33.3357957349
 10
-107.6059282075
 20
-33.2586723374
 10
-107.7181076947
 20
-33.1955713759
 10
-107.8387006434
 20
-33.1464928502
 10
-107.9670059319
 20
-33.1114367605
 10
-108.1023224383
 20
-33.0904031067
 10
-108.2460524063
 20
-33.0833918887
 10
-108.2460524063
 20
-33.0833918887
 10
-108.3610363806
 20
-33.0882997413
 10
-108.4718136242
 20
-33.1016210554
 10
-108.5769818934
 20
-33.1247580746
 10
-108.6772423101
 20
-33.1563085554
 10
-108.7725948742
 20
-33.1976747413
 10
-108.8630395857
 20
-33.2481555105
 10
-108.9485764447
 20
-33.3070497413
 10
-109.0292054511
 20
-33.3757596772
 10
-109.1021221178
 20
-33.4507797092
 10
-109.1652230793
 20
-33.530006472
 10
-109.2192094575
 20
-33.6127388438
 10
-109.2626790088
 20
-33.6996779464
 10
-109.2970339768
 20
-33.7901226579
 10
-109.3208721178
 20
-33.8847741002
 10
-109.3355956755
 20
-33.9836322733
 10
-109.3405035281
 20
-34.0859960554
 10
-109.3405035281
 20
-34.0859960554
 10
-109.3313889447
 20
-34.2199103182
 10
-109.3047463165
 20
-34.3496178502
 10
-109.2598745216
 20
-34.4758197733
 10
-109.1974746819
 20
-34.5978149656
 10
-109.1189490409
 20
-34.7106955746
 10
-109.0271020857
 20
-34.8109559913
 10
-108.9226349383
 20
-34.897193972
 10
-108.804145355
 20
-34.9701106387
 10
-108.6751389447
 20
-35.0283037477
 10
-108.5391213165
 20
-35.0696699336
 10
-108.3953913486
 20
-35.0942091964
 10
-108.2439490409
 20
-35.1026226579
 10
-108.2439490409
 20
-35.1026226579
 10
-108.1051269255
 20
-35.09561144
 10
-107.9726149063
 20
-35.0745777861
 10
-107.847114105
 20
-35.0395216964
 10
-107.7272222781
 20
-34.9904431708
 10
-107.6143416691
 20
-34.9273422092
 10
-107.5084722781
 20
-34.8502188118
 10
-107.4082118614
 20
-34.7590729785
 10
-107.3149626627
 20
-34.6539047092
 10
-107.3149626627
 20
-34.6539047092
 10
-107.0520419896
 20
-34.8263806708
 10
-107.0520419896
 20
-34.8263806708
 10
-107.0997182716
 20
-34.8943894849
 10
-107.1516012845
 20
-34.95889269
 10
-107.2076910281
 20
-35.0191891644
 10
-107.2672863806
 20
-35.0752789079
 10
-107.3303873422
 20
-35.1278630426
 10
-107.3983961563
 20
-35.1762404464
 10
-107.4699105793
 20
-35.2211122413
 10
-107.5449306114
 20
-35.2617773054
 10
-107.6234562524
 20
-35.2982356387
 10
-107.7047863806
 20
-35.3297861195
 10
-107.7882198742
 20
-35.3564287477
 10
-107.8751589768
 20
-35.3781635233
 10
-107.9642014447
 20
-35.3949904464
 10
-108.0567495216
 20
-35.4069095169
 10
-108.151400964
 20
-35.4146218567
 10
-108.2488568934
 20
-35.416725222
 10
-108.2488568934
 20
-35.416725222
 10
-108.397494714
 20
-35.4111162477
 10
-108.5391213165
 20
-35.392887081
 10
-108.6744378229
 20
-35.3634399656
 10
-108.8034442332
 20
-35.3220737797
 10
-108.9261405473
 20
-35.2687885233
 10
-109.0425267652
 20
-35.2035841964
 10
-109.1519017652
 20
-35.126460799
 10
-109.2549666691
 20
-35.037418331
 10
-109.3489169896
 20
-34.9399624015
 10
-109.429545996
 20
-34.8368974977
 10
-109.4982559319
 20
-34.7296258631
 10
-109.5543456755
 20
-34.6167452541
 10
-109.5985163486
 20
-34.4982556708
 10
-109.6293657075
 20
-34.3755593567
 10
-109.648295996
 20
-34.2472540682
 10
-109.6546060922
 20
-34.1140409272
 10
-109.6546060922
 20
-34.1140409272
 10
-109.651801605
 20
-34.0235962156
 10
-109.6426870216
 20
-33.9345537477
 10
-109.6286645857
 20
-33.8469135233
 10
-109.6076309319
 20
-33.7613766644
 10
-109.5816894255
 20
-33.677242049
 10
-109.5494378229
 20
-33.5945096772
 10
-109.511577246
 20
-33.5138806708
 10
-109.4681076947
 20
-33.4346539079
 10
-109.4190291691
 20
-33.3582316323
 10
-109.3657439127
 20
-33.2867172092
 10
-109.3082519255
 20
-33.2187083951
 10
-109.2458520857
 20
-33.1556074336
 10
-109.179946637
 20
-33.0967132028
 10
-109.1091333357
 20
-33.0420257028
 10
-109.0334121819
 20
-32.9915449336
 10
-108.9541854191
 20
-32.9452708951
 10
-108.8714530473
 20
-32.9039047092
 10
-108.7859161883
 20
-32.8681474977
 10
-108.698275964
 20
-32.8379992605
 10
-108.6078312524
 20
-32.8134599977
 10
-108.5152831755
 20
-32.7938285874
 10
-108.4206317332
 20
-32.7805072733
 10
-108.3231758037
 20
-32.7720938118
 10
-108.222915387
 20
-32.7692893246
 10
-108.222915387
 20
-32.7692893246
 10
-108.0974145857
 20
-32.7741971772
 10
-107.9733160281
 20
-32.7889207349
 10
-107.8520219575
 20
-32.8127588759
 10
-107.7328312524
 20
-32.8471138438
 10
-107.6192495216
 20
-32.8891811515
 10
-107.5140812524
 20
-32.9368574336
 10
-107.4187286883
 20
-32.9908438118
 10
-107.3317895857
 20
-33.0504391644
 10
-107.2525628229
 20
-33.1170457349
 10
-107.1796461563
 20
-33.1920657669
 10
-107.112338464
 20
-33.2762003823
 10
-107.0520419896
 20
-33.3687484592
  0
ARC
  5
99
330
1F
100
AcDbEntity
  8
0
  6
Continuous
 62
     7
100
AcDbCircle
 10
-105.1884448072
 20
-34.0930200903
 30
0.0
 40
1.323730765740961
100
AcDbArc
 50
90.0006688003
 51
89.9993311997
  0
ARC
  5
9A
330
1F
100
AcDbEntity
  8
0
  6
Continuous
 62
     7
100
AcDbCircle
 10
-105.1898611848
 20
-34.0928080001
 30
0.0
 40
1.009416111392909
100
AcDbArc
 50
90.000074792
 51
89.9999252079
  0
LWPOLYLINE
  5
9B
330
1F
100
AcDbEntity
  8
0
  6
Continuous
 62
     7
100
AcDbPolyline
 90
      171
 70
   128
 43
0.0
 10
-102.1609902382
 20
-34.6966731387
 10
-101.8651429511
 20
-34.5192893246
 10
-101.8651429511
 20
-34.5192893246
 10
-101.780307214
 20
-34.6560080746
 10
-101.6926669896
 20
-34.7744976579
 10
-101.6015211563
 20
-34.8747580746
 10
-101.506869714
 20
-34.9567893246
 10
-101.4094137845
 20
-35.0205914079
 10
-101.308452246
 20
-35.0661643246
 10
-101.2039850986
 20
-35.0935080746
 10
-101.096713464
 20
-35.1026226579
 10
-101.096713464
 20
-35.1026226579
 10
-101.0048665088
 20
-35.0977148054
 10
-100.9158240409
 20
-35.0822901259
 10
-100.8295860601
 20
-35.0570497413
 10
-100.7461525665
 20
-35.0212925297
 10
-100.6690291691
 20
-34.9771218567
 10
-100.6017214768
 20
-34.9252388438
 10
-100.5442294896
 20
-34.8670457349
 10
-100.4965532075
 20
-34.8018414079
 10
-100.4593937524
 20
-34.7317292285
 10
-100.4320500024
 20
-34.6595136836
 10
-100.4166253229
 20
-34.5858958951
 10
-100.4110163486
 20
-34.5094736195
 10
-100.4110163486
 20
-34.5094736195
 10
-100.4187286883
 20
-34.4225345169
 10
-100.4425668293
 20
-34.3355954144
 10
-100.4818296499
 20
-34.2507596772
 10
-100.5365171499
 20
-34.16592394
 10
-100.5365171499
 20
-34.16592394
 10
-100.5841934319
 20
-34.1063285874
 10
-100.6402831755
 20
-34.0439287477
 10
-100.7061886242
 20
-33.9787244208
 10
-100.7805075345
 20
-33.9100144849
 10
-100.8639410281
 20
-33.8392011836
 10
-100.9557879832
 20
-33.7648822733
 10
-101.0574506434
 20
-33.6877588759
 10
-101.1675267652
 20
-33.6078309913
 10
-101.1675267652
 20
-33.6078309913
 10
-101.277602887
 20
-33.5286042285
 10
-101.3764610601
 20
-33.4542853182
 10
-101.4641012845
 20
-33.3862765041
 10
-101.5412246819
 20
-33.3238766644
 10
-101.6078312524
 20
-33.267085799
 10
-101.6632198742
 20
-33.2166050297
 10
-101.7073905473
 20
-33.1710321131
 10
-101.7410443934
 20
-33.1317692926
 10
-101.7410443934
 20
-33.1317692926
 10
-101.7866173101
 20
-33.0693694528
 10
-101.8265812524
 20
-33.0062684913
 10
-101.8602350986
 20
-32.9417652861
 10
-101.8875788486
 20
-32.8751587156
 10
-101.9093136242
 20
-32.8085521451
 10
-101.9247383037
 20
-32.7398422092
 10
-101.933852887
 20
-32.6697300297
 10
-101.9366573742
 20
-32.5989167285
 10
-101.9366573742
 20
-32.5989167285
 10
-101.9296461563
 20
-32.4881394849
 10
-101.9086125024
 20
-32.381568972
 10
-101.8742575345
 20
-32.2806074336
 10
-101.8258801306
 20
-32.1845537477
 10
-101.7641814127
 20
-32.0962124015
 10
-101.6919658678
 20
-32.0169856387
 10
-101.6078312524
 20
-31.9489768246
 10
-101.5131798101
 20
-31.8900825938
 10
-101.4101149063
 20
-31.8431074336
 10
-101.3021421499
 20
-31.8087524656
 10
-101.1906637845
 20
-31.7891210554
 10
-101.0742775665
 20
-31.7821098374
 10
-101.0742775665
 20
-31.7821098374
 10
-100.9508801306
 20
-31.7898221772
 10
-100.8309883037
 20
-31.8136603182
 10
-100.7160043293
 20
-31.8536242605
 10
-100.604525964
 20
-31.9090128823
 10
-100.5491373422
 20
-31.944068972
 10
-100.4937487204
 20
-31.9854351579
 10
-100.436957855
 20
-32.0338125618
 10
-100.3794658678
 20
-32.0885000618
 10
-100.3212727588
 20
-32.1501987797
 10
-100.2623785281
 20
-32.2182075938
 10
-100.2020820537
 20
-32.2932276259
 10
-100.1417855793
 20
-32.3745577541
 10
-100.1417855793
 20
-32.3745577541
 10
-100.4257399063
 20
-32.5898021451
 10
-100.4257399063
 20
-32.5898021451
 10
-100.4776229191
 20
-32.5238966964
 10
-100.5274025665
 20
-32.4643013438
 10
-100.5750788486
 20
-32.4103149656
 10
-100.621352887
 20
-32.3626386836
 10
-100.6648224383
 20
-32.3205713759
 10
-100.706889746
 20
-32.2841130426
 10
-100.7475548101
 20
-32.2532636836
 10
-100.785415387
 20
-32.2287244208
 10
-100.8611365409
 20
-32.190162722
 10
-100.9403633037
 20
-32.162818972
 10
-101.0230956755
 20
-32.1466931708
 10
-101.1093336563
 20
-32.1410841964
 10
-101.1093336563
 20
-32.1410841964
 10
-101.2173064127
 20
-32.1487965361
 10
-101.3147623422
 20
-32.173335799
 10
-101.4017014447
 20
-32.2132997413
 10
-101.4788248422
 20
-32.2693894849
 10
-101.5419258037
 20
-32.3366971772
 10
-101.5867975986
 20
-32.4117172092
 10
-101.6134402268
 20
-32.494449581
 10
-101.6225548101
 20
-32.5841931708
 10
-101.6225548101
 20
-32.5841931708
 10
-101.6197503229
 20
-32.6402829144
 10
-101.6099346178
 20
-32.6956715361
 10
-101.5952110601
 20
-32.7503590361
 10
-101.5734762845
 20
-32.8043454144
 10
-101.5433280473
 20
-32.8590329144
 10
-101.503364105
 20
-32.9158237797
 10
-101.4528833357
 20
-32.9747180105
 10
-101.3918857396
 20
-33.0364167285
 10
-101.3918857396
 20
-33.0364167285
 10
-101.3687487204
 20
-33.0567492605
 10
-101.335795996
 20
-33.0833918887
 10
-101.2923264447
 20
-33.1163446131
 10
-101.2383400665
 20
-33.1570096772
 10
-101.1745379832
 20
-33.2039848374
 10
-101.1002190729
 20
-33.2572700938
 10
-101.0160844575
 20
-33.3175665682
 10
-100.9214330152
 20
-33.3848742605
 10
-100.9214330152
 20
-33.3848742605
 10
-100.8078512845
 20
-33.4683077541
 10
-100.703384137
 20
-33.5489367605
 10
-100.6087326947
 20
-33.6274624015
 10
-100.5231958357
 20
-33.7038846772
 10
-100.4467735601
 20
-33.7775024656
 10
-100.3794658678
 20
-33.8490168887
 10
-100.3212727588
 20
-33.9184279464
 10
-100.272895355
 20
-33.9857356387
 10
-100.1957719575
 20
-34.1175465361
 10
-100.1410844575
 20
-34.2493574336
 10
-100.1081317332
 20
-34.3818694528
 10
-100.0969137845
 20
-34.514381472
 10
-100.0969137845
 20
-34.514381472
 10
-100.1011205152
 20
-34.6083317926
 10
-100.1151429511
 20
-34.6994776259
 10
-100.1375788486
 20
-34.7871178502
 10
-100.1698304511
 20
-34.8719535874
 10
-100.2104955152
 20
-34.9539848374
 10
-100.2609762845
 20
-35.0325104785
 10
-100.3198705152
 20
-35.1075305105
 10
-100.3885804511
 20
-35.1797460554
 10
-100.4636004832
 20
-35.2456515041
 10
-100.5421261242
 20
-35.3031434913
 10
-100.624858496
 20
-35.3515208951
 10
-100.7110964768
 20
-35.3907837156
 10
-100.8015411883
 20
-35.4216330746
 10
-100.8961926306
 20
-35.444068972
 10
-100.9943496819
 20
-35.4573902861
 10
-101.096713464
 20
-35.4615970169
 10
-101.096713464
 20
-35.4615970169
 10
-101.1759402268
 20
-35.4587925297
 10
-101.253764746
 20
-35.4503790682
 10
-101.3294858999
 20
-35.4370577541
 10
-101.4031036883
 20
-35.4174263438
 10
-101.4746181114
 20
-35.392887081
 10
-101.5447302909
 20
-35.3627388438
 10
-101.612739105
 20
-35.3269816323
 10
-101.6793456755
 20
-35.2856154464
 10
-101.7438488806
 20
-35.2379391644
 10
-101.8069498422
 20
-35.1825505426
 10
-101.8693496819
 20
-35.1201507028
 10
-101.9303472781
 20
-35.0500385233
 10
-101.9899426306
 20
-34.9729151259
 10
-102.0481357396
 20
-34.8880793887
 10
-102.104926605
 20
-34.7962324336
 10
-102.1610163486
 20
-34.6966731387
  0
LWPOLYLINE
  5
9C
330
1F
100
AcDbEntity
  8
0
  6
Continuous
 62
     7
100
AcDbPolyline
 90
       24
 70
   128
 43
0.0
 10
-99.1545915604
 20
-31.7821098374
 10
-98.8405035281
 20
-31.7821098374
 10
-98.8405035281
 20
-31.7821098374
 10
-98.8405035281
 20
-32.8141611195
 10
-98.8405035281
 20
-32.8141611195
 10
-98.3917855793
 20
-32.8141611195
 10
-98.3917855793
 20
-32.8141611195
 10
-98.3917855793
 20
-33.1282636836
 10
-98.3917855793
 20
-33.1282636836
 10
-98.8405035281
 20
-33.1282636836
 10
-98.8405035281
 20
-33.1282636836
 10
-98.8405035281
 20
-35.3718534272
 10
-98.8405035281
 20
-35.3718534272
 10
-99.1546060922
 20
-35.3718534272
 10
-99.1546060922
 20
-35.3718534272
 10
-99.1546060922
 20
-33.1282636836
 10
-99.1546060922
 20
-33.1282636836
 10
-99.6033240409
 20
-33.1282636836
 10
-99.6033240409
 20
-33.1282636836
 10
-99.6033240409
 20
-32.8141611195
 10
-99.6033240409
 20
-32.8141611195
 10
-99.1546060922
 20
-32.8141611195
 10
-99.1546060922
 20
-32.8141611195
 10
-99.1546060922
 20
-31.7821098374
  0
LWPOLYLINE
  5
9D
330
1F
100
AcDbEntity
  8
0
  6
Continuous
 62
     7
100
AcDbPolyline
 90
       62
 70
   128
 43
0.0
 10
-95.2507257462
 20
-32.8141611195
 10
-95.2507599383
 20
-35.3718534272
 10
-95.2507599383
 20
-35.3718534272
 10
-95.5648625024
 20
-35.3718534272
 10
-95.5648625024
 20
-35.3718534272
 10
-95.5648625024
 20
-34.9294455746
 10
-95.5648625024
 20
-34.9294455746
 10
-95.6735363806
 20
-35.0472340361
 10
-95.7878192332
 20
-35.1481955746
 10
-95.9098144255
 20
-35.23233019
 10
-96.0374185922
 20
-35.2996378823
 10
-96.171332855
 20
-35.3508197733
 10
-96.3108560922
 20
-35.3872781067
 10
-96.4573905473
 20
-35.4097140041
 10
-96.6095339768
 20
-35.416725222
 10
-96.6095339768
 20
-35.416725222
 10
-96.7448504832
 20
-35.4104151259
 10
-96.875259137
 20
-35.3921859592
 10
-97.0007599383
 20
-35.362037722
 10
-97.121352887
 20
-35.3199704144
 10
-97.2363368614
 20
-35.2652829144
 10
-97.347114105
 20
-35.1986763438
 10
-97.4522823742
 20
-35.1201507028
 10
-97.5525427909
 20
-35.0290048695
 10
-97.644389746
 20
-34.9294455746
 10
-97.7236165088
 20
-34.8249784272
 10
-97.7902230793
 20
-34.7149023054
 10
-97.8456117011
 20
-34.5992172092
 10
-97.8883801306
 20
-34.4786242605
 10
-97.9185283678
 20
-34.3531234592
 10
-97.9367575345
 20
-34.2220136836
 10
-97.9430676306
 20
-34.0859960554
 10
-97.9430676306
 20
-34.0859960554
 10
-97.9367575345
 20
-33.9527829144
 10
-97.9185283678
 20
-33.8237765041
 10
-97.8876790088
 20
-33.7003790682
 10
-97.8442094575
 20
-33.5811883631
 10
-97.7888208357
 20
-33.4676066323
 10
-97.7215131434
 20
-33.3589327541
 10
-97.6415852588
 20
-33.2544656067
 10
-97.5490371819
 20
-33.1556074336
 10
-97.4480756434
 20
-33.065162722
 10
-97.3415051306
 20
-32.986637081
 10
-97.230727887
 20
-32.9200305105
 10
-97.1143416691
 20
-32.8660441323
 10
-96.9930475986
 20
-32.8232757028
 10
-96.8668456755
 20
-32.7931274656
 10
-96.7357358999
 20
-32.7755994208
 10
-96.5997182716
 20
-32.7692893246
 10
-96.5997182716
 20
-32.7692893246
 10
-96.4433681114
 20
-32.7770016644
 10
-96.2947302909
 20
-32.8001386836
 10
-96.1538048101
 20
-32.8394015041
 10
-96.0205916691
 20
-32.8933878823
 10
-95.8950908678
 20
-32.9642011836
 10
-95.7766012845
 20
-33.0539447733
 10
-95.6672262845
 20
-33.1612164079
 10
-95.5648625024
 20
-33.287418331
 10
-95.5648625024
 20
-33.287418331
 10
-95.5648625024
 20
-32.8141611195
 10
-95.5648625024
 20
-32.8141611195
 10
-95.2507599383
 20
-32.8141611195
  0
LWPOLYLINE
  5
9E
330
1F
100
AcDbEntity
  8
0
  6
Continuous
 62
     7
100
AcDbPolyline
 90
       56
 70
   128
 43
0.0
 10
-96.5954661369
 20
-33.0833918887
 10
-96.7329314127
 20
-33.0918053502
 10
-96.8647423101
 20
-33.1163446131
 10
-96.9909442332
 20
-33.157710799
 10
-97.1122383037
 20
-33.2152027861
 10
-97.2244177909
 20
-33.287418331
 10
-97.3246782075
 20
-33.3736563118
 10
-97.4130195537
 20
-33.4725144849
 10
-97.4894418293
 20
-33.5853950938
 10
-97.5504394255
 20
-33.7059880426
 10
-97.5939089768
 20
-33.830787722
 10
-97.620551605
 20
-33.9583918887
 10
-97.6289650665
 20
-34.0895016644
 10
-97.6289650665
 20
-34.0895016644
 10
-97.6198504832
 20
-34.2199103182
 10
-97.5939089768
 20
-34.3475144849
 10
-97.5497383037
 20
-34.4723141644
 10
-97.4880395857
 20
-34.5943093567
 10
-97.4109161883
 20
-34.7078910874
 10
-97.3225748422
 20
-34.8081515041
 10
-97.2216133037
 20
-34.8950906067
 10
-97.1087326947
 20
-34.9687083951
 10
-96.9874386242
 20
-35.0276026259
 10
-96.8619378229
 20
-35.0689688118
 10
-96.7322302909
 20
-35.0942091964
 10
-96.5983160281
 20
-35.1026226579
 10
-96.5983160281
 20
-35.1026226579
 10
-96.4622983999
 20
-35.0942091964
 10
-96.3297863806
 20
-35.0696699336
 10
-96.2014810922
 20
-35.0283037477
 10
-96.0766814127
 20
-34.9701106387
 10
-95.9609963165
 20
-34.8978950938
 10
-95.8586325345
 20
-34.8137604785
 10
-95.7716934319
 20
-34.7177067926
 10
-95.6980756434
 20
-34.6104351579
 10
-95.6398825345
 20
-34.4933478182
 10
-95.5978152268
 20
-34.3685481387
 10
-95.573275964
 20
-34.2374383631
 10
-95.5648625024
 20
-34.0986162477
 10
-95.5648625024
 20
-34.0986162477
 10
-95.569770355
 20
-33.9927468567
 10
-95.5837927909
 20
-33.8910841964
 10
-95.6069298101
 20
-33.7936282669
 10
-95.6391814127
 20
-33.70108019
 10
-95.6812487204
 20
-33.6127388438
 10
-95.7324306114
 20
-33.5286042285
 10
-95.7927270857
 20
-33.4493774656
 10
-95.8628392652
 20
-33.3743574336
 10
-95.9392615409
 20
-33.3063486195
 10
-96.0198905473
 20
-33.2467532669
 10
-96.1054274063
 20
-33.1969736195
 10
-96.1944698742
 20
-33.1563085554
 10
-96.2884201947
 20
-33.1240569528
 10
-96.386577246
 20
-33.1016210554
 10
-96.4889410281
 20
-33.0875986195
 10
-96.5955115409
 20
-33.0833918887
  0
LWPOLYLINE
  5
9F
330
1F
100
AcDbEntity
  8
0
  6
Continuous
 62
     7
100
AcDbPolyline
 90
      102
 70
   128
 43
0.0
 10
-94.5776700974
 20
-32.8141611195
 10
-94.2635804511
 20
-32.8141611195
 10
-94.2635804511
 20
-32.8141611195
 10
-94.2635804511
 20
-34.0004591964
 10
-94.2635804511
 20
-34.0004591964
 10
-94.2628793293
 20
-34.1049263438
 10
-94.260775964
 20
-34.2002789079
 10
-94.2565692332
 20
-34.2879191323
 10
-94.2509602588
 20
-34.3671458951
 10
-94.2439490409
 20
-34.4372580746
 10
-94.2355355793
 20
-34.4996579144
 10
-94.2257198742
 20
-34.5529431708
 10
-94.2138008037
 20
-34.5985160874
 10
-94.2138008037
 20
-34.5985160874
 10
-94.1927671499
 20
-34.6553069528
 10
-94.168227887
 20
-34.709293331
 10
-94.1387807716
 20
-34.7597741002
 10
-94.1058280473
 20
-34.8074503823
 10
-94.0679674704
 20
-34.8523221772
 10
-94.0259001627
 20
-34.8936883631
 10
-93.980327246
 20
-34.9322500618
 10
-93.9298464768
 20
-34.9673061515
 10
-93.819770355
 20
-35.0262003823
 10
-93.6991774063
 20
-35.0689688118
 10
-93.5687687524
 20
-35.0942091964
 10
-93.4285443934
 20
-35.1026226579
 10
-93.4285443934
 20
-35.1026226579
 10
-93.2883200345
 20
-35.0942091964
 10
-93.1593136242
 20
-35.0696699336
 10
-93.0415251627
 20
-35.0283037477
 10
-92.9349546499
 20
-34.9708117605
 10
-92.8417054511
 20
-34.8999984592
 10
-92.7638809319
 20
-34.8179672092
 10
-92.7014810922
 20
-34.7261202541
 10
-92.6552070537
 20
-34.623756472
 10
-92.6552070537
 20
-34.623756472
 10
-92.6432879832
 20
-34.5816891644
 10
-92.6327711563
 20
-34.5298061515
 10
-92.6236565729
 20
-34.4674063118
 10
-92.6159442332
 20
-34.3944896451
 10
-92.6103352588
 20
-34.3110561515
 10
-92.6068296499
 20
-34.2178069528
 10
-92.6040251627
 20
-34.1140409272
 10
-92.6033240409
 20
-34.0004591964
 10
-92.6033240409
 20
-34.0004591964
 10
-92.6033240409
 20
-32.8141611195
 10
-92.6033240409
 20
-32.8141611195
 10
-92.2892214768
 20
-32.8141611195
 10
-92.2892214768
 20
-32.8141611195
 10
-92.2892214768
 20
-34.0593534272
 10
-92.2892214768
 20
-34.0593534272
 10
-92.2913248422
 20
-34.186256472
 10
-92.2969338165
 20
-34.3054471772
 10
-92.3067495216
 20
-34.4169255426
 10
-92.3207719575
 20
-34.5192893246
 10
-92.3383000024
 20
-34.6146418887
 10
-92.3600347781
 20
-34.7008798695
 10
-92.3859762845
 20
-34.7794055105
 10
-92.4154233999
 20
-34.8502188118
 10
-92.449077246
 20
-34.9147220169
 10
-92.4862367011
 20
-34.9757196131
 10
-92.5283040088
 20
-35.0332116002
 10
-92.5731758037
 20
-35.0871979785
 10
-92.6229554511
 20
-35.1376787477
 10
-92.6762407075
 20
-35.1839527861
 10
-92.7337326947
 20
-35.2274223374
 10
-92.7954314127
 20
-35.2666851579
 10
-92.8606357396
 20
-35.3017412477
 10
-92.9300467973
 20
-35.3325906067
 10
-93.0036645857
 20
-35.3578309913
 10
-93.0807879832
 20
-35.3788646451
 10
-93.1628192332
 20
-35.3956915682
 10
-93.2483560922
 20
-35.4076106387
 10
-93.3373985601
 20
-35.4146218567
 10
-93.4313488806
 20
-35.416725222
 10
-93.4313488806
 20
-35.416725222
 10
-93.5245980793
 20
-35.4146218567
 10
-93.6143416691
 20
-35.4076106387
 10
-93.6998785281
 20
-35.3956915682
 10
-93.7819097781
 20
-35.3788646451
 10
-93.8597342973
 20
-35.3578309913
 10
-93.9333520857
 20
-35.3325906067
 10
-94.0034642652
 20
-35.3017412477
 10
-94.069369714
 20
-35.2666851579
 10
-94.1310684319
 20
-35.2274223374
 10
-94.1892615409
 20
-35.1839527861
 10
-94.2432479191
 20
-35.1369776259
 10
-94.2930275665
 20
-35.0864968567
 10
-94.3386004832
 20
-35.0318093567
 10
-94.3799666691
 20
-34.9736162477
 10
-94.417827246
 20
-34.9119175297
 10
-94.4514810922
 20
-34.8467132028
 10
-94.4809282075
 20
-34.7751987797
 10
-94.506869714
 20
-34.6952708951
 10
-94.5286044896
 20
-34.6062284272
 10
-94.5461325345
 20
-34.5094736195
 10
-94.5601549704
 20
-34.4036042285
 10
-94.5699706755
 20
-34.2900224977
 10
-94.5755796499
 20
-34.1673261836
 10
-94.5776830152
 20
-34.0362164079
 10
-94.5776830152
 20
-34.0362164079
 10
-94.5776830152
 20
-32.8141611195
  0
LWPOLYLINE
  5
A0
330
1F
100
AcDbEntity
  8
0
  6
Continuous
 62
     7
100
AcDbPolyline
 90
       62
 70
   128
 43
0.0
 10
-91.5712714195
 20
-35.3718534272
 10
-91.5712727588
 20
-31.7821098374
 10
-91.5712727588
 20
-31.7821098374
 10
-91.2571701947
 20
-31.7821098374
 10
-91.2571701947
 20
-31.7821098374
 10
-91.2571701947
 20
-33.2783037477
 10
-91.2571701947
 20
-33.2783037477
 10
-91.1484963165
 20
-33.1584119208
 10
-91.034213464
 20
-33.0553470169
 10
-90.9129193934
 20
-32.9677067926
 10
-90.7860163486
 20
-32.8961923695
 10
-90.6521020857
 20
-32.8408037477
 10
-90.5125788486
 20
-32.8008398054
 10
-90.3660443934
 20
-32.7770016644
 10
-90.213900964
 20
-32.7692893246
 10
-90.213900964
 20
-32.7692893246
 10
-90.0785844575
 20
-32.7755994208
 10
-89.9474746819
 20
-32.7938285874
 10
-89.8219738806
 20
-32.8239768246
 10
-89.7013809319
 20
-32.8660441323
 10
-89.5863969575
 20
-32.9207316323
 10
-89.475619714
 20
-32.9873382028
 10
-89.3704514447
 20
-33.0658638438
 10
-89.2701910281
 20
-33.1570096772
 10
-89.1783440729
 20
-33.256568972
 10
-89.0991173101
 20
-33.3610361195
 10
-89.0318096178
 20
-33.4711122413
 10
-88.976420996
 20
-33.5860962156
 10
-88.9336525665
 20
-33.7059880426
 10
-88.9035043293
 20
-33.8314888438
 10
-88.8852751627
 20
-33.9618974977
 10
-88.8789650665
 20
-34.0979151259
 10
-88.8789650665
 20
-34.0979151259
 10
-88.8852751627
 20
-34.2318293887
 10
-88.9035043293
 20
-34.360835799
 10
-88.9343536883
 20
-34.4849343567
 10
-88.9778232396
 20
-34.6041250618
 10
-89.0332118614
 20
-34.7184079144
 10
-89.1012206755
 20
-34.8270817926
 10
-89.1811485601
 20
-34.93154894
 10
-89.273696637
 20
-35.0304071131
 10
-89.3746581755
 20
-35.1208518246
 10
-89.4812286883
 20
-35.1993774656
 10
-89.5920059319
 20
-35.2659840361
 10
-89.7083921499
 20
-35.3199704144
 10
-89.8296862204
 20
-35.3627388438
 10
-89.9558881434
 20
-35.392887081
 10
-90.0876990409
 20
-35.4104151259
 10
-90.2237166691
 20
-35.416725222
 10
-90.2237166691
 20
-35.416725222
 10
-90.3793657075
 20
-35.4090128823
 10
-90.5273024063
 20
-35.3858758631
 10
-90.6675267652
 20
-35.3466130426
 10
-90.8007399063
 20
-35.2926266644
 10
-90.9262407075
 20
-35.2211122413
 10
-91.0440291691
 20
-35.1320697733
 10
-91.1541052909
 20
-35.0240970169
 10
-91.2571701947
 20
-34.8985962156
 10
-91.2571701947
 20
-34.8985962156
 10
-91.2571701947
 20
-35.3718534272
 10
-91.2571701947
 20
-35.3718534272
 10
-91.5712727588
 20
-35.3718534272
  0
LWPOLYLINE
  5
A1
330
1F
100
AcDbEntity
  8
0
  6
Continuous
 62
     7
100
AcDbPolyline
 90
       56
 70
   128
 43
0.0
 10
-90.2264714241
 20
-35.1026226579
 10
-90.0891012845
 20
-35.0942091964
 10
-89.957290387
 20
-35.0696699336
 10
-89.831088464
 20
-35.0283037477
 10
-89.7097943934
 20
-34.9708117605
 10
-89.5976149063
 20
-34.8985962156
 10
-89.4973544896
 20
-34.8123582349
 10
-89.4090131434
 20
-34.7135000618
 10
-89.3332919896
 20
-34.6013205746
 10
-89.2715932716
 20
-34.4807276259
 10
-89.2281237204
 20
-34.3559279464
 10
-89.2014810922
 20
-34.2290249015
 10
-89.1930676306
 20
-34.0979151259
 10
-89.1930676306
 20
-34.0979151259
 10
-89.202182214
 20
-33.9668053502
 10
-89.2281237204
 20
-33.8385000618
 10
-89.2729955152
 20
-33.7137003823
 10
-89.3346942332
 20
-33.59170519
 10
-89.4111165088
 20
-33.4781234592
 10
-89.499457855
 20
-33.3778630426
 10
-89.6004193934
 20
-33.29092394
 10
-89.7133000024
 20
-33.2173061515
 10
-89.8338929511
 20
-33.1584119208
 10
-89.9593937524
 20
-33.1170457349
 10
-90.0884001627
 20
-33.0918053502
 10
-90.2216133037
 20
-33.0833918887
 10
-90.2216133037
 20
-33.0833918887
 10
-90.3576309319
 20
-33.0918053502
 10
-90.4894418293
 20
-33.1170457349
 10
-90.6184482396
 20
-33.1584119208
 10
-90.7439490409
 20
-33.2173061515
 10
-90.8603352588
 20
-33.2902228182
 10
-90.9626990409
 20
-33.3743574336
 10
-91.051040387
 20
-33.4704111195
 10
-91.1246581755
 20
-33.5783838759
 10
-91.1828512845
 20
-33.6954712156
 10
-91.2242174704
 20
-33.8188686515
 10
-91.2487567332
 20
-33.9499784272
 10
-91.2571701947
 20
-34.0880994208
 10
-91.2571701947
 20
-34.0880994208
 10
-91.2522623422
 20
-34.1939688118
 10
-91.2382399063
 20
-34.295631472
 10
-91.215102887
 20
-34.3930874015
 10
-91.1828512845
 20
-34.4856354785
 10
-91.1407839768
 20
-34.5739768246
 10
-91.0896020857
 20
-34.65811144
 10
-91.0293056114
 20
-34.7373382028
 10
-90.9598945537
 20
-34.8123582349
 10
-90.8834722781
 20
-34.880367049
 10
-90.8021421499
 20
-34.9392612797
 10
-90.7173064127
 20
-34.9890409272
 10
-90.6275628229
 20
-35.0297059913
 10
-90.5336125024
 20
-35.0619575938
 10
-90.4354554511
 20
-35.0843934913
 10
-90.3330916691
 20
-35.0984159272
 10
-90.2265211563
 20
-35.1026226579
  0
LWPOLYLINE
  5
A2
330
1F
100
AcDbEntity
  8
0
  6
Continuous
 62
     7
100
AcDbPolyline
 90
      100
 70
   128
 43
0.0
 10
-86.151599884
 20
-34.5641611195
 10
-85.8725548101
 20
-34.7106955746
 10
-85.8725548101
 20
-34.7106955746
 10
-85.941264746
 20
-34.8277829144
 10
-86.0148825345
 20
-34.9329511836
 10
-86.0934081755
 20
-35.0269015041
 10
-86.1775427909
 20
-35.1082316323
 10
-86.2665852588
 20
-35.1790449336
 10
-86.3605355793
 20
-35.2407436515
 10
-86.460795996
 20
-35.2940289079
 10
-86.5659642652
 20
-35.338199581
 10
-86.6774426306
 20
-35.372554549
 10
-86.795932214
 20
-35.3970938118
 10
-86.9214330152
 20
-35.4118173695
 10
-87.0539450345
 20
-35.416725222
 10
-87.0539450345
 20
-35.416725222
 10
-87.2011806114
 20
-35.4104151259
 10
-87.3400027268
 20
-35.3914848374
 10
-87.4704113806
 20
-35.3599343567
 10
-87.5931076947
 20
-35.3157636836
 10
-87.7066894255
 20
-35.2589728182
 10
-87.8125588165
 20
-35.1895617605
 10
-87.9107158678
 20
-35.1075305105
 10
-87.9997583357
 20
-35.0128790682
 10
-88.0796862204
 20
-34.9105152861
 10
-88.1490972781
 20
-34.8046458951
 10
-88.207290387
 20
-34.6952708951
 10
-88.2549666691
 20
-34.5823902861
 10
-88.292827246
 20
-34.46670519
 10
-88.3194698742
 20
-34.3482156067
 10
-88.3348945537
 20
-34.2255192926
 10
-88.3405035281
 20
-34.1000184913
 10
-88.3405035281
 20
-34.1000184913
 10
-88.3355956755
 20
-33.9822300297
 10
-88.3222743614
 20
-33.8672460554
 10
-88.2991373422
 20
-33.75576769
 10
-88.2668857396
 20
-33.6470938118
 10
-88.2255195537
 20
-33.5419255426
 10
-88.1750387845
 20
-33.4402628823
 10
-88.1147423101
 20
-33.3414047092
 10
-88.0460323742
 20
-33.2460521451
 10
-88.0460323742
 20
-33.2460521451
 10
-87.9485764447
 20
-33.1345737797
 10
-87.8434081755
 20
-33.0371178502
 10
-87.7305275665
 20
-32.955787722
 10
-87.609233496
 20
-32.8884800297
 10
-87.4802270857
 20
-32.8365970169
 10
-87.3435083357
 20
-32.79873644
 10
-87.199077246
 20
-32.7770016644
 10
-87.0462326947
 20
-32.7692893246
 10
-87.0462326947
 20
-32.7692893246
 10
-86.8891814127
 20
-32.7770016644
 10
-86.7398424704
 20
-32.8008398054
 10
-86.5989169896
 20
-32.8401026259
 10
-86.4664049704
 20
-32.8947901259
 10
-86.3416052909
 20
-32.9656034272
 10
-86.2252190729
 20
-33.0525425297
 10
-86.1165451947
 20
-33.1549063118
 10
-86.0162847781
 20
-33.2726947733
 10
-86.0162847781
 20
-33.2726947733
 10
-85.9517815729
 20
-33.3645417285
 10
-85.8963929511
 20
-33.4612965361
 10
-85.8487166691
 20
-33.56436144
 10
-85.8101549704
 20
-33.6723341964
 10
-85.7793056114
 20
-33.7859159272
 10
-85.756869714
 20
-33.9051066323
 10
-85.7435483999
 20
-34.0299063118
 10
-85.7379394255
 20
-34.1603149656
 10
-85.7379394255
 20
-34.1603149656
 10
-88.026400964
 20
-34.1603149656
 10
-88.026400964
 20
-34.1603149656
 10
-88.0200908678
 20
-34.2612765041
 10
-88.0060684319
 20
-34.3580313118
 10
-87.9836325345
 20
-34.4498782669
 10
-87.9527831755
 20
-34.5368173695
 10
-87.9149225986
 20
-34.6188486195
 10
-87.8686485601
 20
-34.6966731387
 10
-87.8139610601
 20
-34.7695898054
 10
-87.7515612204
 20
-34.8382997413
 10
-87.6828512845
 20
-34.8999984592
 10
-87.6106357396
 20
-34.9539848374
 10
-87.534213464
 20
-34.9995577541
 10
-87.4535844575
 20
-35.0367172092
 10
-87.3694498422
 20
-35.0654632028
 10
-87.281108496
 20
-35.0857957349
 10
-87.1892615409
 20
-35.0984159272
 10
-87.093207855
 20
-35.1026226579
 10
-87.093207855
 20
-35.1026226579
 10
-86.9992575345
 20
-35.099117049
 10
-86.9074105793
 20
-35.0878991002
 10
-86.816264746
 20
-35.0689688118
 10
-86.7265211563
 20
-35.0430273054
 10
-86.6402831755
 20
-35.0107757028
 10
-86.5610564127
 20
-34.9729151259
 10
-86.4888408678
 20
-34.9308478182
 10
-86.4229354191
 20
-34.8838726579
 10
-86.3591333357
 20
-34.8270817926
 10
-86.2925267652
 20
-34.7541651259
 10
-86.2231157075
 20
-34.6672260233
 10
-86.1516012845
 20
-34.5641611195
  0
LWPOLYLINE
  5
A3
330
1F
100
AcDbEntity
  8
0
  6
Continuous
 62
     7
100
AcDbPolyline
 90
       33
 70
   128
 43
0.0
 10
-86.0520005226
 20
-33.8462124015
 10
-86.0892014447
 20
-33.7221138438
 10
-86.1347743614
 20
-33.6113366002
 10
-86.187358496
 20
-33.5138806708
 10
-86.2476549704
 20
-33.4297460554
 10
-86.3163649063
 20
-33.3554271451
 10
-86.3962927909
 20
-33.2888205746
 10
-86.4860363806
 20
-33.2299263438
 10
-86.5862967973
 20
-33.1787444528
 10
-86.6928673101
 20
-33.1366771451
 10
-86.8029434319
 20
-33.1072300297
 10
-86.9151229191
 20
-33.0890008631
 10
-87.0301068934
 20
-33.0833918887
 10
-87.0301068934
 20
-33.0833918887
 10
-87.124057214
 20
-33.0868974977
 10
-87.2152030473
 20
-33.0981154464
 10
-87.3028432716
 20
-33.1170457349
 10
-87.3862767652
 20
-33.1429872413
 10
-87.4676068934
 20
-33.1773422092
 10
-87.5447302909
 20
-33.2180072733
 10
-87.6183480793
 20
-33.267085799
 10
-87.6891613806
 20
-33.3231755426
 10
-87.6891613806
 20
-33.3231755426
 10
-87.7382399063
 20
-33.369449581
 10
-87.7838128229
 20
-33.4213325938
 10
-87.8265812524
 20
-33.4781234592
 10
-87.8658440729
 20
-33.540523299
 10
-87.9023024063
 20
-33.6092332349
 10
-87.9359562524
 20
-33.6828510233
 10
-87.9661044896
 20
-33.7613766644
 10
-87.9934482396
 20
-33.8462124015
 10
-87.9934482396
 20
-33.8462124015
 10
-86.0520419896
 20
-33.8462124015
  0
LWPOLYLINE
  5
A4
330
1F
100
AcDbEntity
  8
0
  6
Continuous
 62
     7
100
AcDbPolyline
 90
       53
 70
   128
 43
0.0
 10
-85.1994752884
 20
-32.8141611195
 10
-84.8853753229
 20
-32.8141611195
 10
-84.8853753229
 20
-32.8141611195
 10
-84.8853753229
 20
-33.1906635233
 10
-84.8853753229
 20
-33.1906635233
 10
-84.8138608999
 20
-33.0868974977
 10
-84.7402431114
 20
-32.9985561515
 10
-84.6652230793
 20
-32.9263406067
 10
-84.5880996819
 20
-32.8688486195
 10
-84.5088729191
 20
-32.8253790682
 10
-84.4275427909
 20
-32.7938285874
 10
-84.3455115409
 20
-32.7755994208
 10
-84.2613769255
 20
-32.7692893246
 10
-84.2613769255
 20
-32.7692893246
 10
-84.1961725986
 20
-32.774898299
 10
-84.1288649063
 20
-32.7910241002
 10
-84.0594538486
 20
-32.8183678502
 10
-83.9879394255
 20
-32.856929549
 10
-83.9879394255
 20
-32.856929549
 10
-84.160415387
 20
-33.1289648054
 10
-84.160415387
 20
-33.1289648054
 10
-84.2059883037
 20
-33.1093333951
 10
-84.2480556114
 20
-33.0946098374
 10
-84.2866173101
 20
-33.0861963759
 10
-84.3209722781
 20
-33.0833918887
 10
-84.3209722781
 20
-33.0833918887
 10
-84.3959923101
 20
-33.0918053502
 10
-84.4703112204
 20
-33.1170457349
 10
-84.5425267652
 20
-33.1591130426
 10
-84.6140411883
 20
-33.2180072733
 10
-84.6483961563
 20
-33.2537644849
 10
-84.6806477588
 20
-33.294429549
 10
-84.7100948742
 20
-33.3393013438
 10
-84.738139746
 20
-33.3890809913
 10
-84.7640812524
 20
-33.4437684913
 10
-84.7879193934
 20
-33.502662722
 10
-84.8096541691
 20
-33.5664648054
 10
-84.8292855793
 20
-33.6344736195
 10
-84.8292855793
 20
-33.6344736195
 10
-84.8426068934
 20
-33.6954712156
 10
-84.8538248422
 20
-33.7704912477
 10
-84.8636405473
 20
-33.8595337156
 10
-84.871352887
 20
-33.9625986195
 10
-84.8776629832
 20
-34.0789848374
 10
-84.881869714
 20
-34.2093934913
 10
-84.8846742011
 20
-34.353824581
 10
-84.8853753229
 20
-34.5122781067
 10
-84.8853753229
 20
-34.5122781067
 10
-84.8853753229
 20
-35.3718534272
 10
-84.8853753229
 20
-35.3718534272
 10
-85.199477887
 20
-35.3718534272
 10
-85.199477887
 20
-35.3718534272
 10
-85.199477887
 20
-32.8141611195
  0
LWPOLYLINE
  5
A5
330
1F
100
AcDbEntity
  8
0
  6
Continuous
 62
     7
100
AcDbPolyline
 90
       62
 70
   128
 43
0.0
 10
-118.6738014221
 20
-38.7051867605
 10
-117.9909442332
 20
-38.7051867605
 10
-117.9909442332
 20
-38.7051867605
 10
-117.8906838165
 20
-38.7065890041
 10
-117.796733496
 20
-38.7114968567
 10
-117.7083921499
 20
-38.7192091964
 10
-117.6263608999
 20
-38.7304271451
 10
-117.5499386242
 20
-38.744449581
 10
-117.4798264447
 20
-38.7612765041
 10
-117.4153232396
 20
-38.7816090361
 10
-117.3571301306
 20
-38.8054471772
 10
-117.2519618614
 20
-38.8622380426
 10
-117.1587126627
 20
-38.9316491002
 10
-117.0773825345
 20
-39.0157837156
 10
-117.007270355
 20
-39.1125385233
 10
-116.9511806114
 20
-39.2191090361
 10
-116.9112166691
 20
-39.3305874015
 10
-116.8866774063
 20
-39.4490769849
 10
-116.8789650665
 20
-39.5724744208
 10
-116.8789650665
 20
-39.5724744208
 10
-116.8852751627
 20
-39.6881595169
 10
-116.9049065729
 20
-39.7982356387
 10
-116.9371581755
 20
-39.9034039079
 10
-116.9820299704
 20
-40.0029632028
 10
-117.0395219575
 20
-40.0948101579
 10
-117.1082318934
 20
-40.1782436515
 10
-117.1902631434
 20
-40.25186144
 10
-117.2835123422
 20
-40.3170657669
 10
-117.2835123422
 20
-40.3170657669
 10
-117.1650227588
 20
-40.364742049
 10
-117.0605556114
 20
-40.4166250618
 10
-116.9715131434
 20
-40.4727148054
 10
-116.8964931114
 20
-40.5330112797
 10
-116.8319899063
 20
-40.5982156067
 10
-116.7759001627
 20
-40.6690289079
 10
-116.726821637
 20
-40.747554549
 10
-116.6854554511
 20
-40.8316891644
 10
-116.6525027268
 20
-40.9214327541
 10
-116.6286645857
 20
-41.013980831
 10
-116.6146421499
 20
-41.1114367605
 10
-116.6097342973
 20
-41.2116971772
 10
-116.6097342973
 20
-41.2116971772
 10
-116.6146421499
 20
-41.3140609592
 10
-116.6286645857
 20
-41.4122180105
 10
-116.6525027268
 20
-41.506168331
 10
-116.6854554511
 20
-41.5959119208
 10
-116.7282238806
 20
-41.6821499015
 10
-116.7808080152
 20
-41.7648822733
 10
-116.8425067332
 20
-41.8427067926
 10
-116.9133200345
 20
-41.9170257028
 10
-116.9925467973
 20
-41.9843333951
 10
-117.0780836563
 20
-42.0432276259
 10
-117.1699306114
 20
-42.0923061515
 10
-117.2680876627
 20
-42.1329712156
 10
-117.3732559319
 20
-42.1645216964
 10
-117.4847342973
 20
-42.1869575938
 10
-117.6025227588
 20
-42.2009800297
 10
-117.7273224383
 20
-42.2051867605
 10
-117.7273224383
 20
-42.2051867605
 10
-118.6738368614
 20
-42.2051867605
 10
-118.6738368614
 20
-42.2051867605
 10
-118.6738368614
 20
-38.7051867605
  0
LWPOLYLINE
  5
A6
330
1F
100
AcDbEntity
  8
0
  6
Continuous
 62
     7
100
AcDbPolyline
 90
       40
 70
   128
 43
0.0
 10
-118.3596849442
 20
-39.0641611195
 10
-118.3597342973
 20
-40.1859559913
 10
-118.3597342973
 20
-40.1859559913
 10
-118.148696637
 20
-40.1859559913
 10
-118.148696637
 20
-40.1859559913
 10
-118.0561485601
 20
-40.1845537477
 10
-117.9699105793
 20
-40.1817492605
 10
-117.8899826947
 20
-40.1761402861
 10
-117.8156637845
 20
-40.1691290682
 10
-117.749057214
 20
-40.1593133631
 10
-117.6880596178
 20
-40.1473942926
 10
-117.6333721178
 20
-40.1340729785
 10
-117.584994714
 20
-40.1179471772
 10
-117.499457855
 20
-40.0793854785
 10
-117.4230355793
 20
-40.0303069528
 10
-117.3564290088
 20
-39.9721138438
 10
-117.2989370216
 20
-39.9041050297
 10
-117.2526629832
 20
-39.8290849977
 10
-117.2197102588
 20
-39.7491571131
 10
-117.1993777268
 20
-39.6664247413
 10
-117.1930676306
 20
-39.5787845169
 10
-117.1930676306
 20
-39.5787845169
 10
-117.1958721178
 20
-39.5205914079
 10
-117.2042855793
 20
-39.4652027861
 10
-117.2183080152
 20
-39.4133197733
 10
-117.2372383037
 20
-39.3642412477
 10
-117.2624786883
 20
-39.318668331
 10
-117.2926269255
 20
-39.2766010233
 10
-117.3290852588
 20
-39.2373382028
 10
-117.3704514447
 20
-39.2015809913
 10
-117.4181277268
 20
-39.1693293887
 10
-117.472114105
 20
-39.1412845169
 10
-117.5324105793
 20
-39.1181474977
 10
-117.5997182716
 20
-39.0985160874
 10
-117.6733360601
 20
-39.0837925297
 10
-117.7532639447
 20
-39.072574581
 10
-117.8402030473
 20
-39.0662644849
 10
-117.933452246
 20
-39.0641611195
 10
-117.933452246
 20
-39.0641611195
 10
-118.3597342973
 20
-39.0641611195
  0
LWPOLYLINE
  5
A7
330
1F
100
AcDbEntity
  8
0
  6
Continuous
 62
     7
100
AcDbPolyline
 90
       45
 70
   128
 43
0.0
 10
-118.3596849442
 20
-40.5449303502
 10
-118.3597342973
 20
-41.8462124015
 10
-118.3597342973
 20
-41.8462124015
 10
-117.9124185922
 20
-41.8462124015
 10
-117.9124185922
 20
-41.8462124015
 10
-117.8163649063
 20
-41.8448101579
 10
-117.7273224383
 20
-41.8420056708
 10
-117.6452911883
 20
-41.8363966964
 10
-117.5688689127
 20
-41.8279832349
 10
-117.5001589768
 20
-41.8181675297
 10
-117.4370580152
 20
-41.8055473374
 10
-117.3809682716
 20
-41.7908237797
 10
-117.331889746
 20
-41.7739968567
 10
-117.2442495216
 20
-41.7326306708
 10
-117.1657238806
 20
-41.6807476579
 10
-117.0963128229
 20
-41.61904894
 10
-117.0360163486
 20
-41.5468333951
 10
-116.9869378229
 20
-41.4676066323
 10
-116.9518817332
 20
-41.3855753823
 10
-116.9308480793
 20
-41.3000385233
 10
-116.9238368614
 20
-41.2116971772
 10
-116.9238368614
 20
-41.2116971772
 10
-116.9259402268
 20
-41.1563085554
 10
-116.9336525665
 20
-41.1023221772
 10
-116.945571637
 20
-41.0504391644
 10
-116.9616974383
 20
-40.9999583951
 10
-116.983432214
 20
-40.9522821131
 10
-117.0100748422
 20
-40.9053069528
 10
-117.0409242011
 20
-40.8604351579
 10
-117.0766814127
 20
-40.8176667285
 10
-117.1601149063
 20
-40.7398422092
 10
-117.2582719575
 20
-40.6753390041
 10
-117.3704514447
 20
-40.6241571131
 10
-117.4966533678
 20
-40.5862965361
 10
-117.4966533678
 20
-40.5862965361
 10
-117.5478352588
 20
-40.576480831
 10
-117.6081317332
 20
-40.5680673695
 10
-117.6768416691
 20
-40.5610561515
 10
-117.7539650665
 20
-40.5554471772
 10
-117.8402030473
 20
-40.5505393246
 10
-117.9355556114
 20
-40.5477348374
 10
-118.039321637
 20
-40.545631472
 10
-118.1515011242
 20
-40.5449303502
 10
-118.1515011242
 20
-40.5449303502
 10
-118.3597342973
 20
-40.5449303502
  0
LWPOLYLINE
  5
A8
330
1F
100
AcDbEntity
  8
0
  6
Continuous
 62
     7
100
AcDbPolyline
 90
      100
 70
   128
 43
0.0
 10
-113.8823628426
 20
-41.3974944528
 10
-113.6033240409
 20
-41.5440289079
 10
-113.6033240409
 20
-41.5440289079
 10
-113.6720339768
 20
-41.6611162477
 10
-113.7456517652
 20
-41.7662845169
 10
-113.8241774063
 20
-41.8602348374
 10
-113.9083120216
 20
-41.9415649656
 10
-113.9973544896
 20
-42.0123782669
 10
-114.0913048101
 20
-42.0740769849
 10
-114.1915652268
 20
-42.1273622413
 10
-114.296733496
 20
-42.1715329144
 10
-114.4082118614
 20
-42.2058878823
 10
-114.5267014447
 20
-42.2304271451
 10
-114.652202246
 20
-42.2451507028
 10
-114.7847142652
 20
-42.2500585554
 10
-114.7847142652
 20
-42.2500585554
 10
-114.9319498422
 20
-42.2437484592
 10
-115.0707719575
 20
-42.2248181708
 10
-115.2011806114
 20
-42.19326769
 10
-115.3238769255
 20
-42.1490970169
 10
-115.4374586563
 20
-42.0923061515
 10
-115.5433280473
 20
-42.0228950938
 10
-115.6414850986
 20
-41.9408638438
 10
-115.7305275665
 20
-41.8462124015
 10
-115.8104554511
 20
-41.7438486195
 10
-115.8798665088
 20
-41.6379792285
 10
-115.9380596178
 20
-41.5286042285
 10
-115.9857358999
 20
-41.4157236195
 10
-116.0235964768
 20
-41.3000385233
 10
-116.050239105
 20
-41.18154894
 10
-116.0656637845
 20
-41.0588526259
 10
-116.0712727588
 20
-40.9333518246
 10
-116.0712727588
 20
-40.9333518246
 10
-116.0663649063
 20
-40.8155633631
 10
-116.0530435922
 20
-40.7005793887
 10
-116.0299065729
 20
-40.5891010233
 10
-115.9976549704
 20
-40.4804271451
 10
-115.9562887845
 20
-40.3752588759
 10
-115.9058080152
 20
-40.2735962156
 10
-115.8455115409
 20
-40.1747380426
 10
-115.776801605
 20
-40.0793854785
 10
-115.776801605
 20
-40.0793854785
 10
-115.6793456755
 20
-39.9679071131
 10
-115.5741774063
 20
-39.8704511836
 10
-115.4612967973
 20
-39.7891210554
 10
-115.3400027268
 20
-39.7218133631
 10
-115.2109963165
 20
-39.6699303502
 10
-115.0742775665
 20
-39.6320697733
 10
-114.9298464768
 20
-39.6103349977
 10
-114.7770019255
 20
-39.6026226579
 10
-114.7770019255
 20
-39.6026226579
 10
-114.6199506434
 20
-39.6103349977
 10
-114.4706117011
 20
-39.6341731387
 10
-114.3296862204
 20
-39.6734359592
 10
-114.1971742011
 20
-39.7281234592
 10
-114.0723745216
 20
-39.7989367605
 10
-113.9559883037
 20
-39.8858758631
 10
-113.8473144255
 20
-39.9882396451
 10
-113.7470540088
 20
-40.1060281067
 10
-113.7470540088
 20
-40.1060281067
 10
-113.6825508037
 20
-40.1978750618
 10
-113.6271621819
 20
-40.2946298695
 10
-113.5794858999
 20
-40.3976947733
 10
-113.5409242011
 20
-40.5056675297
 10
-113.5100748422
 20
-40.6192492605
 10
-113.4876389447
 20
-40.7384399656
 10
-113.4743176306
 20
-40.8632396451
 10
-113.4687086563
 20
-40.993648299
 10
-113.4687086563
 20
-40.993648299
 10
-115.7571701947
 20
-40.993648299
 10
-115.7571701947
 20
-40.993648299
 10
-115.7508600986
 20
-41.0946098374
 10
-115.7368376627
 20
-41.1913646451
 10
-115.7144017652
 20
-41.2832116002
 10
-115.6835524063
 20
-41.3701507028
 10
-115.6456918293
 20
-41.4521819528
 10
-115.5994177909
 20
-41.530006472
 10
-115.5447302909
 20
-41.6029231387
 10
-115.4823304511
 20
-41.6716330746
 10
-115.4136205152
 20
-41.7333317926
 10
-115.3414049704
 20
-41.7873181708
 10
-115.2649826947
 20
-41.8328910874
 10
-115.1843536883
 20
-41.8700505426
 10
-115.1002190729
 20
-41.8987965361
 10
-115.0118777268
 20
-41.9191290682
 10
-114.9200307716
 20
-41.9317492605
 10
-114.8239770857
 20
-41.9359559913
 10
-114.8239770857
 20
-41.9359559913
 10
-114.7300267652
 20
-41.9324503823
 10
-114.6381798101
 20
-41.9212324336
 10
-114.5470339768
 20
-41.9023021451
 10
-114.457290387
 20
-41.8763606387
 10
-114.3710524063
 20
-41.8441090361
 10
-114.2918256434
 20
-41.8062484592
 10
-114.2196100986
 20
-41.7641811515
 10
-114.1537046499
 20
-41.7172059913
 10
-114.0899025665
 20
-41.6604151259
 10
-114.023295996
 20
-41.5874984592
 10
-113.9538849383
 20
-41.5005593567
 10
-113.8823705152
 20
-41.3974944528
  0
LWPOLYLINE
  5
A9
330
1F
100
AcDbEntity
  8
0
  6
Continuous
 62
     7
100
AcDbPolyline
 90
       33
 70
   128
 43
0.0
 10
-113.7827634811
 20
-40.6795457349
 10
-113.8199706755
 20
-40.5554471772
 10
-113.8655435922
 20
-40.4446699336
 10
-113.9181277268
 20
-40.3472140041
 10
-113.9784242011
 20
-40.2630793887
 10
-114.047134137
 20
-40.1887604785
 10
-114.1270620216
 20
-40.1221539079
 10
-114.2168056114
 20
-40.0632596772
 10
-114.3170660281
 20
-40.0120777861
 10
-114.4236365409
 20
-39.9700104785
 10
-114.5337126627
 20
-39.9405633631
 10
-114.6458921499
 20
-39.9223341964
 10
-114.7608761242
 20
-39.916725222
 10
-114.7608761242
 20
-39.916725222
 10
-114.8548264447
 20
-39.920230831
 10
-114.9459722781
 20
-39.9314487797
 10
-115.0336125024
 20
-39.9503790682
 10
-115.117045996
 20
-39.9763205746
 10
-115.1983761242
 20
-40.0106755426
 10
-115.2754995216
 20
-40.0513406067
 10
-115.3491173101
 20
-40.1004191323
 10
-115.4199306114
 20
-40.1565088759
 10
-115.4199306114
 20
-40.1565088759
 10
-115.469009137
 20
-40.2027829144
 10
-115.5145820537
 20
-40.2546659272
 10
-115.5573504832
 20
-40.3114567926
 10
-115.5966133037
 20
-40.3738566323
 10
-115.633071637
 20
-40.4425665682
 10
-115.6667254832
 20
-40.5161843567
 10
-115.6968737204
 20
-40.5947099977
 10
-115.7242174704
 20
-40.6795457349
 10
-115.7242174704
 20
-40.6795457349
 10
-113.7828112204
 20
-40.6795457349
  0
LWPOLYLINE
  5
AA
330
1F
100
AcDbEntity
  8
0
  6
Continuous
 62
     7
100
AcDbPolyline
 90
        8
 70
   128
 43
0.0
 10
-112.8853559494
 20
-38.6154431708
 10
-112.5712727588
 20
-38.6154431708
 10
-112.5712727588
 20
-38.6154431708
 10
-112.5712727588
 20
-42.2051867605
 10
-112.5712727588
 20
-42.2051867605
 10
-112.8853753229
 20
-42.2051867605
 10
-112.8853753229
 20
-42.2051867605
 10
-112.8853753229
 20
-38.6154431708
  0
LWPOLYLINE
  5
AB
330
1F
100
AcDbEntity
  8
0
  6
Continuous
 62
     7
100
AcDbPolyline
 90
       12
 70
   128
 43
0.0
 10
-111.3337874413
 20
-38.7051867605
 10
-110.6866573742
 20
-38.7051867605
 10
-110.6866573742
 20
-38.7051867605
 10
-110.6866573742
 20
-42.2051867605
 10
-110.6866573742
 20
-42.2051867605
 10
-111.0007599383
 20
-42.2051867605
 10
-111.0007599383
 20
-42.2051867605
 10
-111.0007599383
 20
-39.0641611195
 10
-111.0007599383
 20
-39.0641611195
 10
-111.5392214768
 20
-39.0641611195
 10
-111.5392214768
 20
-39.0641611195
 10
-111.3337927909
 20
-38.7051867605
  0
LWPOLYLINE
  5
AC
330
1F
100
AcDbEntity
  8
0
  6
Continuous
 62
     7
100
AcDbPolyline
 90
       12
 70
   128
 43
0.0
 10
-109.1609597206
 20
-38.7051867605
 10
-107.0071701947
 20
-38.7051867605
 10
-107.0071701947
 20
-38.7051867605
 10
-108.8469137845
 20
-42.2949303502
 10
-108.8469137845
 20
-42.2949303502
 10
-109.1182479191
 20
-42.1455914079
 10
-109.1182479191
 20
-42.1455914079
 10
-107.5386205152
 20
-39.0641611195
 10
-107.5386205152
 20
-39.0641611195
 10
-109.1610163486
 20
-39.0641611195
 10
-109.1610163486
 20
-39.0641611195
 10
-109.1610163486
 20
-38.7051867605
  0
LWPOLYLINE
  5
AD
330
1F
100
AcDbEntity
  8
0
  6
Continuous
 62
     7
100
AcDbPolyline
 90
       62
 70
   128
 43
0.0
 10
-103.8661003113
 20
-39.6474944528
 10
-103.8661445537
 20
-42.2051867605
 10
-103.8661445537
 20
-42.2051867605
 10
-104.1802471178
 20
-42.2051867605
 10
-104.1802471178
 20
-42.2051867605
 10
-104.1802471178
 20
-41.7627789079
 10
-104.1802471178
 20
-41.7627789079
 10
-104.288920996
 20
-41.8805673695
 10
-104.4032038486
 20
-41.9815289079
 10
-104.5251990409
 20
-42.0656635233
 10
-104.6528032075
 20
-42.1329712156
 10
-104.7867174704
 20
-42.1841531067
 10
-104.9262407075
 20
-42.22061144
 10
-105.0727751627
 20
-42.2430473374
 10
-105.2249185922
 20
-42.2500585554
 10
-105.2249185922
 20
-42.2500585554
 10
-105.3602350986
 20
-42.2437484592
 10
-105.4906437524
 20
-42.2255192926
 10
-105.6161445537
 20
-42.1953710554
 10
-105.7367375024
 20
-42.1533037477
 10
-105.8517214768
 20
-42.0986162477
 10
-105.9624987204
 20
-42.0320096772
 10
-106.0676669896
 20
-41.9534840361
 10
-106.1679274063
 20
-41.8623382028
 10
-106.2597743614
 20
-41.7627789079
 10
-106.3390011242
 20
-41.6583117605
 10
-106.4056076947
 20
-41.5482356387
 10
-106.4609963165
 20
-41.4325505426
 10
-106.503764746
 20
-41.3119575938
 10
-106.5339129832
 20
-41.1864567926
 10
-106.5521421499
 20
-41.0553470169
 10
-106.558452246
 20
-40.9193293887
 10
-106.558452246
 20
-40.9193293887
 10
-106.5521421499
 20
-40.7861162477
 10
-106.5339129832
 20
-40.6571098374
 10
-106.5030636242
 20
-40.5337124015
 10
-106.4595940729
 20
-40.4145216964
 10
-106.4042054511
 20
-40.3009399656
 10
-106.3368977588
 20
-40.1922660874
 10
-106.2569698742
 20
-40.08779894
 10
-106.1644217973
 20
-39.9889407669
 10
-106.0634602588
 20
-39.8984960554
 10
-105.956889746
 20
-39.8199704144
 10
-105.8461125024
 20
-39.7533638438
 10
-105.7297262845
 20
-39.6993774656
 10
-105.608432214
 20
-39.6566090361
 10
-105.4822302909
 20
-39.626460799
 10
-105.3511205152
 20
-39.6089327541
 10
-105.215102887
 20
-39.6026226579
 10
-105.215102887
 20
-39.6026226579
 10
-105.0587527268
 20
-39.6103349977
 10
-104.9101149063
 20
-39.6334720169
 10
-104.7691894255
 20
-39.6727348374
 10
-104.6359762845
 20
-39.7267212156
 10
-104.5104754832
 20
-39.7975345169
 10
-104.3919858999
 20
-39.8872781067
 10
-104.2826108999
 20
-39.9945497413
 10
-104.1802471178
 20
-40.1207516644
 10
-104.1802471178
 20
-40.1207516644
 10
-104.1802471178
 20
-39.6474944528
 10
-104.1802471178
 20
-39.6474944528
 10
-103.8661445537
 20
-39.6474944528
  0
LWPOLYLINE
  5
AE
330
1F
100
AcDbEntity
  8
0
  6
Continuous
 62
     7
100
AcDbPolyline
 90
       56
 70
   128
 43
0.0
 10
-105.2108407021
 20
-39.916725222
 10
-105.3483160281
 20
-39.9251386836
 10
-105.4801269255
 20
-39.9496779464
 10
-105.6063288486
 20
-39.9910441323
 10
-105.7276229191
 20
-40.0485361195
 10
-105.8398024063
 20
-40.1207516644
 10
-105.9400628229
 20
-40.2069896451
 10
-106.0284041691
 20
-40.3058478182
 10
-106.1048264447
 20
-40.4187284272
 10
-106.1658240409
 20
-40.5393213759
 10
-106.2092935922
 20
-40.6641210554
 10
-106.2359362204
 20
-40.791725222
 10
-106.2443496819
 20
-40.9228349977
 10
-106.2443496819
 20
-40.9228349977
 10
-106.2352350986
 20
-41.0532436515
 10
-106.2092935922
 20
-41.1808478182
 10
-106.1651229191
 20
-41.3056474977
 10
-106.1034242011
 20
-41.42764269
 10
-106.0263008037
 20
-41.5412244208
 10
-105.9379594575
 20
-41.6414848374
 10
-105.8369979191
 20
-41.72842394
 10
-105.7241173101
 20
-41.8020417285
 10
-105.6028232396
 20
-41.8609359592
 10
-105.4773224383
 20
-41.9023021451
 10
-105.3476149063
 20
-41.9275425297
 10
-105.2137006434
 20
-41.9359559913
 10
-105.2137006434
 20
-41.9359559913
 10
-105.0776830152
 20
-41.9275425297
 10
-104.945170996
 20
-41.9030032669
 10
-104.8168657075
 20
-41.861637081
 10
-104.6920660281
 20
-41.803443972
 10
-104.5763809319
 20
-41.7312284272
 10
-104.4740171499
 20
-41.6470938118
 10
-104.3870780473
 20
-41.5510401259
 10
-104.3134602588
 20
-41.4437684913
 10
-104.2552671499
 20
-41.3266811515
 10
-104.2131998422
 20
-41.201881472
 10
-104.1886605793
 20
-41.0707716964
 10
-104.1802471178
 20
-40.931949581
 10
-104.1802471178
 20
-40.931949581
 10
-104.1851549704
 20
-40.82608019
 10
-104.1991774063
 20
-40.7244175297
 10
-104.2223144255
 20
-40.6269616002
 10
-104.2545660281
 20
-40.5344135233
 10
-104.2966333357
 20
-40.4460721772
 10
-104.3478152268
 20
-40.3619375618
 10
-104.4081117011
 20
-40.282710799
 10
-104.4782238806
 20
-40.2076907669
 10
-104.5546461563
 20
-40.1396819528
 10
-104.6352751627
 20
-40.0800866002
 10
-104.7208120216
 20
-40.0303069528
 10
-104.8098544896
 20
-39.9896418887
 10
-104.9038048101
 20
-39.9573902861
 10
-105.0019618614
 20
-39.9349543887
 10
-105.1043256434
 20
-39.9209319528
 10
-105.2108961563
 20
-39.916725222
  0
CIRCLE
  5
AF
330
1F
100
AcDbEntity
  8
0
  6
Continuous
 62
     7
370
    25
100
AcDbCircle
 10
25.525
 20
-26.5
 30
0.0
 40
17.75
  0
CIRCLE
  5
B4
330
1F
100
AcDbEntity
  8
0
  6
Continuous
 62
     7
370
    25
100
AcDbCircle
 10
129.5
 20
67.0
 30
0.0
 40
1.65000000000002
  0
CIRCLE
  5
B5
330
1F
100
AcDbEntity
  8
0
  6
Continuous
 62
     7
370
    25
100
AcDbCircle
 10
-129.5
 20
67.0
 30
0.0
 40
1.649999999999977
  0
CIRCLE
  5
B6
330
1F
100
AcDbEntity
  8
0
  6
Continuous
 62
     7
370
    25
100
AcDbCircle
 10
129.5
 20
-67.0
 30
0.0
 40
1.650000000000048
  0
CIRCLE
  5
B7
330
1F
100
AcDbEntity
  8
0
  6
Continuous
 62
     7
370
    25
100
AcDbCircle
 10
-129.5
 20
-67.0
 30
0.0
 40
1.650000000000006
  0
LINE
  5
C0
330
1F
100
AcDbEntity
  8
0
  6
Continuous
 62
     7
370
    25
100
AcDbLine
 10
-51.375
 20
-45.15
 30
0.0
 11
-4.375
 21
-45.15
 31
0.0
  0
LINE
  5
C1
330
1F
100
AcDbEntity
  8
0
  6
Continuous
 62
     7
370
    25
100
AcDbLine
 10
-4.375
 20
-45.15
 30
0.0
 11
-4.375
 21
-7.15
 31
0.0
  0
LINE
  5
C2
330
1F
100
AcDbEntity
  8
0
  6
Continuous
 62
     7
370
    25
100
AcDbLine
 10
-4.375
 20
-7.15
 30
0.0
 11
-51.375
 21
-7.15
 31
0.0
  0
LINE
  5
C3
330
1F
100
AcDbEntity
  8
0
  6
Continuous
 62
     7
370
    25
100
AcDbLine
 10
-51.375
 20
-7.15
 30
0.0
 11
-51.375
 21
-45.15
 31
0.0
  0
LINE
  5
C4
330
1F
100
AcDbEntity
  8
0
  6
Continuous
 62
     7
370
    25
100
AcDbLine
 10
-137.5
 20
-75.0
 30
0.0
 11
137.5
 21
-75.0
 31
0.0
  0
LINE
  5
C5
330
1F
100
AcDbEntity
  8
0
  6
Continuous
 62
     7
370
    25
100
AcDbLine
 10
-137.5
 20
75.0
 30
0.0
 11
-137.5
 21
-75.0
 31
0.0
  0
LINE
  5
C6
330
1F
100
AcDbEntity
  8
0
  6
Continuous
 62
     7
370
    25
100
AcDbLine
 10
137.5
 20
75.0
 30
0.0
 11
-137.5
 21
75.0
 31
0.0
  0
LINE
  5
C7
330
1F
100
AcDbEntity
  8
0
  6
Continuous
 62
     7
370
    25
100
AcDbLine
 10
137.5
 20
-75.0
 30
0.0
 11
137.5
 21
75.0
 31
0.0
  0
LINE
  5
C8
330
1F
100
AcDbEntity
  8
0
  6
Continuous
 62
     7
370
    25
100
AcDbLine
 10
-90.125
 20
-0.5
 30
0.0
 11
89.375
 21
-0.5
 31
0.0
  0
LINE
  5
C9
330
1F
100
AcDbEntity
  8
0
  6
Continuous
 62
     7
370
    25
100
AcDbLine
 10
89.375
 20
-0.5
 30
0.0
 11
89.375
 21
58.5
 31
0.0
  0
LINE
  5
CA
330
1F
100
AcDbEntity
  8
0
  6
Continuous
 62
     7
370
    25
100
AcDbLine
 10
89.375
 20
58.5
 30
0.0
 11
-90.125
 21
58.5
 31
0.0
  0
LINE
  5
CB
330
1F
100
AcDbEntity
  8
0
  6
Continuous
 62
     7
370
    25
100
AcDbLine
 10
-90.125
 20
58.5
 30
0.0
 11
-90.125
 21
-0.5
 31
0.0
  0
MTEXT
  5
CD
330
1F
100
AcDbEntity
  8
0
  6
Continuous
 62
     7
100
AcDbMText
 10
-137.5
 20
-76.0195663917
 30
0.0
 40
4.83362
 41
0.0
 71
     1
 72
     1
  1
SOLIDWORKS Lehrprodukt - Nur fr Lehrzwecke.
  7
SLDTEXTSTYLE0
 73
     1
 44
1.0
  0
ENDSEC
  0
SECTION
  2
OBJECTS
  0
DICTIONARY
  5
C
330
0
100
AcDbDictionary
281
     1
  3
ACAD_GROUP
350
D
  3
ACAD_LAYOUT
350
1A
  3
ACAD_MLINESTYLE
350
17
  3
ACAD_PLOTSETTINGS
350
19
  3
ACAD_PLOTSTYLENAME
350
E
  3
ACAD_SCALELIST
350
47
  0
DICTIONARY
  5
D
102
{ACAD_REACTORS
330
C
102
}
330
C
100
AcDbDictionary
281
     1
  0
DICTIONARY
  5
1A
102
{ACAD_REACTORS
330
C
102
}
330
C
100
AcDbDictionary
281
     1
  3
Layout1
350
1E
  3
Layout2
350
26
  3
Model
350
22
  0
DICTIONARY
  5
17
102
{ACAD_REACTORS
330
C
102
}
330
C
100
AcDbDictionary
281
     1
  3
Standard
350
18
  0
DICTIONARY
  5
19
102
{ACAD_REACTORS
330
C
102
}
330
C
100
AcDbDictionary
281
     1
  0
ACDBDICTIONARYWDFLT
  5
E
102
{ACAD_REACTORS
330
C
102
}
330
C
100
AcDbDictionary
281
     1
  3
Normal
350
F
100
AcDbDictionaryWithDefault
340
F
  0
DICTIONARY
  5
47
102
{ACAD_REACTORS
330
C
102
}
330
C
100
AcDbDictionary
281
     1
  3
A0
350
48
  3
A1
350
49
  3
A2
350
4A
  3
A3
350
4B
  3
A4
350
4C
  3
A5
350
4D
  3
A6
350
4E
  3
A7
350
4F
  3
A8
350
50
  3
A9
350
51
  3
B0
350
52
  3
B1
350
53
  3
B2
350
54
  3
B3
350
55
  3
B4
350
56
  3
B5
350
57
  3
B6
350
58
  3
B7
350
59
  3
B8
350
5A
  3
B9
350
5B
  3
C0
350
5C
  3
C1
350
5D
  3
C2
350
5E
  3
C3
350
5F
  3
C4
350
60
  3
C5
350
61
  3
C6
350
62
  3
C7
350
63
  3
C8
350
64
  3
C9
350
65
  3
D0
350
66
  3
D1
350
67
  3
D2
350
68
  0
LAYOUT
  5
1E
102
{ACAD_REACTORS
330
1A
102
}
330
1A
100
AcDbPlotSettings
  1

  2
none_device
  4

  6

 40
0.0
 41
0.0
 42
0.0
 43
0.0
 44
0.0
 45
0.0
 46
0.0
 47
0.0
 48
0.0
 49
0.0
140
0.0
141
0.0
142
1.0
143
1.0
 70
   688
 72
     1
 73
     0
 74
     5
  7

 75
    16
147
1.0
148
0.0
149
0.0
100
AcDbLayout
  1
Layout1
 70
     1
 71
     1
 10
0.0
 20
0.0
 11
420.0
 21
297.0
 12
0.0
 22
0.0
 32
0.0
 14
1.0000000000E+20
 24
1.0000000000E+20
 34
1.0000000000E+20
 15
-1.0000000000E+20
 25
-1.0000000000E+20
 35
-1.0000000000E+20
146
0.0
 13
0.0
 23
0.0
 33
0.0
 16
1.0
 26
0.0
 36
0.0
 17
0.0
 27
1.0
 37
0.0
 76
     0
330
1B
  0
LAYOUT
  5
26
102
{ACAD_REACTORS
330
1A
102
}
330
1A
100
AcDbPlotSettings
  1

  2
none_device
  4

  6

 40
0.0
 41
0.0
 42
0.0
 43
0.0
 44
0.0
 45
0.0
 46
0.0
 47
0.0
 48
0.0
 49
0.0
140
0.0
141
0.0
142
1.0
143
1.0
 70
   688
 72
     1
 73
     0
 74
     5
  7

 75
    16
147
1.0
148
0.0
149
0.0
100
AcDbLayout
  1
Layout2
 70
     1
 71
     2
 10
0.0
 20
0.0
 11
0.0
 21
0.0
 12
0.0
 22
0.0
 32
0.0
 14
0.0
 24
0.0
 34
0.0
 15
0.0
 25
0.0
 35
0.0
146
0.0
 13
0.0
 23
0.0
 33
0.0
 16
1.0
 26
0.0
 36
0.0
 17
0.0
 27
1.0
 37
0.0
 76
     0
330
23
  0
LAYOUT
  5
22
102
{ACAD_REACTORS
330
1A
102
}
330
1A
100
AcDbPlotSettings
  1

  2
none_device
  4
ANSI_A_(11.00_x_8.50_Inches)
  6

 40
6.35
 41
19.05
 42
6.35000508
 43
19.05000254
 44
279.4
 45
215.9
 46
133.34999746
 47
88.89999873
 48
0.0
 49
0.0
140
0.0
141
0.0
142
0.0396
143
1.0
 70
  1696
 72
     0
 73
     0
 74
     0
  7

 75
     0
147
0.0179189148
148
-1300.4909072572
149
0.0
100
AcDbLayout
  1
Model
 70
     1
 71
     0
 10
0.0
 20
0.0
 11
420.0
 21
297.0
 12
0.0
 22
0.0
 32
0.0
 14
-137.5
 24
-75.0
 34
0.0
 15
137.5
 25
75.0
 35
0.0
146
0.0
 13
0.0
 23
0.0
 33
0.0
 16
1.0
 26
0.0
 36
0.0
 17
0.0
 27
1.0
 37
0.0
 76
     0
330
1F
331
29
  0
MLINESTYLE
  5
18
102
{ACAD_REACTORS
330
17
102
}
330
17
100
AcDbMlineStyle
  2
Standard
 70
     0
  3

 62
   256
 51
90.0
 52
90.0
 71
     2
 49
0.5
 62
   256
  6
BYLAYER
 49
-0.5
 62
   256
  6
BYLAYER
  0
ACDBPLACEHOLDER
  5
F
102
{ACAD_REACTORS
330
E
102
}
330
E
  0
SCALE
  5
48
102
{ACAD_REACTORS
330
47
102
}
330
47
100
AcDbScale
 70
     0
300
1:1
140
1.0
141
1.0
290
     1
  0
SCALE
  5
49
102
{ACAD_REACTORS
330
47
102
}
330
47
100
AcDbScale
 70
     0
300
1:2
140
1.0
141
2.0
290
     0
  0
SCALE
  5
4A
102
{ACAD_REACTORS
330
47
102
}
330
47
100
AcDbScale
 70
     0
300
1:4
140
1.0
141
4.0
290
     0
  0
SCALE
  5
4B
102
{ACAD_REACTORS
330
47
102
}
330
47
100
AcDbScale
 70
     0
300
1:5
140
1.0
141
5.0
290
     0
  0
SCALE
  5
4C
102
{ACAD_REACTORS
330
47
102
}
330
47
100
AcDbScale
 70
     0
300
1:8
140
1.0
141
8.0
290
     0
  0
SCALE
  5
4D
102
{ACAD_REACTORS
330
47
102
}
330
47
100
AcDbScale
 70
     0
300
1:10
140
1.0
141
10.0
290
     0
  0
SCALE
  5
4E
102
{ACAD_REACTORS
330
47
102
}
330
47
100
AcDbScale
 70
     0
300
1:16
140
1.0
141
16.0
290
     0
  0
SCALE
  5
4F
102
{ACAD_REACTORS
330
47
102
}
330
47
100
AcDbScale
 70
     0
300
1:20
140
1.0
141
20.0
290
     0
  0
SCALE
  5
50
102
{ACAD_REACTORS
330
47
102
}
330
47
100
AcDbScale
 70
     0
300
1:30
140
1.0
141
30.0
290
     0
  0
SCALE
  5
51
102
{ACAD_REACTORS
330
47
102
}
330
47
100
AcDbScale
 70
     0
300
1:40
140
1.0
141
40.0
290
     0
  0
SCALE
  5
52
102
{ACAD_REACTORS
330
47
102
}
330
47
100
AcDbScale
 70
     0
300
1:50
140
1.0
141
50.0
290
     0
  0
SCALE
  5
53
102
{ACAD_REACTORS
330
47
102
}
330
47
100
AcDbScale
 70
     0
300
1:100
140
1.0
141
100.0
290
     0
  0
SCALE
  5
54
102
{ACAD_REACTORS
330
47
102
}
330
47
100
AcDbScale
 70
     0
300
2:1
140
2.0
141
1.0
290
     0
  0
SCALE
  5
55
102
{ACAD_REACTORS
330
47
102
}
330
47
100
AcDbScale
 70
     0
300
4:1
140
4.0
141
1.0
290
     0
  0
SCALE
  5
56
102
{ACAD_REACTORS
330
47
102
}
330
47
100
AcDbScale
 70
     0
300
8:1
140
8.0
141
1.0
290
     0
  0
SCALE
  5
57
102
{ACAD_REACTORS
330
47
102
}
330
47
100
AcDbScale
 70
     0
300
10:1
140
10.0
141
1.0
290
     0
  0
SCALE
  5
58
102
{ACAD_REACTORS
330
47
102
}
330
47
100
AcDbScale
 70
     0
300
100:1
140
100.0
141
1.0
290
     0
  0
SCALE
  5
59
102
{ACAD_REACTORS
330
47
102
}
330
47
100
AcDbScale
 70
     0
300
1/128" = 1'-0"
140
0.0078125
141
12.0
290
     0
  0
SCALE
  5
5A
102
{ACAD_REACTORS
330
47
102
}
330
47
100
AcDbScale
 70
     0
300
1/64" = 1'-0"
140
0.015625
141
12.0
290
     0
  0
SCALE
  5
5B
102
{ACAD_REACTORS
330
47
102
}
330
47
100
AcDbScale
 70
     0
300
1/32" = 1'-0"
140
0.03125
141
12.0
290
     0
  0
SCALE
  5
5C
102
{ACAD_REACTORS
330
47
102
}
330
47
100
AcDbScale
 70
     0
300
1/16" = 1'-0"
140
0.0625
141
12.0
290
     0
  0
SCALE
  5
5D
102
{ACAD_REACTORS
330
47
102
}
330
47
100
AcDbScale
 70
     0
300
3/32" = 1'-0"
140
0.09375
141
12.0
290
     0
  0
SCALE
  5
5E
102
{ACAD_REACTORS
330
47
102
}
330
47
100
AcDbScale
 70
     0
300
1/8" = 1'-0"
140
0.125
141
12.0
290
     0
  0
SCALE
  5
5F
102
{ACAD_REACTORS
330
47
102
}
330
47
100
AcDbScale
 70
     0
300
3/16" = 1'-0"
140
0.1875
141
12.0
290
     0
  0
SCALE
  5
60
102
{ACAD_REACTORS
330
47
102
}
330
47
100
AcDbScale
 70
     0
300
1/4" = 1'-0"
140
0.25
141
12.0
290
     0
  0
SCALE
  5
61
102
{ACAD_REACTORS
330
47
102
}
330
47
100
AcDbScale
 70
     0
300
3/8" = 1'-0"
140
0.375
141
12.0
290
     0
  0
SCALE
  5
62
102
{ACAD_REACTORS
330
47
102
}
330
47
100
AcDbScale
 70
     0
300
1/2" = 1'-0"
140
0.5
141
12.0
290
     0
  0
SCALE
  5
63
102
{ACAD_REACTORS
330
47
102
}
330
47
100
AcDbScale
 70
     0
300
3/4" = 1'-0"
140
0.75
141
12.0
290
     0
  0
SCALE
  5
64
102
{ACAD_REACTORS
330
47
102
}
330
47
100
AcDbScale
 70
     0
300
1" = 1'-0"
140
1.0
141
12.0
290
     0
  0
SCALE
  5
65
102
{ACAD_REACTORS
330
47
102
}
330
47
100
AcDbScale
 70
     0
300
1-1/2" = 1'-0"
140
1.5
141
12.0
290
     0
  0
SCALE
  5
66
102
{ACAD_REACTORS
330
47
102
}
330
47
100
AcDbScale
 70
     0
300
3" = 1'-0"
140
3.0
141
12.0
290
     0
  0
SCALE
  5
67
102
{ACAD_REACTORS
330
47
102
}
330
47
100
AcDbScale
 70
     0
300
6" = 1'-0"
140
6.0
141
12.0
290
     0
  0
SCALE
  5
68
102
{ACAD_REACTORS
330
47
102
}
330
47
100
AcDbScale
 70
     0
300
1'-0" = 1'-0"
140
12.0
141
12.0
290
     0
  0
ENDSEC
  0
EOF
