  0
SECTION
  2
HEADER
  9
$ACADVER
  1
AC1015
  9
$ACADMAINTVER
 70
     6
  9
$DWGCODEPAGE
  3
ANSI_1252
  9
$INSBASE
 10
0.0
 20
0.0
 30
0.0
  9
$EXTMIN
 10
-137.5
 20
0.0
 30
0.0
  9
$EXTMAX
 10
137.5
 20
65.0
 30
0.0
  9
$LIMMIN
 10
0.0
 20
0.0
  9
$LIMMAX
 10
420.0
 20
297.0
  9
$ORTHOMODE
 70
     0
  9
$REGENMODE
 70
     1
  9
$FILLMODE
 70
     1
  9
$QTEXTMODE
 70
     0
  9
$MIRRTEXT
 70
     1
  9
$LTSCALE
 40
1.0
  9
$ATTMODE
 70
     1
  9
$TEXTSIZE
 40
3.5
  9
$TRACEWID
 40
1.0
  9
$TEXTSTYLE
  7
Standard
  9
$CLAYER
  8
0
  9
$CELTYPE
  6
ByLayer
  9
$CECOLOR
 62
   256
  9
$CELTSCALE
 40
1.0
  9
$DISPSILH
 70
     0
  9
$DIMSCALE
 40
1.0
  9
$DIMASZ
 40
3.302
  9
$DIMEXO
 40
1.0
  9
$DIMDLI
 40
3.75
  9
$DIMRND
 40
0.0
  9
$DIMDLE
 40
0.0
  9
$DIMEXE
 40
1.0
  9
$DIMTP
 40
0.0
  9
$DIMTM
 40
0.0
  9
$DIMTXT
 40
3.5
  9
$DIMCEN
 40
2.5
  9
$DIMTSZ
 40
0.0
  9
$DIMTOL
 70
     0
  9
$DIMLIM
 70
     0
  9
$DIMTIH
 70
     1
  9
$DIMTOH
 70
     1
  9
$DIMSE1
 70
     0
  9
$DIMSE2
 70
     0
  9
$DIMTAD
 70
     1
  9
$DIMZIN
 70
     1
  9
$DIMBLK
  1

  9
$DIMASO
 70
     1
  9
$DIMSHO
 70
     1
  9
$DIMPOST
  1

  9
$DIMAPOST
  1

  9
$DIMALT
 70
     0
  9
$DIMALTD
 70
     3
  9
$DIMALTF
 40
0.0393700787
  9
$DIMLFAC
 40
1.0
  9
$DIMTOFL
 70
     1
  9
$DIMTVP
 40
0.0
  9
$DIMTIX
 70
     0
  9
$DIMSOXD
 70
     0
  9
$DIMSAH
 70
     0
  9
$DIMBLK1
  1

  9
$DIMBLK2
  1

  9
$DIMSTYLE
  2
ISO-25
  9
$DIMCLRD
 70
     0
  9
$DIMCLRE
 70
     0
  9
$DIMCLRT
 70
     0
  9
$DIMTFAC
 40
1.0
  9
$DIMGAP
 40
1.524
  9
$DIMJUST
 70
     0
  9
$DIMSD1
 70
     0
  9
$DIMSD2
 70
     0
  9
$DIMTOLJ
 70
     0
  9
$DIMTZIN
 70
     1
  9
$DIMALTZ
 70
     0
  9
$DIMALTTZ
 70
     0
  9
$DIMUPT
 70
     0
  9
$DIMDEC
 70
     2
  9
$DIMTDEC
 70
     2
  9
$DIMALTU
 70
     2
  9
$DIMALTTD
 70
     3
  9
$DIMTXSTY
  7
Standard
  9
$DIMAUNIT
 70
     0
  9
$DIMADEC
 70
     2
  9
$DIMALTRND
 40
0.0
  9
$DIMAZIN
 70
     0
  9
$DIMDSEP
 70
    44
  9
$DIMATFIT
 70
     3
  9
$DIMFRAC
 70
     0
  9
$DIMLDRBLK
  1

  9
$DIMLUNIT
 70
     2
  9
$DIMLWD
 70
    -2
  9
$DIMLWE
 70
    -2
  9
$DIMTMOVE
 70
     0
  9
$LUNITS
 70
     2
  9
$LUPREC
 70
     2
  9
$SKETCHINC
 40
1.0
  9
$FILLETRAD
 40
10.0
  9
$AUNITS
 70
     0
  9
$AUPREC
 70
     2
  9
$MENU
  1
.
  9
$ELEVATION
 40
0.0
  9
$PELEVATION
 40
0.0
  9
$THICKNESS
 40
0.0
  9
$LIMCHECK
 70
     0
  9
$CHAMFERA
 40
0.0
  9
$CHAMFERB
 40
0.0
  9
$CHAMFERC
 40
0.0
  9
$CHAMFERD
 40
0.0
  9
$SKPOLY
 70
     0
  9
$TDCREATE
 40
2459152.105155544
  9
$TDUCREATE
 40
2459152.063488877
  9
$TDUPDATE
 40
2459152.105241042
  9
$TDUUPDATE
 40
2459152.063574375
  9
$TDINDWG
 40
0.0000000116
  9
$TDUSRTIMER
 40
0.0000000116
  9
$USRTIMER
 70
     1
  9
$ANGBASE
 50
0.0
  9
$ANGDIR
 70
     0
  9
$PDMODE
 70
     0
  9
$PDSIZE
 40
-1.0
  9
$PLINEWID
 40
0.0
  9
$SPLFRAME
 70
     0
  9
$SPLINETYPE
 70
     6
  9
$SPLINESEGS
 70
     8
  9
$HANDSEED
  5
9C
  9
$SURFTAB1
 70
     6
  9
$SURFTAB2
 70
     6
  9
$SURFTYPE
 70
     6
  9
$SURFU
 70
     6
  9
$SURFV
 70
     6
  9
$UCSBASE
  2

  9
$UCSNAME
  2

  9
$UCSORG
 10
0.0
 20
0.0
 30
0.0
  9
$UCSXDIR
 10
1.0
 20
0.0
 30
0.0
  9
$UCSYDIR
 10
0.0
 20
1.0
 30
0.0
  9
$UCSORTHOREF
  2

  9
$UCSORTHOVIEW
 70
     0
  9
$UCSORGTOP
 10
0.0
 20
0.0
 30
0.0
  9
$UCSORGBOTTOM
 10
0.0
 20
0.0
 30
0.0
  9
$UCSORGLEFT
 10
0.0
 20
0.0
 30
0.0
  9
$UCSORGRIGHT
 10
0.0
 20
0.0
 30
0.0
  9
$UCSORGFRONT
 10
0.0
 20
0.0
 30
0.0
  9
$UCSORGBACK
 10
0.0
 20
0.0
 30
0.0
  9
$PUCSBASE
  2

  9
$PUCSNAME
  2

  9
$PUCSORG
 10
0.0
 20
0.0
 30
0.0
  9
$PUCSXDIR
 10
1.0
 20
0.0
 30
0.0
  9
$PUCSYDIR
 10
0.0
 20
1.0
 30
0.0
  9
$PUCSORTHOREF
  2

  9
$PUCSORTHOVIEW
 70
     0
  9
$PUCSORGTOP
 10
0.0
 20
0.0
 30
0.0
  9
$PUCSORGBOTTOM
 10
0.0
 20
0.0
 30
0.0
  9
$PUCSORGLEFT
 10
0.0
 20
0.0
 30
0.0
  9
$PUCSORGRIGHT
 10
0.0
 20
0.0
 30
0.0
  9
$PUCSORGFRONT
 10
0.0
 20
0.0
 30
0.0
  9
$PUCSORGBACK
 10
0.0
 20
0.0
 30
0.0
  9
$USERI1
 70
     0
  9
$USERI2
 70
     0
  9
$USERI3
 70
     0
  9
$USERI4
 70
     0
  9
$USERI5
 70
     0
  9
$USERR1
 40
0.0
  9
$USERR2
 40
0.0
  9
$USERR3
 40
0.0
  9
$USERR4
 40
0.0
  9
$USERR5
 40
0.0
  9
$WORLDVIEW
 70
     1
  9
$SHADEDGE
 70
     3
  9
$SHADEDIF
 70
    70
  9
$TILEMODE
 70
     1
  9
$MAXACTVP
 70
    64
  9
$PINSBASE
 10
0.0
 20
0.0
 30
0.0
  9
$PLIMCHECK
 70
     0
  9
$PEXTMIN
 10
1.0000000000E+20
 20
1.0000000000E+20
 30
1.0000000000E+20
  9
$PEXTMAX
 10
-1.0000000000E+20
 20
-1.0000000000E+20
 30
-1.0000000000E+20
  9
$PLIMMIN
 10
0.0
 20
0.0
  9
$PLIMMAX
 10
420.0
 20
297.0
  9
$UNITMODE
 70
     0
  9
$VISRETAIN
 70
     1
  9
$PLINEGEN
 70
     0
  9
$PSLTSCALE
 70
     1
  9
$TREEDEPTH
 70
  3020
  9
$CMLSTYLE
  2
Standard
  9
$CMLJUST
 70
     0
  9
$CMLSCALE
 40
20.0
  9
$PROXYGRAPHICS
 70
     1
  9
$MEASUREMENT
 70
     1
  9
$CELWEIGHT
370
    -1
  9
$ENDCAPS
280
     0
  9
$JOINSTYLE
280
     0
  9
$LWDISPLAY
290
     1
  9
$INSUNITS
 70
     4
  9
$HYPERLINKBASE
  1

  9
$STYLESHEET
  1

  9
$XEDIT
290
     1
  9
$CEPSNTYPE
380
     0
  9
$PSTYLEMODE
290
     1
  9
$FINGERPRINTGUID
  2
{f055cdc8-4a0c-49b1-97c7-5a3691a0f33c}
  9
$VERSIONGUID
  2
{FAEB1C32-E019-11D5-929B-00C0DF256EC4}
  9
$EXTNAMES
290
     1
  9
$PSVPSCALE
 40
0.0
  9
$OLESTARTUP
290
     0
  0
ENDSEC
  0
SECTION
  2
CLASSES
  0
CLASS
  1
ACDBDICTIONARYWDFLT
  2
AcDbDictionaryWithDefault
  3
ObjectDBX Classes
 90
        0
280
     0
281
     0
  0
CLASS
  1
VISUALSTYLE
  2
AcDbVisualStyle
  3
ObjectDBX Classes
 90
     4095
280
     0
281
     0
  0
CLASS
  1
MATERIAL
  2
AcDbMaterial
  3
ObjectDBX Classes
 90
     1153
280
     0
281
     0
  0
CLASS
  1
SCALE
  2
AcDbScale
  3
ObjectDBX Classes
 90
     1153
280
     0
281
     0
  0
CLASS
  1
TABLESTYLE
  2
AcDbTableStyle
  3
ObjectDBX Classes
 90
     4095
280
     0
281
     0
  0
CLASS
  1
MLEADERSTYLE
  2
AcDbMLeaderStyle
  3
ACDB_MLEADERSTYLE_CLASS
 90
     4095
280
     0
281
     0
  0
CLASS
  1
SUN
  2
AcDbSun
  3
SCENEOE
 90
     1153
280
     0
281
     0
  0
CLASS
  1
ACDBPLACEHOLDER
  2
AcDbPlaceHolder
  3
ObjectDBX Classes
 90
        0
280
     0
281
     0
  0
CLASS
  1
LAYOUT
  2
AcDbLayout
  3
ObjectDBX Classes
 90
        0
280
     0
281
     0
  0
ENDSEC
  0
SECTION
  2
TABLES
  0
TABLE
  2
VPORT
  5
8
330
0
100
AcDbSymbolTable
 70
     1
  0
VPORT
  5
29
330
8
100
AcDbSymbolTableRecord
100
AcDbViewportTableRecord
  2
*Active
 70
     0
 10
0.0
 20
0.0
 11
1.0
 21
1.0
 12
0.0
 22
32.5
 13
0.0
 23
0.0
 14
10.0
 24
10.0
 15
10.0
 25
10.0
 16
0.0
 26
0.0
 36
1.0
 17
0.0
 27
0.0
 37
0.0
 40
66.3
 41
4.2307692308
 42
50.0
 43
0.0
 44
0.0
 50
0.0
 51
0.0
 71
     0
 72
   100
 73
     1
 74
     3
 75
     0
 76
     0
 77
     0
 78
     0
281
     0
 65
     1
110
0.0
120
0.0
130
0.0
111
1.0
121
0.0
131
0.0
112
0.0
122
1.0
132
0.0
 79
     0
146
0.0
  0
ENDTAB
  0
TABLE
  2
LTYPE
  5
5
330
0
100
AcDbSymbolTable
 70
     6
  0
LTYPE
  5
14
330
5
100
AcDbSymbolTableRecord
100
AcDbLinetypeTableRecord
  2
ByBlock
 70
     0
  3

 72
    65
 73
     0
 40
0.0
  0
LTYPE
  5
15
330
5
100
AcDbSymbolTableRecord
100
AcDbLinetypeTableRecord
  2
ByLayer
 70
     0
  3

 72
    65
 73
     0
 40
0.0
  0
LTYPE
  5
16
330
5
100
AcDbSymbolTableRecord
100
AcDbLinetypeTableRecord
  2
Continuous
 70
     0
  3
Solid line
 72
    65
 73
     0
 40
0.0
  0
LTYPE
  5
6E
330
5
100
AcDbSymbolTableRecord
100
AcDbLinetypeTableRecord
  2
HIDDEN
 70
     0
  3
Hidden __ __ __ __ __ __ __ __ __ __ __ __ __ __
 72
    65
 73
     2
 40
1.905
 49
1.27
 74
     0
 49
-0.635
 74
     0
  0
LTYPE
  5
6F
330
5
100
AcDbSymbolTableRecord
100
AcDbLinetypeTableRecord
  2
PHANTOM
 70
     0
  3
Phantom ______  __  __  ______  __  __  ______
 72
    65
 73
     6
 40
12.7
 49
6.35
 74
     0
 49
-1.27
 74
     0
 49
1.27
 74
     0
 49
-1.27
 74
     0
 49
1.27
 74
     0
 49
-1.27
 74
     0
  0
LTYPE
  5
70
330
5
100
AcDbSymbolTableRecord
100
AcDbLinetypeTableRecord
  2
CENTER
 70
     0
  3
Center ____ _ ____ _ ____ _ ____ _ ____ _ ____
 72
    65
 73
     4
 40
10.16
 49
6.35
 74
     0
 49
-1.27
 74
     0
 49
1.27
 74
     0
 49
-1.27
 74
     0
  0
LTYPE
  5
71
330
5
100
AcDbSymbolTableRecord
100
AcDbLinetypeTableRecord
  2
CENTERX2
 70
     0
  3
Center (2x) ________  __  ________  __  _____
 72
    65
 73
     4
 40
20.32
 49
12.7
 74
     0
 49
-2.54
 74
     0
 49
2.54
 74
     0
 49
-2.54
 74
     0
  0
LTYPE
  5
72
330
5
100
AcDbSymbolTableRecord
100
AcDbLinetypeTableRecord
  2
DOT2
 70
     0
  3
Dot (.5x) ........................................
 72
    65
 73
     2
 40
0.635
 49
0.0
 74
     0
 49
-0.635
 74
     0
  0
ENDTAB
  0
TABLE
  2
LAYER
  5
2
330
0
100
AcDbSymbolTable
 70
     1
  0
LAYER
  5
10
330
2
100
AcDbSymbolTableRecord
100
AcDbLayerTableRecord
  2
0
 70
     0
 62
     7
  6
Continuous
370
    -3
390
F
  0
ENDTAB
  0
TABLE
  2
STYLE
  5
3
330
0
100
AcDbSymbolTable
 70
     2
  0
STYLE
  5
11
330
3
100
AcDbSymbolTableRecord
100
AcDbTextStyleTableRecord
  2
Standard
 70
     0
 40
0.0
 41
1.0
 50
0.0
 71
     0
 42
3.5
  3
txt
  4

  0
STYLE
  5
9A
330
3
100
AcDbSymbolTableRecord
100
AcDbTextStyleTableRecord
  2
SLDTEXTSTYLE0
 70
     0
 40
0.0
 41
0.7
 50
0.0
 71
     0
 42
3.5
  3
TXT
  4

  0
ENDTAB
  0
TABLE
  2
VIEW
  5
6
330
0
100
AcDbSymbolTable
 70
     0
  0
ENDTAB
  0
TABLE
  2
UCS
  5
7
330
0
100
AcDbSymbolTable
 70
     0
  0
ENDTAB
  0
TABLE
  2
APPID
  5
9
330
0
100
AcDbSymbolTable
 70
     1
  0
APPID
  5
12
330
9
100
AcDbSymbolTableRecord
100
AcDbRegAppTableRecord
  2
ACAD
 70
     0
  0
ENDTAB
  0
TABLE
  2
DIMSTYLE
  5
A
330
0
100
AcDbSymbolTable
 70
     1
100
AcDbDimStyleTable
  0
DIMSTYLE
105
27
330
A
100
AcDbSymbolTableRecord
100
AcDbDimStyleTableRecord
  2
ISO-25
 70
     0
 41
2.5
 42
0.625
 43
3.75
 44
1.25
 73
     0
 74
     0
 77
     1
 78
     8
140
2.5
141
2.5
143
0.0393700787
147
0.625
171
     3
172
     1
178
     0
271
     2
272
     2
274
     3
278
    44
283
     0
284
     8
340
11
  0
ENDTAB
  0
TABLE
  2
BLOCK_RECORD
  5
1
330
0
100
AcDbSymbolTable
 70
     1
  0
BLOCK_RECORD
  5
1F
330
1
100
AcDbSymbolTableRecord
100
AcDbBlockTableRecord
  2
*Model_Space
340
22
  0
BLOCK_RECORD
  5
1B
330
1
100
AcDbSymbolTableRecord
100
AcDbBlockTableRecord
  2
*Paper_Space
340
1E
  0
BLOCK_RECORD
  5
23
330
1
100
AcDbSymbolTableRecord
100
AcDbBlockTableRecord
  2
*Paper_Space0
340
26
  0
ENDTAB
  0
ENDSEC
  0
SECTION
  2
BLOCKS
  0
BLOCK
  5
20
330
1F
100
AcDbEntity
  8
0
100
AcDbBlockBegin
  2
*Model_Space
 70
     0
 10
0.0
 20
0.0
 30
0.0
  3
*Model_Space
  1

  0
ENDBLK
  5
21
330
1F
100
AcDbEntity
  8
0
100
AcDbBlockEnd
  0
BLOCK
  5
1C
330
1B
100
AcDbEntity
 67
     1
  8
0
100
AcDbBlockBegin
  2
*Paper_Space
 70
     0
 10
0.0
 20
0.0
 30
0.0
  3
*Paper_Space
  1

  0
ENDBLK
  5
1D
330
1B
100
AcDbEntity
 67
     1
  8
0
100
AcDbBlockEnd
  0
BLOCK
  5
24
330
23
100
AcDbEntity
  8
0
100
AcDbBlockBegin
  2
*Paper_Space0
 70
     0
 10
0.0
 20
0.0
 30
0.0
  3
*Paper_Space0
  1

  0
ENDBLK
  5
25
330
23
100
AcDbEntity
  8
0
100
AcDbBlockEnd
  0
ENDSEC
  0
SECTION
  2
ENTITIES
  0
LWPOLYLINE
  5
73
330
1F
100
AcDbEntity
  8
0
  6
Continuous
 62
     7
100
AcDbPolyline
 90
      144
 70
   128
 43
0.0
 10
-72.3717808723
 20
59.0600517492
 10
-73.687900641
 20
57.8020389286
 10
-73.687900641
 20
57.8020389286
 10
-74.0284455128
 20
58.1425838004
 10
-74.3790064103
 20
58.4390581594
 10
-74.7415865385
 20
58.6874555953
 10
-75.1141826923
 20
58.8937857235
 10
-75.4967948718
 20
59.0520389286
 10
-75.8894230769
 20
59.1662216209
 10
-76.2940705128
 20
59.2343305953
 10
-76.7087339744
 20
59.2563658517
 10
-76.7087339744
 20
59.2563658517
 10
-77.0552884615
 20
59.2403402107
 10
-77.3898237179
 20
59.1942664927
 10
-77.7083333333
 20
59.1161414927
 10
-78.0128205128
 20
59.0079684158
 10
-78.3052884615
 20
58.8677440568
 10
-78.5817307692
 20
58.6974716209
 10
-78.8461538462
 20
58.495147903
 10
-79.0945512821
 20
58.2627761081
 10
-79.3209134615
 20
58.0083690568
 10
-79.5192307692
 20
57.7379363645
 10
-79.6854967949
 20
57.4534812363
 10
-79.8217147436
 20
57.1550036722
 10
-79.9278846154
 20
56.8425036722
 10
-80.0040064103
 20
56.5139780312
 10
-80.0480769231
 20
56.1714299543
 10
-80.0641025641
 20
55.8148594415
 10
-80.0641025641
 20
55.8148594415
 10
-80.0580929487
 20
55.5644588004
 10
-80.0380608974
 20
55.3220709799
 10
-80.0040064103
 20
55.0856927748
 10
-79.9559294872
 20
54.8573273902
 10
-79.8958333333
 20
54.6369748261
 10
-79.8237179487
 20
54.4226318774
 10
-79.7355769231
 20
54.214298544
 10
-79.6354166667
 20
54.0139780312
 10
-79.5212339744
 20
53.823673544
 10
-79.3970352564
 20
53.6433850825
 10
-79.2628205128
 20
53.4731126466
 10
-79.1165865385
 20
53.3128562363
 10
-78.9583333333
 20
53.1646190568
 10
-78.7900641026
 20
53.026397903
 10
-78.609775641
 20
52.8981927748
 10
-78.4194711538
 20
52.7800036722
 10
-78.2211538462
 20
52.6758370056
 10
-78.0168269231
 20
52.5836895697
 10
-77.8064903846
 20
52.5075677748
 10
-77.5901442308
 20
52.4454684158
 10
-77.3697916667
 20
52.3953882876
 10
-77.1434294872
 20
52.3613338004
 10
-76.9110576923
 20
52.339298544
 10
-76.6746794872
 20
52.3332889286
 10
-76.6746794872
 20
52.3332889286
 10
-76.2740384615
 20
52.3533209799
 10
-75.8914262821
 20
52.4114139286
 10
-75.5248397436
 20
52.5095709799
 10
-75.1782852564
 20
52.6457889286
 10
-75.0060096154
 20
52.7319267492
 10
-74.8297275641
 20
52.8360934158
 10
-74.6494391026
 20
52.9542825184
 10
-74.4651442308
 20
53.088497262
 10
-74.2768429487
 20
53.2387376466
 10
-74.0845352564
 20
53.4070068774
 10
-73.8882211538
 20
53.589298544
 10
-73.687900641
 20
53.7876158517
 10
-73.687900641
 20
53.7876158517
 10
-72.4118589744
 20
52.4474716209
 10
-72.4118589744
 20
52.4474716209
 10
-72.6822916667
 20
52.1890581594
 10
-72.9467147436
 20
51.9506767492
 10
-73.2091346154
 20
51.7343305953
 10
-73.4675480769
 20
51.5360132876
 10
-73.7219551282
 20
51.3597312363
 10
-73.9723557692
 20
51.2054844415
 10
-74.2207532051
 20
51.0692664927
 10
-74.4631410256
 20
50.9550838004
 10
-74.7095352564
 20
50.8569267492
 10
-74.9619391026
 20
50.7727921338
 10
-75.2263621795
 20
50.7006767492
 10
-75.4967948718
 20
50.6425838004
 10
-75.7772435897
 20
50.5965100825
 10
-76.0637019231
 20
50.5644588004
 10
-76.3621794872
 20
50.5444267492
 10
-76.6666666667
 20
50.5384171338
 10
-76.6666666667
 20
50.5384171338
 10
-77.2255608974
 20
50.5624555953
 10
-77.7564102564
 20
50.6305645697
 10
-78.2632211538
 20
50.7467504671
 10
-78.7419871795
 20
50.9090100825
 10
-79.1967147436
 20
51.1173434158
 10
-79.625400641
 20
51.3717504671
 10
-80.0280448718
 20
51.6722312363
 10
-80.4046474359
 20
52.0187857235
 10
-80.7451923077
 20
52.401397903
 10
-81.0416666667
 20
52.8100517492
 10
-81.2900641026
 20
53.2467504671
 10
-81.4943910256
 20
53.7074876466
 10
-81.6546474359
 20
54.1942664927
 10
-81.7688301282
 20
54.7070870056
 10
-81.8369391026
 20
55.2459491851
 10
-81.858974359
 20
55.8108530312
 10
-81.858974359
 20
55.8108530312
 10
-81.8489583333
 20
56.1794427748
 10
-81.8169070513
 20
56.5400196979
 10
-81.7668269231
 20
56.8865741851
 10
-81.6927083333
 20
57.2251158517
 10
-81.6005608974
 20
57.5516382876
 10
-81.4863782051
 20
57.870147903
 10
-81.3521634615
 20
58.1746350825
 10
-81.1979166667
 20
58.4711094415
 10
-81.0236378205
 20
58.7555645697
 10
-80.8313301282
 20
59.0239940568
 10
-80.6209935897
 20
59.2804043133
 10
-80.3926282051
 20
59.5207889286
 10
-80.1462339744
 20
59.7471511081
 10
-79.8818108974
 20
59.9594908517
 10
-79.6013621795
 20
60.1578081594
 10
-79.3008814103
 20
60.3421030312
 10
-78.9883814103
 20
60.5083690568
 10
-78.671875
 20
60.6525998261
 10
-78.3473557692
 20
60.7747953389
 10
-78.0168269231
 20
60.8749555953
 10
-77.6822916667
 20
60.9510773902
 10
-77.3397435897
 20
61.0071671338
 10
-76.9931891026
 20
61.0392184158
 10
-76.6386217949
 20
61.0512376466
 10
-76.6386217949
 20
61.0512376466
 10
-76.3361378205
 20
61.0432248261
 10
-76.0376602564
 20
61.0191863645
 10
-75.7431891026
 20
60.979122262
 10
-75.4487179487
 20
60.9210293133
 10
-75.1582532051
 20
60.8489139286
 10
-74.8717948718
 20
60.7587696979
 10
-74.5873397436
 20
60.6546030312
 10
-74.3048878205
 20
60.5324075184
 10
-74.0284455128
 20
60.3961895697
 10
-73.7640224359
 20
60.2459491851
 10
-73.5076121795
 20
60.0836895697
 10
-73.2612179487
 20
59.9054043133
 10
-73.0248397436
 20
59.7150998261
 10
-72.796474359
 20
59.510772903
 10
-72.5801282051
 20
59.292423544
 10
-72.3717948718
 20
59.0600517492
  0
ARC
  5
74
330
1F
100
AcDbEntity
  8
0
  6
Continuous
 62
     7
100
AcDbCircle
 10
-65.8773909166
 20
55.8230182789
 30
0.0
 40
5.228219367748197
100
AcDbArc
 50
90.0001416947
 51
89.9998583046
  0
ARC
  5
75
330
1F
100
AcDbEntity
  8
0
  6
Continuous
 62
     7
100
AcDbCircle
 10
-65.9054204442
 20
55.8369394284
 30
0.0
 40
3.419426423455474
100
AcDbArc
 50
90.0004737533
 51
89.9995262372
  0
LWPOLYLINE
  5
76
330
1F
100
AcDbEntity
  8
0
  6
Continuous
 62
     7
100
AcDbPolyline
 90
       26
 70
   128
 43
0.0
 10
-58.118969202
 20
60.7948273902
 10
-56.2560096154
 20
60.7948273902
 10
-56.2560096154
 20
60.7948273902
 10
-53.9743589744
 20
53.8196671338
 10
-53.9743589744
 20
53.8196671338
 10
-51.6766826923
 20
60.7948273902
 10
-51.6766826923
 20
60.7948273902
 10
-49.8317307692
 20
60.7948273902
 10
-49.8317307692
 20
60.7948273902
 10
-48.141025641
 20
50.7948273902
 10
-48.141025641
 20
50.7948273902
 10
-49.9579326923
 20
50.7948273902
 10
-49.9579326923
 20
50.7948273902
 10
-51.0256410256
 20
57.1109331594
 10
-51.0256410256
 20
57.1109331594
 10
-53.1049679487
 20
50.7948273902
 10
-53.1049679487
 20
50.7948273902
 10
-54.8557692308
 20
50.7948273902
 10
-54.8557692308
 20
50.7948273902
 10
-56.9230769231
 20
57.1109331594
 10
-56.9230769231
 20
57.1109331594
 10
-57.9887820513
 20
50.7948273902
 10
-57.9887820513
 20
50.7948273902
 10
-59.8076923077
 20
50.7948273902
 10
-59.8076923077
 20
50.7948273902
 10
-58.1189903846
 20
60.7948273902
  0
LWPOLYLINE
  5
77
330
1F
100
AcDbEntity
  8
0
  6
Continuous
 62
     7
100
AcDbPolyline
 90
       62
 70
   128
 43
0.0
 10
53.7820458412
 20
60.7948273902
 10
55.7431891026
 20
60.7948273902
 10
55.7431891026
 20
60.7948273902
 10
56.1478365385
 20
60.7928241851
 10
56.5184294872
 20
60.7848113645
 10
56.8549679487
 20
60.7727921338
 10
57.1574519231
 20
60.7567664927
 10
57.4238782051
 20
60.7367344415
 10
57.6582532051
 20
60.7106927748
 10
57.8565705128
 20
60.6806446979
 10
58.0208333333
 20
60.6445870056
 10
58.0208333333
 20
60.6445870056
 10
58.2271634615
 20
60.5844908517
 10
58.4234775641
 20
60.510372262
 10
58.609775641
 20
60.4222312363
 10
58.7880608974
 20
60.3200677748
 10
58.9543269231
 20
60.2038818774
 10
59.1125801282
 20
60.073673544
 10
59.2608173077
 20
59.9294427748
 10
59.3990384615
 20
59.7711895697
 10
59.5252403846
 20
59.6009171338
 10
59.6334134615
 20
59.4206286722
 10
59.7255608974
 20
59.2283209799
 10
59.8016826923
 20
59.0280004671
 10
59.859775641
 20
58.8136575184
 10
59.9018429487
 20
58.5913017492
 10
59.9278846154
 20
58.3569267492
 10
59.9358974359
 20
58.1125357235
 10
59.9358974359
 20
58.1125357235
 10
59.9278846154
 20
57.8661414927
 10
59.9018429487
 20
57.6317664927
 10
59.8617788462
 20
57.4074075184
 10
59.8036858974
 20
57.1950677748
 10
59.7275641026
 20
56.9927440568
 10
59.6374198718
 20
56.8024395697
 10
59.5292467949
 20
56.6221511081
 10
59.4050480769
 20
56.4538818774
 10
59.2668269231
 20
56.2976318774
 10
59.1145833333
 20
56.1534011081
 10
58.9503205128
 20
56.0231927748
 10
58.7740384615
 20
55.9070068774
 10
58.5837339744
 20
55.8048434158
 10
58.3814102564
 20
55.7146991851
 10
58.1670673077
 20
55.6385773902
 10
57.9407051282
 20
55.5744748261
 10
57.9407051282
 20
55.5744748261
 10
57.7524038462
 20
55.5364139286
 10
57.5260416667
 20
55.5023594415
 10
57.2636217949
 20
55.4743145697
 10
56.9631410256
 20
55.4522793133
 10
56.6266025641
 20
55.4342504671
 10
56.2540064103
 20
55.4202280312
 10
55.843349359
 20
55.4122152107
 10
55.3946314103
 20
55.4102120056
 10
55.3946314103
 20
55.4102120056
 10
54.6794871795
 20
55.4102120056
 10
54.6794871795
 20
55.4102120056
 10
54.6794871795
 20
50.7948273902
 10
54.6794871795
 20
50.7948273902
 10
53.7820512821
 20
50.7948273902
 10
53.7820512821
 20
50.7948273902
 10
53.7820512821
 20
60.7948273902
  0
LWPOLYLINE
  5
78
330
1F
100
AcDbEntity
  8
0
  6
Continuous
 62
     7
100
AcDbPolyline
 90
       40
 70
   128
 43
0.0
 10
54.6794831753
 20
59.7691863645
 10
54.6794871795
 20
56.4358530312
 10
54.6794871795
 20
56.4358530312
 10
56.4302884615
 20
56.4138177748
 10
56.4302884615
 20
56.4138177748
 10
56.6866987179
 20
56.4158209799
 10
56.9250801282
 20
56.4258370056
 10
57.1454326923
 20
56.4398594415
 10
57.3497596154
 20
56.4598914927
 10
57.5340544872
 20
56.4859331594
 10
57.7023237179
 20
56.5159812363
 10
57.8505608974
 20
56.5540421338
 10
57.9827724359
 20
56.5961094415
 10
58.2151442308
 20
56.7022793133
 10
58.4234775641
 20
56.8364940568
 10
58.6017628205
 20
57.0007568774
 10
58.7560096154
 20
57.1910613645
 10
58.8802083333
 20
57.4034011081
 10
58.968349359
 20
57.6257568774
 10
59.0204326923
 20
57.8621350825
 10
59.0384615385
 20
58.1085293133
 10
59.0384615385
 20
58.1085293133
 10
59.0204326923
 20
58.3489139286
 10
58.968349359
 20
58.5812857235
 10
58.8802083333
 20
58.8016382876
 10
58.7560096154
 20
59.0119748261
 10
58.6037660256
 20
59.2022793133
 10
58.4314903846
 20
59.3625357235
 10
58.2331730769
 20
59.494747262
 10
58.0148237179
 20
59.5949075184
 10
57.890625
 20
59.6349716209
 10
57.7483974359
 20
59.6710293133
 10
57.5861378205
 20
59.7010773902
 10
57.4078525641
 20
59.7251158517
 10
57.2095352564
 20
59.745147903
 10
56.9951923077
 20
59.7591703389
 10
56.7608173077
 20
59.7671831594
 10
56.5084134615
 20
59.7691863645
 10
56.5084134615
 20
59.7691863645
 10
54.6794871795
 20
59.7691863645
  0
LWPOLYLINE
  5
79
330
1F
100
AcDbEntity
  8
0
  6
Continuous
 62
     7
100
AcDbPolyline
 90
       26
 70
   128
 43
0.0
 10
61.3461434841
 20
60.7948273902
 10
62.2736378205
 20
60.7948273902
 10
62.2736378205
 20
60.7948273902
 10
64.2307692308
 20
53.4610934158
 10
64.2307692308
 20
53.4610934158
 10
67.1414262821
 20
60.7948273902
 10
67.1414262821
 20
60.7948273902
 10
67.2716346154
 20
60.7948273902
 10
67.2716346154
 20
60.7948273902
 10
70.1282051282
 20
53.511173544
 10
70.1282051282
 20
53.511173544
 10
72.0953525641
 20
60.7948273902
 10
72.0953525641
 20
60.7948273902
 10
73.0128205128
 20
60.7948273902
 10
73.0128205128
 20
60.7948273902
 10
70.3165064103
 20
50.7948273902
 10
70.3165064103
 20
50.7948273902
 10
70.1883012821
 20
50.7948273902
 10
70.1883012821
 20
50.7948273902
 10
67.1794871795
 20
58.4430645697
 10
67.1794871795
 20
58.4430645697
 10
64.1346153846
 20
50.7948273902
 10
64.1346153846
 20
50.7948273902
 10
64.0064102564
 20
50.7948273902
 10
64.0064102564
 20
50.7948273902
 10
61.3461538462
 20
60.7948273902
  0
LWPOLYLINE
  5
7A
330
1F
100
AcDbEntity
  8
0
  6
Continuous
 62
     7
100
AcDbPolyline
 90
       59
 70
   128
 43
0.0
 10
74.8076438904
 20
60.7948273902
 10
76.8088942308
 20
60.7948273902
 10
76.8088942308
 20
60.7948273902
 10
77.2095352564
 20
60.7928241851
 10
77.578125
 20
60.7868145697
 10
77.9106570513
 20
60.7747953389
 10
78.2111378205
 20
60.760772903
 10
78.4775641026
 20
60.7407408517
 10
78.7099358974
 20
60.7187055953
 10
78.9102564103
 20
60.6906607235
 10
79.0745192308
 20
60.6586094415
 10
79.0745192308
 20
60.6586094415
 10
79.2928685897
 20
60.6005164927
 10
79.5012019231
 20
60.526397903
 10
79.6995192308
 20
60.4382568774
 10
79.8858173077
 20
60.3360934158
 10
80.062099359
 20
60.2179043133
 10
80.2283653846
 20
60.0856927748
 10
80.3846153846
 20
59.9394588004
 10
80.5288461538
 20
59.7771991851
 10
80.6610576923
 20
59.604923544
 10
80.7752403846
 20
59.4206286722
 10
80.8713942308
 20
59.2283209799
 10
80.9495192308
 20
59.025997262
 10
81.0116185897
 20
58.8136575184
 10
81.0556891026
 20
58.5933049543
 10
81.0817307692
 20
58.3609331594
 10
81.0897435897
 20
58.120548544
 10
81.0897435897
 20
58.120548544
 10
81.0657051282
 20
57.7219107235
 10
80.9915865385
 20
57.3493145697
 10
80.8673878205
 20
57.0007568774
 10
80.6951121795
 20
56.6762376466
 10
80.4767628205
 20
56.3837696979
 10
80.2163461538
 20
56.1293626466
 10
79.9118589744
 20
55.9130164927
 10
79.5673076923
 20
55.7347312363
 10
79.375
 20
55.6606126466
 10
79.1666666667
 20
55.5945068774
 10
78.9403044872
 20
55.5404203389
 10
78.6959134615
 20
55.4943466209
 10
78.4334935897
 20
55.4582889286
 10
78.1550480769
 20
55.432247262
 10
77.8585737179
 20
55.4162216209
 10
77.5440705128
 20
55.4102120056
 10
77.5440705128
 20
55.4102120056
 10
81.2179487179
 20
50.7948273902
 10
81.2179487179
 20
50.7948273902
 10
80.1081730769
 20
50.7948273902
 10
80.1081730769
 20
50.7948273902
 10
76.4342948718
 20
55.4102120056
 10
76.4342948718
 20
55.4102120056
 10
75.7051282051
 20
55.4102120056
 10
75.7051282051
 20
55.4102120056
 10
75.7051282051
 20
50.7948273902
 10
75.7051282051
 20
50.7948273902
 10
74.8076923077
 20
50.7948273902
 10
74.8076923077
 20
50.7948273902
 10
74.8076923077
 20
60.7948273902
  0
LWPOLYLINE
  5
7B
330
1F
100
AcDbEntity
  8
0
  6
Continuous
 62
     7
100
AcDbPolyline
 90
       40
 70
   128
 43
0.0
 10
75.7051110268
 20
59.7691863645
 10
75.7051282051
 20
56.4358530312
 10
75.7051282051
 20
56.4358530312
 10
77.5360576923
 20
56.4218305953
 10
77.5360576923
 20
56.4218305953
 10
77.7924679487
 20
56.4238338004
 10
78.0328525641
 20
56.4338498261
 10
78.2552083333
 20
56.447872262
 10
78.4615384615
 20
56.4679043133
 10
78.6498397436
 20
56.4939459799
 10
78.8201121795
 20
56.525997262
 10
78.9743589744
 20
56.5640581594
 10
79.1105769231
 20
56.6081286722
 10
79.3509615385
 20
56.7163017492
 10
79.5653044872
 20
56.8505164927
 10
79.749599359
 20
57.0147793133
 10
79.905849359
 20
57.2050838004
 10
80.0320512821
 20
57.417423544
 10
80.1201923077
 20
57.6397793133
 10
80.1742788462
 20
57.8761575184
 10
80.1923076923
 20
58.1225517492
 10
80.1923076923
 20
58.1225517492
 10
80.1742788462
 20
58.3629363645
 10
80.1201923077
 20
58.5933049543
 10
80.0280448718
 20
58.8116543133
 10
79.9018429487
 20
59.0179844415
 10
79.7455929487
 20
59.2062857235
 10
79.5673076923
 20
59.3645389286
 10
79.3669871795
 20
59.494747262
 10
79.1426282051
 20
59.5949075184
 10
79.0144230769
 20
59.6349716209
 10
78.8681891026
 20
59.6710293133
 10
78.7019230769
 20
59.7010773902
 10
78.5176282051
 20
59.7251158517
 10
78.3112980769
 20
59.745147903
 10
78.0869391026
 20
59.7591703389
 10
77.8425480769
 20
59.7671831594
 10
77.5801282051
 20
59.7691863645
 10
77.5801282051
 20
59.7691863645
 10
75.7051282051
 20
59.7691863645
  0
CIRCLE
  5
84
330
1F
100
AcDbEntity
  8
0
  6
Continuous
 62
     7
370
    25
100
AcDbCircle
 10
-129.495008006
 20
43.0
 30
0.0
 40
1.65000000000002
  0
CIRCLE
  5
85
330
1F
100
AcDbEntity
  8
0
  6
Continuous
 62
     7
370
    25
100
AcDbCircle
 10
129.5
 20
22.0
 30
0.0
 40
1.650000000000006
  0
CIRCLE
  5
86
330
1F
100
AcDbEntity
  8
0
  6
Continuous
 62
     7
370
    25
100
AcDbCircle
 10
129.5
 20
43.0
 30
0.0
 40
1.650000000000006
  0
CIRCLE
  5
87
330
1F
100
AcDbEntity
  8
0
  6
Continuous
 62
     7
370
    25
100
AcDbCircle
 10
-129.5
 20
22.0
 30
0.0
 40
1.650000000000006
  0
LINE
  5
8D
330
1F
100
AcDbEntity
  8
0
  6
Continuous
 62
     7
370
    25
100
AcDbLine
 10
-137.5
 20
65.0
 30
0.0
 11
137.5
 21
65.0
 31
0.0
  0
LINE
  5
8E
330
1F
100
AcDbEntity
  8
0
  6
Continuous
 62
     7
370
    25
100
AcDbLine
 10
-137.5
 20
0.0
 30
0.0
 11
137.5
 21
0.0
 31
0.0
  0
LINE
  5
8F
330
1F
100
AcDbEntity
  8
0
  6
Continuous
 62
     7
370
    25
100
AcDbLine
 10
43.825
 20
60.6
 30
0.0
 11
29.825
 21
60.6
 31
0.0
  0
LINE
  5
90
330
1F
100
AcDbEntity
  8
0
  6
Continuous
 62
     7
370
    25
100
AcDbLine
 10
29.825
 20
60.6
 30
0.0
 11
29.825
 21
52.6
 31
0.0
  0
LINE
  5
91
330
1F
100
AcDbEntity
  8
0
  6
Continuous
 62
     7
370
    25
100
AcDbLine
 10
29.825
 20
52.6
 30
0.0
 11
43.825
 21
52.6
 31
0.0
  0
LINE
  5
92
330
1F
100
AcDbEntity
  8
0
  6
Continuous
 62
     7
370
    25
100
AcDbLine
 10
-25.525
 20
52.6
 30
0.0
 11
-25.525
 21
60.6
 31
0.0
  0
LINE
  5
93
330
1F
100
AcDbEntity
  8
0
  6
Continuous
 62
     7
370
    25
100
AcDbLine
 10
-25.525
 20
60.6
 30
0.0
 11
-39.525
 21
60.6
 31
0.0
  0
LINE
  5
94
330
1F
100
AcDbEntity
  8
0
  6
Continuous
 62
     7
370
    25
100
AcDbLine
 10
-39.525
 20
60.6
 30
0.0
 11
-39.525
 21
52.6
 31
0.0
  0
LINE
  5
95
330
1F
100
AcDbEntity
  8
0
  6
Continuous
 62
     7
370
    25
100
AcDbLine
 10
-137.5
 20
65.0
 30
0.0
 11
-137.5
 21
0.0
 31
0.0
  0
LINE
  5
96
330
1F
100
AcDbEntity
  8
0
  6
Continuous
 62
     7
370
    25
100
AcDbLine
 10
43.825
 20
52.6
 30
0.0
 11
43.825
 21
60.6
 31
0.0
  0
LINE
  5
97
330
1F
100
AcDbEntity
  8
0
  6
Continuous
 62
     7
370
    25
100
AcDbLine
 10
-39.525
 20
52.6
 30
0.0
 11
-25.525
 21
52.6
 31
0.0
  0
LINE
  5
98
330
1F
100
AcDbEntity
  8
0
  6
Continuous
 62
     7
370
    25
100
AcDbLine
 10
137.5
 20
65.0
 30
0.0
 11
137.5
 21
0.0
 31
0.0
  0
ARC
  5
99
330
1F
100
AcDbEntity
  8
0
  6
Continuous
 62
     7
370
    25
100
AcDbCircle
 10
-129.5
 20
43.0
 30
0.0
 40
1.650000000000024
100
AcDbArc
 50
270.0866091239
 51
89.9134014488
  0
MTEXT
  5
9B
330
1F
100
AcDbEntity
  8
0
  6
Continuous
 62
     7
100
AcDbMText
 10
-137.5
 20
-1.0195663917
 30
0.0
 40
4.83362
 41
0.0
 71
     1
 72
     1
  1
SOLIDWORKS Lehrprodukt - Nur für Lehrzwecke.
  7
SLDTEXTSTYLE0
 73
     1
 44
1.0
  0
ENDSEC
  0
SECTION
  2
OBJECTS
  0
DICTIONARY
  5
C
330
0
100
AcDbDictionary
281
     1
  3
ACAD_GROUP
350
D
  3
ACAD_LAYOUT
350
1A
  3
ACAD_MLINESTYLE
350
17
  3
ACAD_PLOTSETTINGS
350
19
  3
ACAD_PLOTSTYLENAME
350
E
  3
ACAD_SCALELIST
350
47
  0
DICTIONARY
  5
D
102
{ACAD_REACTORS
330
C
102
}
330
C
100
AcDbDictionary
281
     1
  0
DICTIONARY
  5
1A
102
{ACAD_REACTORS
330
C
102
}
330
C
100
AcDbDictionary
281
     1
  3
Layout1
350
1E
  3
Layout2
350
26
  3
Model
350
22
  0
DICTIONARY
  5
17
102
{ACAD_REACTORS
330
C
102
}
330
C
100
AcDbDictionary
281
     1
  3
Standard
350
18
  0
DICTIONARY
  5
19
102
{ACAD_REACTORS
330
C
102
}
330
C
100
AcDbDictionary
281
     1
  0
ACDBDICTIONARYWDFLT
  5
E
102
{ACAD_REACTORS
330
C
102
}
330
C
100
AcDbDictionary
281
     1
  3
Normal
350
F
100
AcDbDictionaryWithDefault
340
F
  0
DICTIONARY
  5
47
102
{ACAD_REACTORS
330
C
102
}
330
C
100
AcDbDictionary
281
     1
  3
A0
350
48
  3
A1
350
49
  3
A2
350
4A
  3
A3
350
4B
  3
A4
350
4C
  3
A5
350
4D
  3
A6
350
4E
  3
A7
350
4F
  3
A8
350
50
  3
A9
350
51
  3
B0
350
52
  3
B1
350
53
  3
B2
350
54
  3
B3
350
55
  3
B4
350
56
  3
B5
350
57
  3
B6
350
58
  3
B7
350
59
  3
B8
350
5A
  3
B9
350
5B
  3
C0
350
5C
  3
C1
350
5D
  3
C2
350
5E
  3
C3
350
5F
  3
C4
350
60
  3
C5
350
61
  3
C6
350
62
  3
C7
350
63
  3
C8
350
64
  3
C9
350
65
  3
D0
350
66
  3
D1
350
67
  3
D2
350
68
  0
LAYOUT
  5
1E
102
{ACAD_REACTORS
330
1A
102
}
330
1A
100
AcDbPlotSettings
  1

  2
none_device
  4

  6

 40
0.0
 41
0.0
 42
0.0
 43
0.0
 44
0.0
 45
0.0
 46
0.0
 47
0.0
 48
0.0
 49
0.0
140
0.0
141
0.0
142
1.0
143
1.0
 70
   688
 72
     1
 73
     0
 74
     5
  7

 75
    16
147
1.0
148
0.0
149
0.0
100
AcDbLayout
  1
Layout1
 70
     1
 71
     1
 10
0.0
 20
0.0
 11
420.0
 21
297.0
 12
0.0
 22
0.0
 32
0.0
 14
1.0000000000E+20
 24
1.0000000000E+20
 34
1.0000000000E+20
 15
-1.0000000000E+20
 25
-1.0000000000E+20
 35
-1.0000000000E+20
146
0.0
 13
0.0
 23
0.0
 33
0.0
 16
1.0
 26
0.0
 36
0.0
 17
0.0
 27
1.0
 37
0.0
 76
     0
330
1B
  0
LAYOUT
  5
26
102
{ACAD_REACTORS
330
1A
102
}
330
1A
100
AcDbPlotSettings
  1

  2
none_device
  4

  6

 40
0.0
 41
0.0
 42
0.0
 43
0.0
 44
0.0
 45
0.0
 46
0.0
 47
0.0
 48
0.0
 49
0.0
140
0.0
141
0.0
142
1.0
143
1.0
 70
   688
 72
     1
 73
     0
 74
     5
  7

 75
    16
147
1.0
148
0.0
149
0.0
100
AcDbLayout
  1
Layout2
 70
     1
 71
     2
 10
0.0
 20
0.0
 11
0.0
 21
0.0
 12
0.0
 22
0.0
 32
0.0
 14
0.0
 24
0.0
 34
0.0
 15
0.0
 25
0.0
 35
0.0
146
0.0
 13
0.0
 23
0.0
 33
0.0
 16
1.0
 26
0.0
 36
0.0
 17
0.0
 27
1.0
 37
0.0
 76
     0
330
23
  0
LAYOUT
  5
22
102
{ACAD_REACTORS
330
1A
102
}
330
1A
100
AcDbPlotSettings
  1

  2
none_device
  4
ANSI_A_(11.00_x_8.50_Inches)
  6

 40
6.35
 41
19.05
 42
6.35000508
 43
19.05000254
 44
279.4
 45
215.9
 46
133.34999746
 47
56.21019873
 48
0.0
 49
0.0
140
0.0
141
0.0
142
0.0396
143
1.0
 70
  1696
 72
     0
 73
     0
 74
     0
  7

 75
     0
147
0.0179189148
148
-1300.4909072572
149
0.0
100
AcDbLayout
  1
Model
 70
     1
 71
     0
 10
0.0
 20
0.0
 11
420.0
 21
297.0
 12
0.0
 22
0.0
 32
0.0
 14
-137.5
 24
0.0
 34
0.0
 15
137.5
 25
65.0
 35
0.0
146
0.0
 13
0.0
 23
0.0
 33
0.0
 16
1.0
 26
0.0
 36
0.0
 17
0.0
 27
1.0
 37
0.0
 76
     0
330
1F
331
29
  0
MLINESTYLE
  5
18
102
{ACAD_REACTORS
330
17
102
}
330
17
100
AcDbMlineStyle
  2
Standard
 70
     0
  3

 62
   256
 51
90.0
 52
90.0
 71
     2
 49
0.5
 62
   256
  6
BYLAYER
 49
-0.5
 62
   256
  6
BYLAYER
  0
ACDBPLACEHOLDER
  5
F
102
{ACAD_REACTORS
330
E
102
}
330
E
  0
SCALE
  5
48
102
{ACAD_REACTORS
330
47
102
}
330
47
100
AcDbScale
 70
     0
300
1:1
140
1.0
141
1.0
290
     1
  0
SCALE
  5
49
102
{ACAD_REACTORS
330
47
102
}
330
47
100
AcDbScale
 70
     0
300
1:2
140
1.0
141
2.0
290
     0
  0
SCALE
  5
4A
102
{ACAD_REACTORS
330
47
102
}
330
47
100
AcDbScale
 70
     0
300
1:4
140
1.0
141
4.0
290
     0
  0
SCALE
  5
4B
102
{ACAD_REACTORS
330
47
102
}
330
47
100
AcDbScale
 70
     0
300
1:5
140
1.0
141
5.0
290
     0
  0
SCALE
  5
4C
102
{ACAD_REACTORS
330
47
102
}
330
47
100
AcDbScale
 70
     0
300
1:8
140
1.0
141
8.0
290
     0
  0
SCALE
  5
4D
102
{ACAD_REACTORS
330
47
102
}
330
47
100
AcDbScale
 70
     0
300
1:10
140
1.0
141
10.0
290
     0
  0
SCALE
  5
4E
102
{ACAD_REACTORS
330
47
102
}
330
47
100
AcDbScale
 70
     0
300
1:16
140
1.0
141
16.0
290
     0
  0
SCALE
  5
4F
102
{ACAD_REACTORS
330
47
102
}
330
47
100
AcDbScale
 70
     0
300
1:20
140
1.0
141
20.0
290
     0
  0
SCALE
  5
50
102
{ACAD_REACTORS
330
47
102
}
330
47
100
AcDbScale
 70
     0
300
1:30
140
1.0
141
30.0
290
     0
  0
SCALE
  5
51
102
{ACAD_REACTORS
330
47
102
}
330
47
100
AcDbScale
 70
     0
300
1:40
140
1.0
141
40.0
290
     0
  0
SCALE
  5
52
102
{ACAD_REACTORS
330
47
102
}
330
47
100
AcDbScale
 70
     0
300
1:50
140
1.0
141
50.0
290
     0
  0
SCALE
  5
53
102
{ACAD_REACTORS
330
47
102
}
330
47
100
AcDbScale
 70
     0
300
1:100
140
1.0
141
100.0
290
     0
  0
SCALE
  5
54
102
{ACAD_REACTORS
330
47
102
}
330
47
100
AcDbScale
 70
     0
300
2:1
140
2.0
141
1.0
290
     0
  0
SCALE
  5
55
102
{ACAD_REACTORS
330
47
102
}
330
47
100
AcDbScale
 70
     0
300
4:1
140
4.0
141
1.0
290
     0
  0
SCALE
  5
56
102
{ACAD_REACTORS
330
47
102
}
330
47
100
AcDbScale
 70
     0
300
8:1
140
8.0
141
1.0
290
     0
  0
SCALE
  5
57
102
{ACAD_REACTORS
330
47
102
}
330
47
100
AcDbScale
 70
     0
300
10:1
140
10.0
141
1.0
290
     0
  0
SCALE
  5
58
102
{ACAD_REACTORS
330
47
102
}
330
47
100
AcDbScale
 70
     0
300
100:1
140
100.0
141
1.0
290
     0
  0
SCALE
  5
59
102
{ACAD_REACTORS
330
47
102
}
330
47
100
AcDbScale
 70
     0
300
1/128" = 1'-0"
140
0.0078125
141
12.0
290
     0
  0
SCALE
  5
5A
102
{ACAD_REACTORS
330
47
102
}
330
47
100
AcDbScale
 70
     0
300
1/64" = 1'-0"
140
0.015625
141
12.0
290
     0
  0
SCALE
  5
5B
102
{ACAD_REACTORS
330
47
102
}
330
47
100
AcDbScale
 70
     0
300
1/32" = 1'-0"
140
0.03125
141
12.0
290
     0
  0
SCALE
  5
5C
102
{ACAD_REACTORS
330
47
102
}
330
47
100
AcDbScale
 70
     0
300
1/16" = 1'-0"
140
0.0625
141
12.0
290
     0
  0
SCALE
  5
5D
102
{ACAD_REACTORS
330
47
102
}
330
47
100
AcDbScale
 70
     0
300
3/32" = 1'-0"
140
0.09375
141
12.0
290
     0
  0
SCALE
  5
5E
102
{ACAD_REACTORS
330
47
102
}
330
47
100
AcDbScale
 70
     0
300
1/8" = 1'-0"
140
0.125
141
12.0
290
     0
  0
SCALE
  5
5F
102
{ACAD_REACTORS
330
47
102
}
330
47
100
AcDbScale
 70
     0
300
3/16" = 1'-0"
140
0.1875
141
12.0
290
     0
  0
SCALE
  5
60
102
{ACAD_REACTORS
330
47
102
}
330
47
100
AcDbScale
 70
     0
300
1/4" = 1'-0"
140
0.25
141
12.0
290
     0
  0
SCALE
  5
61
102
{ACAD_REACTORS
330
47
102
}
330
47
100
AcDbScale
 70
     0
300
3/8" = 1'-0"
140
0.375
141
12.0
290
     0
  0
SCALE
  5
62
102
{ACAD_REACTORS
330
47
102
}
330
47
100
AcDbScale
 70
     0
300
1/2" = 1'-0"
140
0.5
141
12.0
290
     0
  0
SCALE
  5
63
102
{ACAD_REACTORS
330
47
102
}
330
47
100
AcDbScale
 70
     0
300
3/4" = 1'-0"
140
0.75
141
12.0
290
     0
  0
SCALE
  5
64
102
{ACAD_REACTORS
330
47
102
}
330
47
100
AcDbScale
 70
     0
300
1" = 1'-0"
140
1.0
141
12.0
290
     0
  0
SCALE
  5
65
102
{ACAD_REACTORS
330
47
102
}
330
47
100
AcDbScale
 70
     0
300
1-1/2" = 1'-0"
140
1.5
141
12.0
290
     0
  0
SCALE
  5
66
102
{ACAD_REACTORS
330
47
102
}
330
47
100
AcDbScale
 70
     0
300
3" = 1'-0"
140
3.0
141
12.0
290
     0
  0
SCALE
  5
67
102
{ACAD_REACTORS
330
47
102
}
330
47
100
AcDbScale
 70
     0
300
6" = 1'-0"
140
6.0
141
12.0
290
     0
  0
SCALE
  5
68
102
{ACAD_REACTORS
330
47
102
}
330
47
100
AcDbScale
 70
     0
300
1'-0" = 1'-0"
140
12.0
141
12.0
290
     0
  0
ENDSEC
  0
EOF
