M48
;Layer_Color=9474304
;FILE_FORMAT=4:4
METRIC,LZ
;TYPE=PLATED
T3F00S00C0.5000
T5F00S00C0.6500
%
G90
G05
T03
G00X005315Y000271
M15
G01Y000241
M16
G00X005347Y000686
M15
G01Y000656
M16
G00X006173Y000686
M15
G01Y000656
M16
G00X006205Y000271
M15
G01Y000241
M16
G00X0122511Y0002338
M15
G01Y0002038
M16
G00X0122831Y0006488
M15
G01Y0006188
M16
G00X0131091Y0006488
M15
G01Y0006188
M16
G00X0131411Y0002338
M15
G01Y0002038
M16
T05
G00X005415Y000815
M15
G01X005385
M16
G00X0123511Y0007778
M15
G01X0123211
M16
M17
M30
